M48
;Layer_Color=9474304
;FILE_FORMAT=2:5
INCH,LZ
;TYPE=PLATED
T01F00S00C0.01181
T02F00S00C0.02756
;TYPE=NON_PLATED
T03F00S00C0.03150
%
T01
X0002362Y0002362
X001565Y0006398
X0020472Y0018504
X0020079Y0033858
X0022047Y003937
X0023622Y0047244
Y0051968
X0022047Y0055118
X0026772Y0044488
X0030315
Y0035039
X0040453Y0040157
X0045472
X0050433Y0039094
X0051181Y0035827
Y0032283
X0055118
X0055433Y0039094
X0060433
X0066535Y0038976
X0070472Y0036614
X0070866Y0032283
X0066929
X0077559Y0026772
X0087992Y0025591
X0094587
X0094095Y0033465
X009685Y0037795
X0094095Y004252
X010315Y0044488
X0111417Y0040945
Y0037402
X0119291Y0044488
Y0048031
Y0051181
X0123622Y0045669
X0129134Y0047244
X0131496Y0045276
X0130709Y0040157
X0125591Y003937
X0127559Y0033071
X012874Y0025197
Y0020079
X0134646
Y0025197
Y0009843
Y0004724
X012874
Y0009843
X013937Y0002362
X0137795Y0043307
Y0047244
X0128347Y0053347
Y0055709
X0125984
X0094095Y0009843
Y0004724
X0088189
Y0009843
X0073622
X0070472Y0006693
X0066535
X0062992Y0009449
X0060236Y0006693
X0057087
X0053937
X0050197
X004498Y0006398
X0044094Y0021654
X0046457Y0024803
X0033465Y0049606
X0033937Y0069567
Y0094567
Y0099567
Y0104567
Y0107874
X0033071Y0114567
X0063386Y0087008
Y0081496
X0068898
X0074409
Y0087008
X0071653Y0084252
Y0089764
X0066142
Y0084252
X0068898Y0087008
X0066142Y007874
X0071653
X0092047Y0079567
X0092047Y0076378
X0092047Y0073032
X0088976Y0073228
X0092047Y0069567
X0092047Y0066378
X0092047Y0063032
Y0059567
X0105512Y0064173
X0108661
Y0057874
X0114961Y0058268
X0116929Y0061024
X0120079Y0055905
X0128347Y0059449
X0128347Y0063386
X0128347Y0067323
X0136221
Y0063386
Y0059449
X0127559Y0082284
X0114173Y0082284
X0116929Y0085433
X0114961Y0088189
X0111417Y008937
X0108268Y0088583
X0105512Y0085433
X0103543Y0082284
X0103543Y0090158
X0092047Y0089567
Y0094567
Y0099567
X0088583Y0102362
X0092913Y0114567
X0111811Y0114961
X0115748
X0122047Y0116929
X0131102Y0114961
X0127559Y0104331
X0116929Y0105512
X0114961Y0101181
X0111811Y0100394
Y0104331
Y0107874
X0118504Y0089764
X0132677Y0096457
X0111024Y0070079
X0092047Y0084567
X0023228Y0087008
X0019685Y0072835
Y006811
X0012992Y0065354
X0012598Y0094095
Y0102756
X0019685Y0116929
T02
X0100039Y0021654
X0122795
T03
X0012205Y0047244
X0019291
Y0098425
X0012205
M30
