G04*
G04 #@! TF.GenerationSoftware,Altium Limited,Altium Designer,24.10.1 (45)*
G04*
G04 Layer_Color=8388736*
%FSLAX25Y25*%
%MOIN*%
G70*
G04*
G04 #@! TF.SameCoordinates,F1BA22F4-9FB4-4C3A-9B32-68D4286BD9C5*
G04*
G04*
G04 #@! TF.FilePolarity,Negative*
G04*
G01*
G75*
%ADD18R,0.08071X0.09252*%
%ADD19R,0.01772X0.05709*%
%ADD20R,0.02953X0.02953*%
%ADD21R,0.02953X0.02953*%
%ADD22R,0.06890X0.04528*%
%ADD23C,0.00591*%
%ADD24C,0.03740*%
%ADD25C,0.03347*%
D18*
X101181Y31693D02*
D03*
X40551D02*
D03*
D19*
X93504Y18898D02*
D03*
X91535D02*
D03*
X89567D02*
D03*
X87598D02*
D03*
X85630D02*
D03*
X83661D02*
D03*
X81693D02*
D03*
X79724D02*
D03*
X77756D02*
D03*
X75787D02*
D03*
X73819D02*
D03*
X71850D02*
D03*
X69882D02*
D03*
X67913D02*
D03*
X65945D02*
D03*
X63976D02*
D03*
X62008D02*
D03*
X60039D02*
D03*
X58071D02*
D03*
X56102D02*
D03*
X54134D02*
D03*
X52165D02*
D03*
X50197D02*
D03*
X48228D02*
D03*
D20*
X66535Y9055D02*
D03*
X70472D02*
D03*
Y12992D02*
D03*
X74409D02*
D03*
X54134D02*
D03*
X50197D02*
D03*
Y9055D02*
D03*
X54134D02*
D03*
D21*
X27559Y72835D02*
D03*
Y68898D02*
D03*
D22*
X19685Y76772D02*
D03*
Y64961D02*
D03*
Y120079D02*
D03*
Y108268D02*
D03*
X122047Y120079D02*
D03*
Y108268D02*
D03*
Y76772D02*
D03*
Y64961D02*
D03*
D23*
X100039Y21654D02*
D03*
X122795D02*
D03*
D24*
X12205Y98425D02*
D03*
X19291D02*
D03*
X12205Y47244D02*
D03*
X19291D02*
D03*
D25*
X63386Y81496D02*
D03*
X74409D02*
D03*
Y87008D02*
D03*
X63386D02*
D03*
X66142Y78740D02*
D03*
X71653D02*
D03*
Y89764D02*
D03*
X66142D02*
D03*
Y84252D02*
D03*
X71653D02*
D03*
X68898Y81496D02*
D03*
Y87008D02*
D03*
M02*
