G04*
G04 #@! TF.GenerationSoftware,Altium Limited,Altium Designer,24.10.1 (45)*
G04*
G04 Layer_Physical_Order=4*
G04 Layer_Color=16711680*
%FSLAX25Y25*%
%MOIN*%
G70*
G04*
G04 #@! TF.SameCoordinates,F1BA22F4-9FB4-4C3A-9B32-68D4286BD9C5*
G04*
G04*
G04 #@! TF.FilePolarity,Positive*
G04*
G01*
G75*
%ADD10C,0.00787*%
%ADD15R,0.02362X0.02362*%
%ADD16R,0.02362X0.02362*%
%ADD26C,0.00630*%
%ADD28C,0.03150*%
%ADD29C,0.01968*%
%ADD30C,0.02756*%
%ADD31C,0.01968*%
%ADD32C,0.02362*%
%ADD33C,0.01181*%
%ADD34R,0.03937X0.10630*%
%ADD35R,0.02362X0.06693*%
%ADD36R,0.01968X0.02756*%
%ADD37R,0.14567X0.14567*%
%ADD38R,0.05906X0.03543*%
%ADD39R,0.03543X0.05906*%
%ADD40R,0.02756X0.01968*%
%ADD41R,0.03347X0.03347*%
%ADD42R,0.02638X0.01181*%
%ADD43R,0.03347X0.03347*%
%ADD44R,0.02598X0.01260*%
%ADD45R,0.04921X0.03937*%
G04:AMPARAMS|DCode=46|XSize=47.24mil|YSize=98.43mil|CornerRadius=11.81mil|HoleSize=0mil|Usage=FLASHONLY|Rotation=180.000|XOffset=0mil|YOffset=0mil|HoleType=Round|Shape=RoundedRectangle|*
%AMROUNDEDRECTD46*
21,1,0.04724,0.07480,0,0,180.0*
21,1,0.02362,0.09843,0,0,180.0*
1,1,0.02362,-0.01181,0.03740*
1,1,0.02362,0.01181,0.03740*
1,1,0.02362,0.01181,-0.03740*
1,1,0.02362,-0.01181,-0.03740*
%
%ADD46ROUNDEDRECTD46*%
%ADD47C,0.03937*%
%ADD48C,0.00906*%
%ADD49R,0.02362X0.04331*%
%ADD50R,0.01968X0.04331*%
%ADD51R,0.08583X0.07874*%
%ADD52R,0.01181X0.04724*%
%ADD53R,0.02362X0.04724*%
%ADD54R,0.03937X0.04724*%
%ADD55C,0.00945*%
%ADD56C,0.03347*%
%ADD57C,0.01575*%
G36*
X123228Y117717D02*
Y116339D01*
X120276Y113386D01*
X117520D01*
Y115354D01*
X120276Y118110D01*
X122835D01*
X123228Y117717D01*
D02*
G37*
G36*
X140528Y107110D02*
Y20330D01*
X139763Y20125D01*
X139622Y20055D01*
X139473Y20005D01*
X138494Y19439D01*
X138375Y19335D01*
X138244Y19248D01*
X137445Y18449D01*
X137357Y18317D01*
X137254Y18199D01*
X136688Y17220D01*
X136638Y17071D01*
X136568Y16930D01*
X136275Y15838D01*
X136265Y15680D01*
X136234Y15526D01*
Y14395D01*
X136265Y14241D01*
X136275Y14084D01*
X136568Y12992D01*
X136638Y12850D01*
X136688Y12701D01*
X137254Y11722D01*
X137357Y11604D01*
X137445Y11473D01*
X138244Y10673D01*
X138375Y10586D01*
X138494Y10482D01*
X139473Y9917D01*
X139622Y9866D01*
X139763Y9796D01*
X140528Y9591D01*
Y1204D01*
X1204D01*
Y9591D01*
X1969Y9796D01*
X2110Y9866D01*
X2259Y9917D01*
X3238Y10482D01*
X3357Y10586D01*
X3488Y10673D01*
X4287Y11473D01*
X4375Y11604D01*
X4479Y11722D01*
X5044Y12701D01*
X5094Y12850D01*
X5164Y12992D01*
X5457Y14084D01*
X5467Y14241D01*
X5498Y14395D01*
Y15526D01*
X5467Y15680D01*
X5457Y15838D01*
X5164Y16930D01*
X5094Y17071D01*
X5044Y17220D01*
X4479Y18199D01*
X4375Y18317D01*
X4287Y18449D01*
X3488Y19248D01*
X3357Y19335D01*
X3238Y19439D01*
X2259Y20005D01*
X2110Y20055D01*
X1969Y20125D01*
X1204Y20330D01*
Y26273D01*
X6900Y31969D01*
X15669D01*
X15669Y31969D01*
X15827D01*
Y31969D01*
X16069Y31969D01*
X16466D01*
X16535Y31955D01*
X20079D01*
X20079Y31955D01*
X20314Y31955D01*
X20590Y32010D01*
X21024Y32189D01*
X21259Y32346D01*
X21591Y32678D01*
X21748Y32913D01*
X21927Y33347D01*
X21982Y33623D01*
Y35695D01*
X20669Y37008D01*
X16732D01*
Y41732D01*
X18701D01*
X21850Y44882D01*
Y47441D01*
X22835Y48425D01*
Y48523D01*
X24882D01*
Y47087D01*
X32205D01*
Y51687D01*
X32205Y52047D01*
X32205Y52447D01*
Y56687D01*
X32205Y57047D01*
X32205Y57447D01*
Y61687D01*
X32205Y62047D01*
X32205Y62447D01*
Y65440D01*
X35630Y68866D01*
Y70268D01*
X32276Y73622D01*
X32205D01*
Y76687D01*
X32205Y77047D01*
X32205Y77447D01*
Y82047D01*
X32205D01*
Y82087D01*
X32205D01*
Y87047D01*
X32205D01*
Y87087D01*
X32205D01*
Y90440D01*
X35630Y93866D01*
Y108622D01*
X32205Y112047D01*
X24882D01*
Y109370D01*
X16024D01*
Y103228D01*
Y87480D01*
X19757D01*
X19767Y87478D01*
X19776Y87480D01*
X19882D01*
X24878Y82485D01*
X24882Y82087D01*
Y82047D01*
X24882Y82047D01*
Y77447D01*
X24882Y77087D01*
X24882Y76687D01*
Y72087D01*
X24882D01*
Y72047D01*
X24882D01*
Y67087D01*
X24882D01*
Y67047D01*
X24882D01*
Y62447D01*
X24882Y62087D01*
X24882Y61687D01*
Y57447D01*
X24882Y57087D01*
X24882Y56687D01*
Y52447D01*
X24882Y52087D01*
X24882Y51687D01*
Y50611D01*
X22815D01*
X20669Y52756D01*
X16732D01*
Y58484D01*
X9866D01*
Y96592D01*
X10266Y96745D01*
X10633Y96377D01*
X11217Y96040D01*
X11868Y95866D01*
X12542D01*
X13193Y96040D01*
X13776Y96377D01*
X14253Y96854D01*
X14589Y97437D01*
X14764Y98088D01*
Y98762D01*
X14589Y99413D01*
X14253Y99997D01*
X13776Y100473D01*
X13193Y100810D01*
X12542Y100984D01*
X11868D01*
X11217Y100810D01*
X10633Y100473D01*
X10266Y100105D01*
X9866Y100259D01*
Y107503D01*
X17598Y115236D01*
X20386D01*
X21292Y116142D01*
X116444Y116142D01*
X116811Y115742D01*
Y115424D01*
X116797Y115354D01*
Y113386D01*
X116811Y113316D01*
Y112677D01*
X117450D01*
X117520Y112663D01*
X120276D01*
X120345Y112677D01*
X120984D01*
Y113073D01*
X123739Y115828D01*
X123896Y116062D01*
X123912Y116142D01*
X131496D01*
X140528Y107110D01*
D02*
G37*
G36*
X31479Y110137D02*
X31498Y110083D01*
X31530Y110036D01*
X31575Y109995D01*
X31633Y109961D01*
X31703Y109932D01*
X31787Y109910D01*
X31883Y109895D01*
X31992Y109885D01*
X32114Y109882D01*
Y109252D01*
X31992Y109249D01*
X31883Y109239D01*
X31787Y109224D01*
X31703Y109202D01*
X31633Y109173D01*
X31575Y109139D01*
X31530Y109098D01*
X31498Y109050D01*
X31479Y108997D01*
X31472Y108937D01*
Y110197D01*
X31479Y110137D01*
D02*
G37*
G36*
X33149Y109113D02*
X33219Y109058D01*
X33293Y109011D01*
X33372Y108969D01*
X33454Y108934D01*
X33541Y108906D01*
X33631Y108884D01*
X33726Y108869D01*
X33824Y108860D01*
X33927Y108858D01*
X32953Y107884D01*
X32951Y107987D01*
X32942Y108085D01*
X32927Y108180D01*
X32905Y108270D01*
X32877Y108357D01*
X32842Y108439D01*
X32800Y108518D01*
X32753Y108592D01*
X32698Y108662D01*
X32637Y108728D01*
X33083Y109174D01*
X33149Y109113D01*
D02*
G37*
G36*
X31479Y105137D02*
X31498Y105084D01*
X31530Y105036D01*
X31575Y104995D01*
X31633Y104961D01*
X31703Y104932D01*
X31787Y104910D01*
X31883Y104894D01*
X31992Y104885D01*
X32114Y104882D01*
Y104252D01*
X31992Y104249D01*
X31883Y104239D01*
X31787Y104224D01*
X31703Y104202D01*
X31633Y104173D01*
X31575Y104139D01*
X31530Y104098D01*
X31498Y104050D01*
X31479Y103997D01*
X31472Y103937D01*
Y105197D01*
X31479Y105137D01*
D02*
G37*
G36*
X33234Y103878D02*
X33160Y103949D01*
X33084Y104013D01*
X33006Y104069D01*
X32927Y104117D01*
X32846Y104158D01*
X32763Y104192D01*
X32678Y104218D01*
X32592Y104237D01*
X32504Y104248D01*
X32414Y104252D01*
Y104882D01*
X32504Y104886D01*
X32592Y104897D01*
X32678Y104916D01*
X32763Y104942D01*
X32846Y104975D01*
X32927Y105017D01*
X33006Y105065D01*
X33084Y105121D01*
X33160Y105185D01*
X33234Y105256D01*
Y103878D01*
D02*
G37*
G36*
X20622Y104791D02*
X20604Y104733D01*
Y104666D01*
X20622Y104590D01*
X20657Y104506D01*
X20711Y104412D01*
X20782Y104310D01*
X20871Y104199D01*
X21103Y103949D01*
X20657Y103504D01*
X20528Y103628D01*
X20297Y103824D01*
X20194Y103896D01*
X20100Y103949D01*
X20016Y103985D01*
X19940Y104002D01*
X19873D01*
X19815Y103985D01*
X19767Y103949D01*
X20657Y104840D01*
X20622Y104791D01*
D02*
G37*
G36*
X31479Y100137D02*
X31498Y100083D01*
X31530Y100036D01*
X31575Y99995D01*
X31633Y99961D01*
X31703Y99932D01*
X31787Y99910D01*
X31883Y99894D01*
X31992Y99885D01*
X32114Y99882D01*
Y99252D01*
X31992Y99249D01*
X31883Y99239D01*
X31787Y99224D01*
X31703Y99202D01*
X31633Y99173D01*
X31575Y99139D01*
X31530Y99098D01*
X31498Y99050D01*
X31479Y98997D01*
X31472Y98937D01*
Y100197D01*
X31479Y100137D01*
D02*
G37*
G36*
X33234Y98878D02*
X33160Y98949D01*
X33084Y99013D01*
X33006Y99069D01*
X32927Y99117D01*
X32846Y99159D01*
X32763Y99192D01*
X32678Y99218D01*
X32592Y99237D01*
X32504Y99248D01*
X32414Y99252D01*
Y99882D01*
X32504Y99886D01*
X32592Y99897D01*
X32678Y99916D01*
X32763Y99942D01*
X32846Y99975D01*
X32927Y100016D01*
X33006Y100065D01*
X33084Y100121D01*
X33160Y100185D01*
X33234Y100256D01*
Y98878D01*
D02*
G37*
G36*
X31479Y95137D02*
X31498Y95083D01*
X31530Y95036D01*
X31575Y94995D01*
X31633Y94961D01*
X31703Y94932D01*
X31787Y94910D01*
X31883Y94894D01*
X31992Y94885D01*
X32114Y94882D01*
Y94252D01*
X31992Y94249D01*
X31883Y94239D01*
X31787Y94224D01*
X31703Y94202D01*
X31633Y94173D01*
X31575Y94139D01*
X31530Y94098D01*
X31498Y94050D01*
X31479Y93997D01*
X31472Y93937D01*
Y95197D01*
X31479Y95137D01*
D02*
G37*
G36*
X33234Y93878D02*
X33160Y93949D01*
X33084Y94013D01*
X33006Y94069D01*
X32927Y94117D01*
X32846Y94159D01*
X32763Y94192D01*
X32678Y94218D01*
X32592Y94237D01*
X32504Y94248D01*
X32414Y94252D01*
Y94882D01*
X32504Y94886D01*
X32592Y94897D01*
X32678Y94916D01*
X32763Y94942D01*
X32846Y94975D01*
X32927Y95016D01*
X33006Y95065D01*
X33084Y95121D01*
X33160Y95185D01*
X33234Y95256D01*
Y93878D01*
D02*
G37*
G36*
X21103Y92901D02*
X20978Y92772D01*
X20782Y92541D01*
X20711Y92438D01*
X20657Y92345D01*
X20622Y92260D01*
X20604Y92184D01*
Y92117D01*
X20622Y92059D01*
X20657Y92010D01*
X19767Y92901D01*
X19815Y92866D01*
X19873Y92848D01*
X19940D01*
X20016Y92866D01*
X20100Y92901D01*
X20194Y92955D01*
X20297Y93026D01*
X20408Y93115D01*
X20657Y93347D01*
X21103Y92901D01*
D02*
G37*
G36*
X20622Y89043D02*
X20604Y88985D01*
Y88918D01*
X20622Y88842D01*
X20657Y88758D01*
X20711Y88664D01*
X20782Y88562D01*
X20871Y88450D01*
X21103Y88201D01*
X20657Y87756D01*
X20528Y87880D01*
X20297Y88076D01*
X20194Y88147D01*
X20100Y88201D01*
X20016Y88237D01*
X19940Y88254D01*
X19873D01*
X19815Y88237D01*
X19767Y88201D01*
X20657Y89092D01*
X20622Y89043D01*
D02*
G37*
G36*
X22358Y86549D02*
X22339Y86576D01*
X22313Y86601D01*
X22280Y86622D01*
X22240Y86641D01*
X22193Y86657D01*
X22139Y86670D01*
X22077Y86680D01*
X22009Y86687D01*
X21850Y86693D01*
Y87323D01*
X21933Y87324D01*
X22077Y87336D01*
X22139Y87346D01*
X22193Y87359D01*
X22240Y87375D01*
X22280Y87394D01*
X22313Y87415D01*
X22339Y87440D01*
X22358Y87467D01*
Y86549D01*
D02*
G37*
G36*
X31479Y70137D02*
X31498Y70083D01*
X31530Y70036D01*
X31575Y69995D01*
X31633Y69961D01*
X31703Y69932D01*
X31787Y69910D01*
X31883Y69894D01*
X31992Y69885D01*
X32114Y69882D01*
Y69252D01*
X31992Y69249D01*
X31883Y69239D01*
X31787Y69224D01*
X31703Y69202D01*
X31633Y69173D01*
X31575Y69139D01*
X31530Y69098D01*
X31498Y69050D01*
X31479Y68997D01*
X31472Y68937D01*
Y70197D01*
X31479Y70137D01*
D02*
G37*
G36*
X33234Y68878D02*
X33160Y68949D01*
X33084Y69013D01*
X33006Y69069D01*
X32927Y69117D01*
X32846Y69159D01*
X32763Y69192D01*
X32678Y69218D01*
X32592Y69237D01*
X32504Y69248D01*
X32414Y69252D01*
Y69882D01*
X32504Y69886D01*
X32592Y69897D01*
X32678Y69916D01*
X32763Y69942D01*
X32846Y69975D01*
X32927Y70016D01*
X33006Y70065D01*
X33084Y70121D01*
X33160Y70185D01*
X33234Y70256D01*
Y68878D01*
D02*
G37*
G36*
X13365Y52773D02*
X13312Y52754D01*
X13265Y52722D01*
X13224Y52677D01*
X13189Y52619D01*
X13161Y52549D01*
X13139Y52465D01*
X13123Y52369D01*
X13113Y52260D01*
X13110Y52138D01*
X12480D01*
X12477Y52260D01*
X12468Y52369D01*
X12452Y52465D01*
X12430Y52549D01*
X12402Y52619D01*
X12367Y52677D01*
X12326Y52722D01*
X12279Y52754D01*
X12225Y52773D01*
X12165Y52780D01*
X13425D01*
X13365Y52773D01*
D02*
G37*
G36*
X16508Y48996D02*
X16424Y48905D01*
X16348Y48810D01*
X16281Y48712D01*
X16223Y48610D01*
X16174Y48504D01*
X16134Y48395D01*
X16103Y48282D01*
X16081Y48165D01*
X16067Y48045D01*
X16063Y47921D01*
X15433D01*
X15429Y48045D01*
X15415Y48165D01*
X15393Y48282D01*
X15362Y48395D01*
X15322Y48504D01*
X15273Y48610D01*
X15215Y48712D01*
X15148Y48810D01*
X15072Y48905D01*
X14988Y48996D01*
X15303Y49572D01*
X15392Y49492D01*
X15481Y49429D01*
X15570Y49385D01*
X15659Y49358D01*
X15748Y49349D01*
X15837Y49358D01*
X15926Y49385D01*
X16015Y49429D01*
X16104Y49492D01*
X16194Y49572D01*
X16508Y48996D01*
D02*
G37*
G36*
X25615Y48937D02*
X25608Y48997D01*
X25589Y49050D01*
X25557Y49098D01*
X25512Y49139D01*
X25454Y49173D01*
X25383Y49202D01*
X25300Y49224D01*
X25204Y49239D01*
X25095Y49249D01*
X24973Y49252D01*
Y49882D01*
X25095Y49885D01*
X25204Y49894D01*
X25300Y49910D01*
X25383Y49932D01*
X25454Y49961D01*
X25512Y49995D01*
X25557Y50036D01*
X25589Y50084D01*
X25608Y50137D01*
X25615Y50197D01*
Y48937D01*
D02*
G37*
G36*
X13113Y42228D02*
X13123Y42119D01*
X13139Y42023D01*
X13161Y41939D01*
X13189Y41869D01*
X13224Y41811D01*
X13265Y41766D01*
X13312Y41734D01*
X13365Y41715D01*
X13425Y41708D01*
X12165D01*
X12225Y41715D01*
X12279Y41734D01*
X12326Y41766D01*
X12367Y41811D01*
X12402Y41869D01*
X12430Y41939D01*
X12452Y42023D01*
X12468Y42119D01*
X12477Y42228D01*
X12480Y42350D01*
X13110D01*
X13113Y42228D01*
D02*
G37*
G36*
X14350Y37025D02*
X14296Y37006D01*
X14249Y36974D01*
X14208Y36929D01*
X14173Y36871D01*
X14145Y36801D01*
X14123Y36717D01*
X14107Y36621D01*
X14098Y36512D01*
X14095Y36390D01*
X13465D01*
X13461Y36512D01*
X13452Y36621D01*
X13436Y36717D01*
X13414Y36801D01*
X13386Y36871D01*
X13351Y36929D01*
X13310Y36974D01*
X13263Y37006D01*
X13209Y37025D01*
X13150Y37032D01*
X14410D01*
X14350Y37025D01*
D02*
G37*
G36*
X14098Y35535D02*
X14107Y35426D01*
X14123Y35330D01*
X14145Y35247D01*
X14173Y35176D01*
X14208Y35118D01*
X14249Y35073D01*
X14296Y35041D01*
X14350Y35022D01*
X14410Y35015D01*
X13150D01*
X13209Y35022D01*
X13263Y35041D01*
X13310Y35073D01*
X13351Y35118D01*
X13386Y35176D01*
X13414Y35247D01*
X13436Y35330D01*
X13452Y35426D01*
X13461Y35535D01*
X13465Y35657D01*
X14095D01*
X14098Y35535D01*
D02*
G37*
G36*
X20748Y34860D02*
X21080Y34527D01*
X21260Y34093D01*
Y33858D01*
Y33623D01*
X21080Y33189D01*
X20748Y32857D01*
X20314Y32677D01*
X20079Y32677D01*
X20079Y32677D01*
X16535D01*
Y35039D01*
X20314D01*
X20748Y34860D01*
D02*
G37*
%LPC*%
G36*
X132912Y98360D02*
X129134D01*
X129064Y98347D01*
X127756D01*
Y97756D01*
X127756D01*
Y97756D01*
X127045D01*
X127035Y97758D01*
X127026Y97756D01*
X123701D01*
Y95157D01*
Y91220D01*
X127026D01*
X127035Y91219D01*
X127045Y91220D01*
X127756D01*
Y90630D01*
X132205D01*
Y94409D01*
X132545Y94553D01*
X132677D01*
X132677Y94553D01*
X132912Y94553D01*
X133189Y94608D01*
X133623Y94788D01*
X133857Y94945D01*
X134189Y95277D01*
X134346Y95511D01*
X134526Y95945D01*
X134581Y96222D01*
Y96692D01*
X134526Y96968D01*
X134346Y97402D01*
X134346Y97402D01*
X134189Y97637D01*
X133857Y97969D01*
X133623Y98125D01*
X133623Y98125D01*
X133189Y98305D01*
X132912Y98360D01*
D02*
G37*
G36*
X109921Y112061D02*
X94488D01*
X94418Y112047D01*
X93779D01*
Y111408D01*
X93766Y111339D01*
Y107795D01*
X93779Y107726D01*
X93779Y107087D01*
X93779D01*
Y107047D01*
X93779Y107047D01*
Y103693D01*
X90354Y100268D01*
Y94904D01*
Y89904D01*
Y84904D01*
Y79232D01*
X88238Y77116D01*
X79695Y68573D01*
X79469Y68234D01*
X79389Y67835D01*
X79389Y67835D01*
Y48432D01*
X79106Y48150D01*
X77953Y48150D01*
X77553Y48150D01*
X72953D01*
Y48150D01*
X72913D01*
Y48150D01*
X67953D01*
Y48150D01*
X67913D01*
Y48150D01*
X62953D01*
Y48150D01*
X62913D01*
Y48150D01*
X57953D01*
Y48150D01*
X57913D01*
Y48150D01*
X52953D01*
Y48150D01*
X52913D01*
Y48150D01*
X47953D01*
X47953Y48150D01*
X47913D01*
Y48150D01*
X47553Y48150D01*
X43313D01*
X42953Y48150D01*
X42553Y48150D01*
X38313D01*
X37953Y48150D01*
X37553Y48150D01*
X32953D01*
Y46181D01*
X26070D01*
X25079Y45189D01*
Y42343D01*
X26712Y40709D01*
Y32008D01*
X26063D01*
Y30965D01*
X25984D01*
X25585Y30885D01*
X25246Y30659D01*
X25246Y30659D01*
X23672Y29084D01*
X23445Y28746D01*
X23366Y28346D01*
X23366Y28346D01*
Y26693D01*
X22520D01*
Y21949D01*
X24114D01*
Y14547D01*
X36446D01*
X36516Y14533D01*
X38878D01*
X38948Y14547D01*
X39587D01*
Y14943D01*
X41849Y17206D01*
X42006Y17440D01*
X42061Y17717D01*
Y22573D01*
X42205Y22913D01*
X42461Y22913D01*
X42844D01*
X42913Y22899D01*
X46457D01*
X47775Y21581D01*
Y19154D01*
X49488Y17441D01*
Y16802D01*
X49474Y16732D01*
Y9646D01*
X49529Y9369D01*
X49686Y9135D01*
X51246Y7575D01*
Y6496D01*
X51301Y6220D01*
X51458Y5985D01*
X52245Y5198D01*
X52479Y5041D01*
X52634Y5010D01*
X52713Y4611D01*
X53000Y4181D01*
X54181Y3000D01*
X54181Y3000D01*
X54611Y2713D01*
X55118Y2612D01*
X55118Y2612D01*
X59449D01*
X59449Y2612D01*
X59956Y2713D01*
X60236Y2901D01*
X60517Y2713D01*
X61024Y2612D01*
X71260D01*
X71260Y2612D01*
X71767Y2713D01*
X72197Y3000D01*
X75315Y6119D01*
Y10544D01*
X74323Y11535D01*
X72921D01*
X71653Y10268D01*
Y6204D01*
X71474Y6024D01*
X71474Y6024D01*
X71141Y5692D01*
X71141Y5691D01*
X70961Y5512D01*
X70472D01*
X70237Y5512D01*
X70237Y5512D01*
X69983D01*
X69803Y5692D01*
X69471Y6024D01*
X69471Y6024D01*
X69016Y6479D01*
Y12332D01*
X69030Y12402D01*
Y16732D01*
X69016Y16802D01*
Y17441D01*
X68377D01*
X68307Y17455D01*
X65945D01*
X65875Y17441D01*
X65236D01*
Y17045D01*
X64843Y16653D01*
X64687Y16418D01*
X64632Y16142D01*
Y9449D01*
X64567D01*
X63504Y8386D01*
X59535D01*
X58268Y7119D01*
Y6693D01*
Y6458D01*
Y6458D01*
Y6204D01*
X57576Y5512D01*
X57087D01*
X56852Y5512D01*
X56852Y5512D01*
X56597D01*
X56418Y5692D01*
X56085Y6024D01*
X56085Y6024D01*
X55905Y6204D01*
Y6693D01*
Y10236D01*
Y14408D01*
X53268Y17045D01*
Y21929D01*
X53937Y22598D01*
Y28740D01*
X53937D01*
Y32142D01*
X52850Y33229D01*
X52693Y33463D01*
X52361Y33796D01*
X52127Y33952D01*
X51692Y34132D01*
X51416Y34187D01*
X50459D01*
X49606Y35039D01*
Y36614D01*
X50394Y37402D01*
X61134D01*
X63890Y40157D01*
X66929D01*
X67716Y39370D01*
Y38484D01*
X66891Y37658D01*
X66142D01*
X65742Y37578D01*
X65404Y37352D01*
X65404Y37352D01*
X61860Y33809D01*
X61634Y33470D01*
X61555Y33071D01*
X61555Y33071D01*
Y32677D01*
X57874D01*
X56299Y31102D01*
Y22598D01*
X56968Y21929D01*
X60748D01*
X60945Y22126D01*
Y28760D01*
X63336Y31152D01*
X63336Y31152D01*
X63563Y31490D01*
X63642Y31890D01*
Y32639D01*
X66574Y35570D01*
X67323D01*
X67323Y35570D01*
X67722Y35650D01*
X68061Y35876D01*
X70433Y38248D01*
X73563Y35119D01*
Y27677D01*
X72716D01*
Y21929D01*
X76496D01*
Y24947D01*
X76896Y25214D01*
X77222Y25079D01*
X77896D01*
X78518Y25337D01*
X78994Y25813D01*
X79252Y26435D01*
Y26704D01*
X79266Y26766D01*
X79267Y26844D01*
X79272Y26893D01*
X79278Y26935D01*
X79287Y26971D01*
X79297Y27001D01*
X79308Y27027D01*
X79320Y27050D01*
X79332Y27068D01*
X79478Y27215D01*
X79478Y27215D01*
X79704Y27553D01*
X79784Y27953D01*
X80176Y28032D01*
X80630D01*
Y31811D01*
X80630D01*
Y31969D01*
X80630D01*
Y34254D01*
X80735Y34377D01*
X85472Y39114D01*
X86201D01*
Y34232D01*
Y32697D01*
Y27283D01*
X86299D01*
Y26575D01*
X86297Y26566D01*
X86299Y26556D01*
Y17992D01*
X96299D01*
Y27283D01*
Y28110D01*
X95768Y28642D01*
X92421D01*
Y38287D01*
X93110Y38976D01*
X99114D01*
X102853Y42716D01*
X102871Y42727D01*
X102894Y42739D01*
X102920Y42750D01*
X102950Y42760D01*
X102986Y42769D01*
X103028Y42776D01*
X103077Y42780D01*
X103155Y42782D01*
X103217Y42795D01*
X103486D01*
X104109Y43053D01*
X104585Y43529D01*
X104842Y44151D01*
Y44825D01*
X104585Y45447D01*
X104109Y45923D01*
X103486Y46181D01*
X102813D01*
X102191Y45923D01*
X101714Y45447D01*
X101457Y44825D01*
Y44556D01*
X101443Y44494D01*
X101441Y44415D01*
X101437Y44366D01*
X101430Y44324D01*
X101422Y44289D01*
X101412Y44259D01*
X101401Y44233D01*
X101389Y44209D01*
X101377Y44192D01*
X98387Y41201D01*
X92913D01*
Y48150D01*
X87953D01*
Y48150D01*
X87913D01*
Y48150D01*
X83313D01*
X82953Y48150D01*
X82553Y48150D01*
X81477D01*
Y67402D01*
X88878Y74803D01*
X89764D01*
X90354Y74213D01*
Y69904D01*
Y66715D01*
X90354Y66715D01*
Y66041D01*
X90354Y66041D01*
Y63368D01*
Y58866D01*
X91346Y57874D01*
X92384D01*
X93779Y56479D01*
Y52087D01*
X93779D01*
Y52047D01*
X93779D01*
Y47087D01*
X104882D01*
X105905Y46063D01*
X105984D01*
Y41614D01*
X109370D01*
X109514Y41274D01*
Y40551D01*
X109569Y40275D01*
X109725Y40040D01*
X110513Y39253D01*
X110747Y39096D01*
X111024Y39041D01*
X111811D01*
X112088Y39096D01*
X112322Y39253D01*
X113109Y40040D01*
X113266Y40275D01*
X113321Y40551D01*
Y41274D01*
X113465Y41614D01*
X116850D01*
Y47362D01*
X115899D01*
X115819Y47762D01*
X115558Y48153D01*
X109370Y54341D01*
Y56417D01*
X106988D01*
Y63214D01*
X106988D01*
X106963Y63252D01*
X107205Y63836D01*
Y64763D01*
X108209Y65767D01*
X108209Y65767D01*
X108309Y65787D01*
X110531D01*
Y68209D01*
X110276Y68465D01*
X106260D01*
X104724Y66929D01*
X102362D01*
Y69291D01*
X106791D01*
X107224Y69724D01*
Y71693D01*
X110276D01*
X110531Y71949D01*
Y74114D01*
X110276Y74370D01*
X108651D01*
X108268Y74410D01*
X108268D01*
X108268Y74410D01*
X106988Y75689D01*
Y81233D01*
X104858Y83363D01*
X104764Y83504D01*
X104622Y83598D01*
X104244Y83976D01*
X103710D01*
X103543Y84009D01*
Y87008D01*
X107165Y90630D01*
X109370D01*
Y92835D01*
X110236Y93701D01*
X112598Y93701D01*
Y91339D01*
X110992D01*
X109982Y90329D01*
X109724Y89707D01*
Y89033D01*
X109982Y88411D01*
X110458Y87935D01*
X111081Y87677D01*
X111754D01*
X111791Y87652D01*
Y87176D01*
X111777Y87106D01*
Y85598D01*
X111745Y85433D01*
Y82284D01*
Y79134D01*
X111777Y78969D01*
Y77461D01*
X111791Y77391D01*
Y76791D01*
X111831Y76752D01*
X112187D01*
X112289Y76649D01*
Y72402D01*
X112303Y72332D01*
Y71763D01*
X112289Y71693D01*
Y70433D01*
X112303Y70363D01*
Y69794D01*
X112289Y69724D01*
Y68465D01*
X112303Y68395D01*
Y67826D01*
X112289Y67756D01*
Y63508D01*
X112187Y63406D01*
X111791D01*
Y62767D01*
X111777Y62697D01*
Y59350D01*
X111791Y59281D01*
Y58642D01*
X112187D01*
X114056Y56773D01*
X114290Y56616D01*
X114567Y56561D01*
X115354D01*
X115631Y56616D01*
X115865Y56773D01*
X118424Y59332D01*
X118581Y59566D01*
X118636Y59842D01*
Y61943D01*
X120079Y63386D01*
Y63451D01*
X122343D01*
X122412Y63465D01*
X123051D01*
Y64103D01*
X123065Y64173D01*
Y68110D01*
X123051Y68180D01*
Y71978D01*
X123065Y72047D01*
Y75984D01*
X123051Y76054D01*
Y76693D01*
X122412D01*
X122343Y76707D01*
X117421D01*
X117351Y76693D01*
X116713D01*
X116569Y77033D01*
Y78969D01*
X116602Y79134D01*
Y83004D01*
X120472D01*
X120707Y83051D01*
X122854D01*
Y85198D01*
X122901Y85433D01*
X122854Y85668D01*
Y87815D01*
X120707D01*
X120472Y87862D01*
X117688D01*
X114961Y90589D01*
Y93701D01*
X117323D01*
X117913Y93110D01*
X122677D01*
X122756Y93189D01*
Y98169D01*
X122913Y98504D01*
X126693D01*
Y102284D01*
X124408D01*
X124284Y102389D01*
X122883Y103790D01*
X122793Y103887D01*
X122756Y103932D01*
Y106220D01*
X121910D01*
Y107677D01*
X121830Y108077D01*
X121604Y108415D01*
X121604Y108415D01*
X121111Y108908D01*
X121021Y109005D01*
X120984Y109051D01*
Y110945D01*
X116811D01*
Y107559D01*
X118976D01*
Y103937D01*
X116830D01*
X115699Y105069D01*
X115360Y105295D01*
X114961Y105374D01*
X114961Y105374D01*
X113715D01*
Y107087D01*
X113715Y108268D01*
X113660Y108544D01*
X113503Y108779D01*
X111043Y111238D01*
Y111634D01*
X110648D01*
X110432Y111849D01*
X110198Y112006D01*
X109921Y112061D01*
D02*
G37*
G36*
X76811Y92165D02*
X69291D01*
Y84646D01*
X76811D01*
Y92165D01*
D02*
G37*
G36*
X68504D02*
X60984D01*
Y84646D01*
X68504D01*
Y92165D01*
D02*
G37*
G36*
X127657Y87829D02*
X124311D01*
X124241Y87815D01*
X123602D01*
Y87176D01*
X123589Y87106D01*
Y83760D01*
X123602Y83690D01*
Y83051D01*
X123998D01*
X126458Y80591D01*
X126692Y80435D01*
X126969Y80380D01*
X127953D01*
X128229Y80435D01*
X128464Y80591D01*
X129251Y81379D01*
X129408Y81613D01*
X129463Y81890D01*
Y86024D01*
X129408Y86300D01*
X129251Y86535D01*
X128366Y87419D01*
Y87815D01*
X127727D01*
X127657Y87829D01*
D02*
G37*
G36*
X76811Y83858D02*
X69291D01*
Y76339D01*
X76811D01*
Y83858D01*
D02*
G37*
G36*
X68504D02*
X60984D01*
Y76339D01*
X68504D01*
Y83858D01*
D02*
G37*
G36*
X20472Y70014D02*
X18898D01*
X18621Y69959D01*
X18387Y69802D01*
X16320Y67735D01*
X16163Y67501D01*
X16108Y67224D01*
Y60532D01*
X16122Y60462D01*
Y59823D01*
X16761D01*
X16831Y59809D01*
X20177D01*
X20247Y59823D01*
X20886D01*
Y60218D01*
X21771Y61103D01*
X21927Y61338D01*
X21982Y61614D01*
Y68504D01*
X21927Y68780D01*
X21771Y69015D01*
X20983Y69802D01*
X20749Y69959D01*
X20472Y70014D01*
D02*
G37*
G36*
X14882Y74724D02*
X11102D01*
Y70945D01*
X11102Y70945D01*
X11102Y70787D01*
X11099Y70389D01*
X10808Y70098D01*
X10651Y69863D01*
X10596Y69587D01*
Y62370D01*
X10564Y62205D01*
X10610Y61970D01*
Y59823D01*
X12757D01*
X12992Y59776D01*
X13227Y59823D01*
X15374D01*
Y61970D01*
X15421Y62205D01*
X15388Y62370D01*
Y69587D01*
X16943Y71142D01*
X20022D01*
X20644Y71399D01*
X21120Y71876D01*
X21378Y72498D01*
Y73171D01*
X21120Y73794D01*
X20644Y74270D01*
X20022Y74528D01*
X19348D01*
X18726Y74270D01*
X18536Y74079D01*
X18482Y74045D01*
X18426Y73991D01*
X18388Y73960D01*
X18354Y73935D01*
X18322Y73916D01*
X18294Y73901D01*
X18268Y73891D01*
X18243Y73883D01*
X18222Y73878D01*
X14882D01*
Y74724D01*
D02*
G37*
G36*
X137402Y69053D02*
X135039D01*
X134302Y68906D01*
X133677Y68488D01*
X133259Y67863D01*
X133113Y67126D01*
Y59646D01*
X133136Y59529D01*
Y53843D01*
X132443Y53150D01*
X129528D01*
X128740Y52362D01*
X126772D01*
Y52756D01*
X126378D01*
Y53445D01*
X126154Y53669D01*
X125886Y53937D01*
X125394D01*
X125000Y54331D01*
Y55943D01*
X122558Y58385D01*
X122324Y58542D01*
X122047Y58597D01*
X120079Y58596D01*
X119687D01*
X119411Y58542D01*
X119114Y58419D01*
X119045Y58400D01*
X118984Y58365D01*
X118687Y58242D01*
X118453Y58085D01*
X117899Y57531D01*
X117742Y57297D01*
X117619Y57000D01*
X117584Y56939D01*
X117566Y56871D01*
X117443Y56574D01*
X117443Y56573D01*
X117388Y56297D01*
X117388Y55905D01*
X117388Y55718D01*
X117402Y55648D01*
Y55577D01*
X117402Y55577D01*
Y55553D01*
X117420Y55484D01*
X117475Y55210D01*
X117502Y55144D01*
X117516Y55075D01*
X117556Y54978D01*
X117584Y54872D01*
X117598Y54847D01*
Y51518D01*
Y48368D01*
Y44151D01*
X117856Y43529D01*
X118332Y43053D01*
X118955Y42795D01*
X119628D01*
X120250Y43053D01*
X120727Y43529D01*
X120984Y44151D01*
Y44416D01*
X120998Y44474D01*
X120999Y44524D01*
X121002Y44541D01*
X121005Y44558D01*
X121011Y44576D01*
X121019Y44597D01*
X121031Y44621D01*
X121048Y44649D01*
X121065Y44673D01*
X123300Y46907D01*
X124491D01*
X124803Y46595D01*
Y42126D01*
X122441D01*
X120866Y40551D01*
Y38189D01*
X114331D01*
X112598Y36457D01*
Y32087D01*
X110236D01*
Y36457D01*
X108504Y38189D01*
X101969D01*
X100000Y36220D01*
Y24705D01*
X99750D01*
X98037Y22992D01*
X97677Y22123D01*
Y21184D01*
X98037Y20315D01*
X98701Y19651D01*
X99569Y19291D01*
X100509D01*
X101377Y19651D01*
X101855Y20128D01*
X120980D01*
X121457Y19651D01*
X122325Y19291D01*
X123265D01*
X124133Y19651D01*
X124798Y20315D01*
X125157Y21184D01*
Y22123D01*
X124798Y22992D01*
X123085Y24705D01*
X122835D01*
Y29559D01*
X124985Y31708D01*
X125402Y32333D01*
X125549Y33071D01*
Y35433D01*
X125512Y35619D01*
Y37323D01*
X125852Y37466D01*
X128740D01*
X128810Y37480D01*
X129449D01*
Y38119D01*
X129463Y38189D01*
X129463Y41077D01*
X129606Y41417D01*
X130245D01*
X130315Y41403D01*
X133529D01*
X134252Y42126D01*
Y48425D01*
X136614D01*
X139305Y51116D01*
Y51968D01*
Y59529D01*
X139328Y59646D01*
Y67126D01*
X139182Y67863D01*
X138764Y68488D01*
X138139Y68906D01*
X137402Y69053D01*
D02*
G37*
G36*
X67164Y34187D02*
X66694D01*
X66418Y34132D01*
X65984Y33952D01*
X65984Y33952D01*
X65749Y33796D01*
X65417Y33463D01*
X65260Y33229D01*
X65080Y32795D01*
X65026Y32518D01*
Y28740D01*
Y22835D01*
X65080Y22558D01*
X65236Y22325D01*
Y21929D01*
X65875D01*
X65945Y21915D01*
X68307D01*
X68377Y21929D01*
X69016D01*
Y22568D01*
X69030Y22638D01*
Y26969D01*
X69016Y27038D01*
Y27677D01*
X68833D01*
Y32283D01*
X68833Y32284D01*
X68833Y32518D01*
X68778Y32795D01*
X68598Y33229D01*
X68441Y33463D01*
X68109Y33796D01*
X67875Y33952D01*
X67440Y34132D01*
X67219Y34176D01*
X67164Y34187D01*
D02*
G37*
G36*
X136535Y27283D02*
X126535D01*
Y17992D01*
X136535D01*
Y27283D01*
D02*
G37*
G36*
Y11929D02*
X126535D01*
Y2638D01*
X136535D01*
Y11929D01*
D02*
G37*
G36*
X96299D02*
X86299D01*
Y2638D01*
X96299D01*
Y11929D01*
D02*
G37*
%LPD*%
G36*
X127042Y96985D02*
X127060Y96940D01*
X127092Y96901D01*
X127136Y96867D01*
X127193Y96838D01*
X127262Y96814D01*
X127344Y96795D01*
X127438Y96782D01*
X127545Y96774D01*
X127665Y96772D01*
Y96142D01*
X127545Y96139D01*
X127344Y96118D01*
X127262Y96100D01*
X127193Y96076D01*
X127136Y96047D01*
X127092Y96013D01*
X127060Y95973D01*
X127042Y95928D01*
X127035Y95878D01*
Y97035D01*
X127042Y96985D01*
D02*
G37*
G36*
X133346Y97458D02*
X133678Y97126D01*
X133858Y96692D01*
Y96457D01*
Y96222D01*
X133678Y95788D01*
X133346Y95455D01*
X132912Y95276D01*
X132677Y95276D01*
X132677Y95276D01*
X129134D01*
Y95935D01*
X129132Y95940D01*
X129100Y95987D01*
X129055Y96028D01*
X128997Y96063D01*
X128927Y96091D01*
X128843Y96113D01*
X128747Y96129D01*
X128638Y96139D01*
X128516Y96142D01*
Y96772D01*
X128638Y96775D01*
X128747Y96784D01*
X128843Y96800D01*
X128927Y96822D01*
X128997Y96850D01*
X129055Y96885D01*
X129100Y96926D01*
X129132Y96973D01*
X129134Y96978D01*
Y97638D01*
X132912D01*
X133346Y97458D01*
D02*
G37*
G36*
X126298Y93915D02*
X126245Y93896D01*
X126198Y93864D01*
X126157Y93819D01*
X126122Y93761D01*
X126094Y93691D01*
X126072Y93607D01*
X126056Y93511D01*
X126055Y93504D01*
X126056Y93497D01*
X126072Y93401D01*
X126094Y93317D01*
X126122Y93247D01*
X126157Y93189D01*
X126198Y93144D01*
X126245Y93112D01*
X126298Y93093D01*
X126358Y93086D01*
X125098D01*
X125158Y93093D01*
X125212Y93112D01*
X125259Y93144D01*
X125300Y93189D01*
X125335Y93247D01*
X125363Y93317D01*
X125385Y93401D01*
X125401Y93497D01*
X125401Y93504D01*
X125401Y93511D01*
X125385Y93607D01*
X125363Y93691D01*
X125335Y93761D01*
X125300Y93819D01*
X125259Y93864D01*
X125212Y93896D01*
X125158Y93915D01*
X125098Y93922D01*
X126358D01*
X126298Y93915D01*
D02*
G37*
G36*
X127042Y93048D02*
X127060Y93003D01*
X127092Y92964D01*
X127136Y92930D01*
X127193Y92901D01*
X127262Y92877D01*
X127344Y92858D01*
X127438Y92845D01*
X127545Y92837D01*
X127665Y92835D01*
Y92205D01*
X127545Y92202D01*
X127344Y92181D01*
X127262Y92163D01*
X127193Y92139D01*
X127136Y92110D01*
X127092Y92076D01*
X127060Y92036D01*
X127042Y91991D01*
X127035Y91941D01*
Y93098D01*
X127042Y93048D01*
D02*
G37*
G36*
X129158Y91890D02*
X129151Y91950D01*
X129132Y92003D01*
X129100Y92050D01*
X129055Y92091D01*
X128997Y92126D01*
X128927Y92154D01*
X128843Y92176D01*
X128747Y92192D01*
X128638Y92202D01*
X128516Y92205D01*
Y92835D01*
X128638Y92838D01*
X128747Y92847D01*
X128843Y92863D01*
X128927Y92885D01*
X128997Y92913D01*
X129055Y92948D01*
X129100Y92989D01*
X129132Y93036D01*
X129151Y93090D01*
X129158Y93150D01*
Y91890D01*
D02*
G37*
G36*
X120217Y109123D02*
X120201Y109066D01*
X120202Y108999D01*
X120221Y108924D01*
X120258Y108839D01*
X120312Y108746D01*
X120385Y108643D01*
X120475Y108531D01*
X120709Y108280D01*
X120264Y107834D01*
X120133Y107960D01*
X119900Y108159D01*
X119798Y108231D01*
X119704Y108286D01*
X119619Y108323D01*
X119544Y108342D01*
X119478Y108343D01*
X119421Y108326D01*
X119373Y108292D01*
X120252Y109171D01*
X120217Y109123D01*
D02*
G37*
G36*
X112992Y108268D02*
X112992Y107579D01*
Y107087D01*
X112598Y106693D01*
X106299D01*
X105197Y107795D01*
X94488D01*
Y111339D01*
X109921D01*
X112992Y108268D01*
D02*
G37*
G36*
X107798Y106008D02*
X107808Y105899D01*
X107824Y105802D01*
X107846Y105719D01*
X107874Y105648D01*
X107909Y105590D01*
X107950Y105546D01*
X107997Y105514D01*
X108050Y105494D01*
X108110Y105488D01*
X106850D01*
X106910Y105494D01*
X106964Y105514D01*
X107011Y105546D01*
X107052Y105590D01*
X107087Y105648D01*
X107115Y105719D01*
X107137Y105802D01*
X107153Y105899D01*
X107162Y106008D01*
X107165Y106130D01*
X107795D01*
X107798Y106008D01*
D02*
G37*
G36*
X121184Y106008D02*
X121194Y105899D01*
X121210Y105802D01*
X121231Y105719D01*
X121260Y105648D01*
X121294Y105590D01*
X121335Y105546D01*
X121383Y105514D01*
X121436Y105494D01*
X121496Y105488D01*
X120236D01*
X120296Y105494D01*
X120350Y105514D01*
X120397Y105546D01*
X120438Y105590D01*
X120473Y105648D01*
X120501Y105719D01*
X120523Y105802D01*
X120539Y105899D01*
X120548Y106008D01*
X120551Y106130D01*
X121181D01*
X121184Y106008D01*
D02*
G37*
G36*
X102374Y103701D02*
X102368Y103761D01*
X102349Y103814D01*
X102318Y103861D01*
X102273Y103902D01*
X102217Y103937D01*
X102147Y103965D01*
X102066Y103987D01*
X101971Y104003D01*
X101864Y104013D01*
X101744Y104016D01*
Y104646D01*
X101864Y104649D01*
X101971Y104658D01*
X102066Y104674D01*
X102147Y104696D01*
X102217Y104724D01*
X102273Y104759D01*
X102318Y104800D01*
X102349Y104847D01*
X102368Y104901D01*
X102374Y104961D01*
Y103701D01*
D02*
G37*
G36*
X100376Y104901D02*
X100395Y104847D01*
X100427Y104800D01*
X100472Y104759D01*
X100530Y104724D01*
X100601Y104696D01*
X100684Y104674D01*
X100780Y104658D01*
X100890Y104649D01*
X101012Y104646D01*
Y104016D01*
X100890Y104013D01*
X100780Y104003D01*
X100684Y103987D01*
X100601Y103965D01*
X100530Y103937D01*
X100472Y103902D01*
X100427Y103861D01*
X100395Y103814D01*
X100376Y103761D01*
X100370Y103701D01*
Y104961D01*
X100376Y104901D01*
D02*
G37*
G36*
X112588Y104949D02*
X112664Y104885D01*
X112742Y104829D01*
X112821Y104780D01*
X112902Y104739D01*
X112985Y104706D01*
X113070Y104679D01*
X113156Y104661D01*
X113244Y104649D01*
X113334Y104646D01*
Y104016D01*
X113244Y104012D01*
X113156Y104001D01*
X113070Y103982D01*
X112985Y103956D01*
X112902Y103922D01*
X112821Y103881D01*
X112742Y103832D01*
X112664Y103776D01*
X112588Y103713D01*
X112514Y103642D01*
Y105020D01*
X112588Y104949D01*
D02*
G37*
G36*
X121989Y104005D02*
X121972Y103947D01*
X121973Y103881D01*
X121992Y103806D01*
X122029Y103721D01*
X122084Y103628D01*
X122156Y103525D01*
X122247Y103413D01*
X122481Y103162D01*
X122035Y102716D01*
X121905Y102842D01*
X121672Y103041D01*
X121569Y103113D01*
X121476Y103168D01*
X121391Y103204D01*
X121316Y103224D01*
X121249Y103225D01*
X121192Y103208D01*
X121144Y103174D01*
X122023Y104052D01*
X121989Y104005D01*
D02*
G37*
G36*
X104113Y103167D02*
X104060Y103148D01*
X104013Y103116D01*
X103972Y103071D01*
X103937Y103013D01*
X103909Y102943D01*
X103887Y102859D01*
X103871Y102763D01*
X103861Y102654D01*
X103858Y102532D01*
X103228D01*
X103225Y102654D01*
X103216Y102763D01*
X103200Y102859D01*
X103178Y102943D01*
X103150Y103013D01*
X103115Y103071D01*
X103074Y103116D01*
X103027Y103148D01*
X102973Y103167D01*
X102913Y103174D01*
X104173D01*
X104113Y103167D01*
D02*
G37*
G36*
X103861Y102071D02*
X103871Y101962D01*
X103887Y101865D01*
X103909Y101782D01*
X103937Y101711D01*
X103972Y101654D01*
X104013Y101609D01*
X104060Y101576D01*
X104113Y101557D01*
X104173Y101551D01*
X102913D01*
X102973Y101557D01*
X103027Y101576D01*
X103074Y101609D01*
X103115Y101654D01*
X103150Y101711D01*
X103178Y101782D01*
X103200Y101865D01*
X103216Y101962D01*
X103225Y102071D01*
X103228Y102193D01*
X103858D01*
X103861Y102071D01*
D02*
G37*
G36*
X123764Y101882D02*
X123997Y101684D01*
X124100Y101611D01*
X124194Y101557D01*
X124278Y101520D01*
X124354Y101501D01*
X124420Y101500D01*
X124477Y101516D01*
X124525Y101551D01*
X123646Y100672D01*
X123680Y100720D01*
X123697Y100777D01*
X123696Y100843D01*
X123677Y100918D01*
X123640Y101003D01*
X123585Y101097D01*
X123513Y101199D01*
X123423Y101311D01*
X123189Y101563D01*
X123634Y102008D01*
X123764Y101882D01*
D02*
G37*
G36*
X116142Y101674D02*
Y99863D01*
X113780D01*
X113779Y99863D01*
X113446Y99796D01*
X113380Y99783D01*
X113041Y99557D01*
X112697Y99213D01*
X106840D01*
X106777Y99176D01*
X106675Y99103D01*
X106563Y99013D01*
X106311Y98779D01*
X105866Y99225D01*
X105992Y99355D01*
X106190Y99588D01*
X106263Y99691D01*
X106299Y99753D01*
Y101575D01*
X109370D01*
X110433Y102638D01*
X115178D01*
X116142Y101674D01*
D02*
G37*
G36*
X119709Y99764D02*
X119703Y99824D01*
X119683Y99877D01*
X119651Y99924D01*
X119606Y99965D01*
X119549Y100000D01*
X119478Y100028D01*
X119395Y100050D01*
X119298Y100066D01*
X119189Y100076D01*
X119067Y100079D01*
Y100709D01*
X119189Y100712D01*
X119298Y100721D01*
X119395Y100737D01*
X119478Y100759D01*
X119549Y100787D01*
X119606Y100822D01*
X119651Y100863D01*
X119683Y100910D01*
X119703Y100964D01*
X119709Y101024D01*
Y99764D01*
D02*
G37*
G36*
X94512Y98937D02*
X94506Y98997D01*
X94486Y99050D01*
X94454Y99098D01*
X94410Y99139D01*
X94352Y99173D01*
X94281Y99202D01*
X94198Y99224D01*
X94101Y99239D01*
X93992Y99249D01*
X93870Y99252D01*
Y99882D01*
X93992Y99885D01*
X94101Y99894D01*
X94198Y99910D01*
X94281Y99932D01*
X94352Y99961D01*
X94410Y99995D01*
X94454Y100036D01*
X94486Y100083D01*
X94506Y100137D01*
X94512Y100197D01*
Y98937D01*
D02*
G37*
G36*
X92824Y100185D02*
X92900Y100121D01*
X92978Y100065D01*
X93057Y100016D01*
X93138Y99975D01*
X93221Y99942D01*
X93306Y99916D01*
X93392Y99897D01*
X93480Y99886D01*
X93570Y99882D01*
Y99252D01*
X93480Y99248D01*
X93392Y99237D01*
X93306Y99218D01*
X93221Y99192D01*
X93138Y99159D01*
X93057Y99117D01*
X92978Y99069D01*
X92900Y99013D01*
X92824Y98949D01*
X92750Y98878D01*
Y100256D01*
X92824Y100185D01*
D02*
G37*
G36*
X105158Y97626D02*
X105033Y97497D01*
X104837Y97265D01*
X104766Y97163D01*
X104712Y97069D01*
X104677Y96984D01*
X104659Y96909D01*
Y96842D01*
X104677Y96784D01*
X104712Y96735D01*
X103822Y97626D01*
X103871Y97590D01*
X103928Y97572D01*
X103995D01*
X104071Y97590D01*
X104156Y97626D01*
X104249Y97679D01*
X104352Y97751D01*
X104463Y97840D01*
X104712Y98071D01*
X105158Y97626D01*
D02*
G37*
G36*
X113032Y97626D02*
X112906Y97496D01*
X112707Y97263D01*
X112635Y97160D01*
X112580Y97066D01*
X112544Y96982D01*
X112525Y96906D01*
X112523Y96840D01*
X112540Y96783D01*
X112574Y96735D01*
X111696Y97614D01*
X111743Y97579D01*
X111801Y97563D01*
X111867Y97564D01*
X111942Y97583D01*
X112027Y97620D01*
X112120Y97674D01*
X112223Y97747D01*
X112335Y97837D01*
X112586Y98071D01*
X113032Y97626D01*
D02*
G37*
G36*
X119551Y97356D02*
X119782Y97160D01*
X119885Y97089D01*
X119978Y97035D01*
X120063Y97000D01*
X120139Y96982D01*
X120205D01*
X120263Y97000D01*
X120312Y97035D01*
X119422Y96144D01*
X119457Y96193D01*
X119475Y96251D01*
Y96318D01*
X119457Y96394D01*
X119422Y96478D01*
X119368Y96572D01*
X119297Y96675D01*
X119208Y96786D01*
X118976Y97035D01*
X119422Y97481D01*
X119551Y97356D01*
D02*
G37*
G36*
X115864Y95288D02*
X115814Y95323D01*
X115757Y95341D01*
X115690D01*
X115614Y95323D01*
X115529Y95288D01*
X115436Y95234D01*
X115333Y95163D01*
X115222Y95074D01*
X114973Y94842D01*
X114527Y95288D01*
X114652Y95417D01*
X114848Y95648D01*
X114919Y95751D01*
X114973Y95844D01*
X115008Y95929D01*
X115026Y96005D01*
Y96071D01*
X115008Y96129D01*
X114973Y96178D01*
X115864Y95288D01*
D02*
G37*
G36*
X117275Y96129D02*
X117257Y96071D01*
Y96005D01*
X117275Y95929D01*
X117311Y95844D01*
X117364Y95751D01*
X117436Y95648D01*
X117525Y95537D01*
X117756Y95288D01*
X117311Y94842D01*
X117182Y94967D01*
X116950Y95163D01*
X116848Y95234D01*
X116754Y95288D01*
X116669Y95323D01*
X116594Y95341D01*
X116527D01*
X116469Y95323D01*
X116420Y95288D01*
X117311Y96178D01*
X117275Y96129D01*
D02*
G37*
G36*
X108050Y95293D02*
X107997Y95274D01*
X107950Y95242D01*
X107909Y95197D01*
X107874Y95139D01*
X107846Y95069D01*
X107824Y94985D01*
X107808Y94889D01*
X107798Y94780D01*
X107795Y94658D01*
X107165D01*
X107162Y94780D01*
X107153Y94889D01*
X107137Y94985D01*
X107115Y95069D01*
X107087Y95139D01*
X107052Y95197D01*
X107011Y95242D01*
X106964Y95274D01*
X106910Y95293D01*
X106850Y95300D01*
X108110D01*
X108050Y95293D01*
D02*
G37*
G36*
X94512Y93937D02*
X94506Y93997D01*
X94486Y94050D01*
X94454Y94098D01*
X94410Y94139D01*
X94352Y94173D01*
X94281Y94202D01*
X94198Y94224D01*
X94101Y94239D01*
X93992Y94249D01*
X93870Y94252D01*
Y94882D01*
X93992Y94885D01*
X94101Y94894D01*
X94198Y94910D01*
X94281Y94932D01*
X94352Y94961D01*
X94410Y94995D01*
X94454Y95036D01*
X94486Y95083D01*
X94506Y95137D01*
X94512Y95197D01*
Y93937D01*
D02*
G37*
G36*
X119422Y93910D02*
X119415Y93960D01*
X119396Y94004D01*
X119365Y94044D01*
X119321Y94078D01*
X119264Y94107D01*
X119195Y94131D01*
X119113Y94150D01*
X119018Y94163D01*
X118911Y94171D01*
X118791Y94173D01*
Y94803D01*
X118911Y94806D01*
X119113Y94827D01*
X119195Y94845D01*
X119264Y94869D01*
X119321Y94898D01*
X119365Y94932D01*
X119396Y94972D01*
X119415Y95017D01*
X119422Y95067D01*
Y93910D01*
D02*
G37*
G36*
X92824Y95185D02*
X92900Y95121D01*
X92978Y95065D01*
X93057Y95016D01*
X93138Y94975D01*
X93221Y94942D01*
X93306Y94916D01*
X93392Y94897D01*
X93480Y94886D01*
X93570Y94882D01*
Y94252D01*
X93480Y94248D01*
X93392Y94237D01*
X93306Y94218D01*
X93221Y94192D01*
X93138Y94159D01*
X93057Y94117D01*
X92978Y94069D01*
X92900Y94013D01*
X92824Y93949D01*
X92750Y93878D01*
Y95256D01*
X92824Y95185D01*
D02*
G37*
G36*
X107798Y94197D02*
X107808Y94088D01*
X107824Y93991D01*
X107846Y93908D01*
X107874Y93837D01*
X107909Y93779D01*
X107950Y93735D01*
X107997Y93703D01*
X108050Y93683D01*
X108110Y93677D01*
X106850D01*
X106910Y93683D01*
X106964Y93703D01*
X107011Y93735D01*
X107052Y93779D01*
X107087Y93837D01*
X107115Y93908D01*
X107137Y93991D01*
X107153Y94088D01*
X107162Y94197D01*
X107165Y94319D01*
X107795D01*
X107798Y94197D01*
D02*
G37*
G36*
X106323Y91890D02*
X106317Y91950D01*
X106298Y92003D01*
X106265Y92050D01*
X106220Y92091D01*
X106163Y92126D01*
X106092Y92154D01*
X106009Y92176D01*
X105912Y92192D01*
X105803Y92202D01*
X105681Y92205D01*
Y92835D01*
X105803Y92838D01*
X105912Y92847D01*
X106009Y92863D01*
X106092Y92885D01*
X106163Y92913D01*
X106220Y92948D01*
X106265Y92989D01*
X106298Y93036D01*
X106317Y93090D01*
X106323Y93150D01*
Y91890D01*
D02*
G37*
G36*
X104724Y93041D02*
X104726Y93036D01*
X104758Y92989D01*
X104803Y92948D01*
X104861Y92913D01*
X104931Y92885D01*
X105015Y92863D01*
X105111Y92847D01*
X105220Y92838D01*
X105342Y92835D01*
Y92205D01*
X105220Y92202D01*
X105111Y92192D01*
X105015Y92176D01*
X104931Y92154D01*
X104861Y92126D01*
X104803Y92091D01*
X104758Y92050D01*
X104726Y92003D01*
X104724Y91998D01*
Y90158D01*
Y89922D01*
X104545Y89488D01*
X104212Y89156D01*
X103778Y88976D01*
X103543D01*
X103308Y88976D01*
X102874Y89156D01*
X102542Y89488D01*
X102362Y89922D01*
X102362Y90157D01*
X102362Y90158D01*
Y93701D01*
X104724D01*
Y93041D01*
D02*
G37*
G36*
X94512Y88937D02*
X94506Y88997D01*
X94486Y89050D01*
X94454Y89098D01*
X94410Y89139D01*
X94352Y89173D01*
X94281Y89202D01*
X94198Y89224D01*
X94101Y89239D01*
X93992Y89249D01*
X93870Y89252D01*
Y89882D01*
X93992Y89885D01*
X94101Y89894D01*
X94198Y89910D01*
X94281Y89932D01*
X94352Y89961D01*
X94410Y89995D01*
X94454Y90036D01*
X94486Y90083D01*
X94506Y90137D01*
X94512Y90197D01*
Y88937D01*
D02*
G37*
G36*
X92824Y90185D02*
X92900Y90121D01*
X92978Y90065D01*
X93057Y90017D01*
X93138Y89975D01*
X93221Y89942D01*
X93306Y89916D01*
X93392Y89897D01*
X93480Y89886D01*
X93570Y89882D01*
Y89252D01*
X93480Y89248D01*
X93392Y89237D01*
X93306Y89218D01*
X93221Y89192D01*
X93138Y89158D01*
X93057Y89117D01*
X92978Y89069D01*
X92900Y89013D01*
X92824Y88949D01*
X92750Y88878D01*
Y90256D01*
X92824Y90185D01*
D02*
G37*
G36*
X112194Y89988D02*
X112270Y89924D01*
X112348Y89868D01*
X112427Y89820D01*
X112509Y89779D01*
X112591Y89745D01*
X112676Y89719D01*
X112762Y89700D01*
X112850Y89689D01*
X112940Y89685D01*
Y89055D01*
X112850Y89051D01*
X112762Y89040D01*
X112676Y89021D01*
X112591Y88995D01*
X112509Y88962D01*
X112427Y88920D01*
X112348Y88872D01*
X112270Y88816D01*
X112194Y88752D01*
X112120Y88681D01*
Y90059D01*
X112194Y89988D01*
D02*
G37*
G36*
X117421Y87106D02*
X118799D01*
Y85433D01*
X112500D01*
Y87106D01*
X114567Y89173D01*
X115354D01*
X117421Y87106D01*
D02*
G37*
G36*
X94512Y83937D02*
X94506Y83997D01*
X94486Y84050D01*
X94454Y84098D01*
X94410Y84139D01*
X94352Y84173D01*
X94281Y84202D01*
X94198Y84224D01*
X94101Y84239D01*
X93992Y84249D01*
X93870Y84252D01*
Y84882D01*
X93992Y84885D01*
X94101Y84895D01*
X94198Y84910D01*
X94281Y84932D01*
X94352Y84961D01*
X94410Y84995D01*
X94454Y85036D01*
X94486Y85084D01*
X94506Y85137D01*
X94512Y85197D01*
Y83937D01*
D02*
G37*
G36*
X92824Y85185D02*
X92900Y85121D01*
X92978Y85065D01*
X93057Y85017D01*
X93138Y84975D01*
X93221Y84942D01*
X93306Y84916D01*
X93392Y84897D01*
X93480Y84886D01*
X93570Y84882D01*
Y84252D01*
X93480Y84248D01*
X93392Y84237D01*
X93306Y84218D01*
X93221Y84192D01*
X93138Y84158D01*
X93057Y84117D01*
X92978Y84069D01*
X92900Y84013D01*
X92824Y83949D01*
X92750Y83878D01*
Y85256D01*
X92824Y85185D01*
D02*
G37*
G36*
X104529Y82057D02*
X104574Y81389D01*
X104594Y81281D01*
X104618Y81198D01*
X104646Y81138D01*
X104677Y81102D01*
X104712Y81090D01*
X102374D01*
X102409Y81102D01*
X102441Y81138D01*
X102469Y81198D01*
X102492Y81281D01*
X102513Y81389D01*
X102530Y81520D01*
X102552Y81854D01*
X102559Y82284D01*
X104527D01*
X104529Y82057D01*
D02*
G37*
G36*
X94512Y78937D02*
X94506Y78997D01*
X94486Y79050D01*
X94454Y79098D01*
X94410Y79139D01*
X94352Y79173D01*
X94281Y79202D01*
X94198Y79224D01*
X94101Y79239D01*
X93992Y79249D01*
X93870Y79252D01*
Y79882D01*
X93992Y79885D01*
X94101Y79895D01*
X94198Y79910D01*
X94281Y79932D01*
X94352Y79961D01*
X94410Y79995D01*
X94454Y80036D01*
X94486Y80084D01*
X94506Y80137D01*
X94512Y80197D01*
Y78937D01*
D02*
G37*
G36*
X92824Y80185D02*
X92900Y80121D01*
X92978Y80065D01*
X93057Y80016D01*
X93138Y79975D01*
X93221Y79942D01*
X93306Y79916D01*
X93392Y79897D01*
X93480Y79886D01*
X93570Y79882D01*
Y79252D01*
X93480Y79248D01*
X93392Y79237D01*
X93306Y79218D01*
X93221Y79192D01*
X93138Y79159D01*
X93057Y79117D01*
X92978Y79069D01*
X92900Y79013D01*
X92824Y78949D01*
X92750Y78878D01*
Y80256D01*
X92824Y80185D01*
D02*
G37*
G36*
X104113Y74809D02*
X104060Y74790D01*
X104013Y74758D01*
X103972Y74714D01*
X103937Y74658D01*
X103909Y74588D01*
X103887Y74506D01*
X103871Y74412D01*
X103861Y74305D01*
X103858Y74185D01*
X103228D01*
X103225Y74305D01*
X103216Y74412D01*
X103200Y74506D01*
X103178Y74588D01*
X103150Y74658D01*
X103115Y74714D01*
X103074Y74758D01*
X103027Y74790D01*
X102973Y74809D01*
X102913Y74815D01*
X104173D01*
X104113Y74809D01*
D02*
G37*
G36*
X94512Y73937D02*
X94506Y73997D01*
X94486Y74050D01*
X94454Y74098D01*
X94410Y74139D01*
X94352Y74173D01*
X94281Y74202D01*
X94198Y74224D01*
X94101Y74239D01*
X93992Y74249D01*
X93870Y74252D01*
Y74882D01*
X93992Y74885D01*
X94101Y74894D01*
X94198Y74910D01*
X94281Y74932D01*
X94352Y74961D01*
X94410Y74995D01*
X94454Y75036D01*
X94486Y75084D01*
X94506Y75137D01*
X94512Y75197D01*
Y73937D01*
D02*
G37*
G36*
X103861Y73724D02*
X103871Y73615D01*
X103887Y73519D01*
X103909Y73435D01*
X103937Y73365D01*
X103972Y73307D01*
X104013Y73262D01*
X104060Y73230D01*
X104113Y73211D01*
X104173Y73204D01*
X102913D01*
X102973Y73211D01*
X103027Y73230D01*
X103074Y73262D01*
X103115Y73307D01*
X103150Y73365D01*
X103178Y73435D01*
X103200Y73519D01*
X103216Y73615D01*
X103225Y73724D01*
X103228Y73846D01*
X103858D01*
X103861Y73724D01*
D02*
G37*
G36*
X93347Y73886D02*
X93286Y73820D01*
X93232Y73749D01*
X93184Y73675D01*
X93142Y73597D01*
X93108Y73514D01*
X93079Y73428D01*
X93058Y73337D01*
X93042Y73243D01*
X93034Y73144D01*
X93031Y73041D01*
X92057Y74016D01*
X92160Y74018D01*
X92259Y74027D01*
X92353Y74042D01*
X92444Y74064D01*
X92530Y74092D01*
X92612Y74127D01*
X92691Y74168D01*
X92765Y74216D01*
X92835Y74270D01*
X92901Y74331D01*
X93347Y73886D01*
D02*
G37*
G36*
X107236Y72414D02*
X107230Y72471D01*
X107211Y72523D01*
X107180Y72568D01*
X107136Y72607D01*
X107079Y72641D01*
X107010Y72668D01*
X106928Y72689D01*
X106833Y72704D01*
X106726Y72714D01*
X106606Y72716D01*
Y73347D01*
X106726Y73349D01*
X106833Y73359D01*
X106928Y73374D01*
X107010Y73395D01*
X107079Y73422D01*
X107136Y73456D01*
X107180Y73495D01*
X107211Y73540D01*
X107230Y73592D01*
X107236Y73649D01*
Y72414D01*
D02*
G37*
G36*
X115847Y72638D02*
X115610Y72402D01*
X113012D01*
Y76949D01*
X112500Y77461D01*
Y79134D01*
X115847D01*
Y72638D01*
D02*
G37*
G36*
X104707Y72617D02*
X104726Y72564D01*
X104758Y72517D01*
X104803Y72476D01*
X104861Y72441D01*
X104931Y72413D01*
X105015Y72391D01*
X105111Y72375D01*
X105220Y72365D01*
X105342Y72362D01*
Y71732D01*
X105220Y71729D01*
X105111Y71720D01*
X105015Y71704D01*
X104931Y71682D01*
X104861Y71653D01*
X104803Y71619D01*
X104758Y71578D01*
X104726Y71531D01*
X104707Y71477D01*
X104700Y71417D01*
Y72677D01*
X104707Y72617D01*
D02*
G37*
G36*
X122343Y72047D02*
X121161Y70866D01*
X116929D01*
X116496Y70433D01*
X113012Y70433D01*
Y71693D01*
X116181D01*
X117421Y72933D01*
Y75984D01*
X122343D01*
Y72047D01*
D02*
G37*
G36*
X94512Y68937D02*
X94506Y68997D01*
X94486Y69050D01*
X94454Y69098D01*
X94410Y69139D01*
X94352Y69173D01*
X94281Y69202D01*
X94198Y69224D01*
X94101Y69239D01*
X93992Y69249D01*
X93870Y69252D01*
Y69882D01*
X93992Y69885D01*
X94101Y69894D01*
X94198Y69910D01*
X94281Y69932D01*
X94352Y69961D01*
X94410Y69995D01*
X94454Y70036D01*
X94486Y70083D01*
X94506Y70137D01*
X94512Y70197D01*
Y68937D01*
D02*
G37*
G36*
X92824Y70185D02*
X92900Y70121D01*
X92978Y70065D01*
X93057Y70016D01*
X93138Y69975D01*
X93221Y69942D01*
X93306Y69916D01*
X93392Y69897D01*
X93480Y69886D01*
X93570Y69882D01*
Y69252D01*
X93480Y69248D01*
X93392Y69237D01*
X93306Y69218D01*
X93221Y69192D01*
X93138Y69159D01*
X93057Y69117D01*
X92978Y69069D01*
X92900Y69013D01*
X92824Y68949D01*
X92750Y68878D01*
Y70256D01*
X92824Y70185D01*
D02*
G37*
G36*
X116496Y69724D02*
X116929Y69291D01*
X121161D01*
X122343Y68110D01*
Y64173D01*
X117421D01*
Y67224D01*
X116181Y68465D01*
X113012D01*
Y69724D01*
X116496Y69724D01*
D02*
G37*
G36*
X94512Y63937D02*
X94506Y63997D01*
X94486Y64050D01*
X94454Y64098D01*
X94410Y64139D01*
X94352Y64173D01*
X94281Y64202D01*
X94198Y64224D01*
X94101Y64239D01*
X93992Y64249D01*
X93870Y64252D01*
Y64882D01*
X93992Y64885D01*
X94101Y64894D01*
X94198Y64910D01*
X94281Y64932D01*
X94352Y64961D01*
X94410Y64995D01*
X94454Y65036D01*
X94486Y65083D01*
X94506Y65137D01*
X94512Y65197D01*
Y63937D01*
D02*
G37*
G36*
X93347Y63886D02*
X93286Y63820D01*
X93232Y63749D01*
X93184Y63675D01*
X93142Y63597D01*
X93108Y63514D01*
X93079Y63428D01*
X93058Y63337D01*
X93042Y63243D01*
X93034Y63144D01*
X93031Y63041D01*
X92057Y64016D01*
X92160Y64018D01*
X92259Y64027D01*
X92353Y64042D01*
X92444Y64064D01*
X92530Y64092D01*
X92612Y64127D01*
X92691Y64168D01*
X92765Y64216D01*
X92835Y64270D01*
X92901Y64331D01*
X93347Y63886D01*
D02*
G37*
G36*
X94512Y58937D02*
X94506Y58997D01*
X94486Y59050D01*
X94454Y59098D01*
X94410Y59139D01*
X94352Y59173D01*
X94281Y59202D01*
X94198Y59224D01*
X94101Y59239D01*
X93992Y59249D01*
X93870Y59252D01*
Y59882D01*
X93992Y59885D01*
X94101Y59895D01*
X94198Y59910D01*
X94281Y59932D01*
X94352Y59961D01*
X94410Y59995D01*
X94454Y60036D01*
X94486Y60084D01*
X94506Y60137D01*
X94512Y60197D01*
Y58937D01*
D02*
G37*
G36*
X92824Y60185D02*
X92900Y60121D01*
X92978Y60065D01*
X93057Y60017D01*
X93138Y59975D01*
X93221Y59942D01*
X93306Y59916D01*
X93392Y59897D01*
X93480Y59886D01*
X93570Y59882D01*
Y59252D01*
X93480Y59248D01*
X93392Y59237D01*
X93306Y59218D01*
X93221Y59192D01*
X93138Y59158D01*
X93057Y59117D01*
X92978Y59069D01*
X92900Y59013D01*
X92824Y58949D01*
X92750Y58878D01*
Y60256D01*
X92824Y60185D01*
D02*
G37*
G36*
X115847Y67520D02*
Y63976D01*
Y63463D01*
X117913Y61396D01*
Y59842D01*
X115354Y57284D01*
X114567D01*
X112500Y59350D01*
Y62697D01*
X113012Y63209D01*
Y67756D01*
X115610D01*
X115847Y67520D01*
D02*
G37*
G36*
X103140Y43504D02*
X103037Y43502D01*
X102938Y43493D01*
X102844Y43478D01*
X102753Y43456D01*
X102667Y43428D01*
X102584Y43393D01*
X102506Y43352D01*
X102432Y43304D01*
X102362Y43249D01*
X102295Y43189D01*
X101850Y43634D01*
X101911Y43700D01*
X101965Y43770D01*
X102013Y43845D01*
X102054Y43923D01*
X102089Y44005D01*
X102117Y44092D01*
X102139Y44182D01*
X102155Y44277D01*
X102163Y44376D01*
X102165Y44478D01*
X103140Y43504D01*
D02*
G37*
G36*
X30933Y43711D02*
X30869Y43635D01*
X30813Y43558D01*
X30765Y43478D01*
X30723Y43397D01*
X30690Y43314D01*
X30664Y43229D01*
X30645Y43143D01*
X30634Y43055D01*
X30630Y42965D01*
X30000D01*
X29996Y43055D01*
X29985Y43143D01*
X29966Y43229D01*
X29940Y43314D01*
X29906Y43397D01*
X29865Y43478D01*
X29817Y43558D01*
X29761Y43635D01*
X29697Y43711D01*
X29626Y43785D01*
X31004D01*
X30933Y43711D01*
D02*
G37*
G36*
X27390D02*
X27326Y43635D01*
X27270Y43558D01*
X27221Y43478D01*
X27180Y43397D01*
X27146Y43314D01*
X27120Y43229D01*
X27102Y43143D01*
X27090Y43055D01*
X27087Y42965D01*
X26457D01*
X26453Y43055D01*
X26442Y43143D01*
X26423Y43229D01*
X26397Y43314D01*
X26363Y43397D01*
X26322Y43478D01*
X26273Y43558D01*
X26217Y43635D01*
X26154Y43711D01*
X26083Y43785D01*
X27461D01*
X27390Y43711D01*
D02*
G37*
G36*
X76003Y41553D02*
X75950Y41534D01*
X75902Y41502D01*
X75861Y41457D01*
X75827Y41399D01*
X75798Y41328D01*
X75776Y41245D01*
X75761Y41149D01*
X75751Y41039D01*
X75748Y40918D01*
X75118D01*
X75115Y41039D01*
X75106Y41149D01*
X75090Y41245D01*
X75068Y41328D01*
X75039Y41399D01*
X75005Y41457D01*
X74964Y41502D01*
X74916Y41534D01*
X74863Y41553D01*
X74803Y41559D01*
X76063D01*
X76003Y41553D01*
D02*
G37*
G36*
X71003D02*
X70950Y41534D01*
X70902Y41502D01*
X70861Y41457D01*
X70827Y41399D01*
X70798Y41328D01*
X70776Y41245D01*
X70761Y41149D01*
X70751Y41039D01*
X70748Y40918D01*
X70118D01*
X70115Y41039D01*
X70105Y41149D01*
X70090Y41245D01*
X70068Y41328D01*
X70039Y41399D01*
X70005Y41457D01*
X69964Y41502D01*
X69916Y41534D01*
X69863Y41553D01*
X69803Y41559D01*
X71063D01*
X71003Y41553D01*
D02*
G37*
G36*
X61003D02*
X60950Y41534D01*
X60902Y41502D01*
X60861Y41457D01*
X60827Y41399D01*
X60798Y41328D01*
X60776Y41245D01*
X60761Y41149D01*
X60751Y41039D01*
X60748Y40918D01*
X60118D01*
X60115Y41039D01*
X60106Y41149D01*
X60090Y41245D01*
X60068Y41328D01*
X60039Y41399D01*
X60005Y41457D01*
X59964Y41502D01*
X59917Y41534D01*
X59863Y41553D01*
X59803Y41559D01*
X61063D01*
X61003Y41553D01*
D02*
G37*
G36*
X56003D02*
X55950Y41534D01*
X55902Y41502D01*
X55861Y41457D01*
X55827Y41399D01*
X55798Y41328D01*
X55776Y41245D01*
X55761Y41149D01*
X55751Y41039D01*
X55748Y40918D01*
X55118D01*
X55115Y41039D01*
X55106Y41149D01*
X55090Y41245D01*
X55068Y41328D01*
X55039Y41399D01*
X55005Y41457D01*
X54964Y41502D01*
X54917Y41534D01*
X54863Y41553D01*
X54803Y41559D01*
X56063D01*
X56003Y41553D01*
D02*
G37*
G36*
X51003D02*
X50950Y41534D01*
X50902Y41502D01*
X50861Y41457D01*
X50827Y41399D01*
X50798Y41328D01*
X50776Y41245D01*
X50761Y41149D01*
X50751Y41039D01*
X50748Y40918D01*
X50118D01*
X50115Y41039D01*
X50106Y41149D01*
X50090Y41245D01*
X50068Y41328D01*
X50039Y41399D01*
X50005Y41457D01*
X49964Y41502D01*
X49916Y41534D01*
X49863Y41553D01*
X49803Y41559D01*
X51063D01*
X51003Y41553D01*
D02*
G37*
G36*
X60752Y40528D02*
X60763Y40440D01*
X60782Y40353D01*
X60808Y40269D01*
X60842Y40186D01*
X60883Y40105D01*
X60931Y40025D01*
X60987Y39948D01*
X61051Y39872D01*
X61122Y39797D01*
X59744D01*
X59815Y39872D01*
X59879Y39948D01*
X59935Y40025D01*
X59983Y40105D01*
X60025Y40186D01*
X60058Y40269D01*
X60084Y40353D01*
X60103Y40440D01*
X60114Y40528D01*
X60118Y40617D01*
X60748D01*
X60752Y40528D01*
D02*
G37*
G36*
X55752D02*
X55763Y40440D01*
X55782Y40353D01*
X55808Y40269D01*
X55841Y40186D01*
X55883Y40105D01*
X55931Y40025D01*
X55987Y39948D01*
X56051Y39872D01*
X56122Y39797D01*
X54744D01*
X54815Y39872D01*
X54879Y39948D01*
X54935Y40025D01*
X54984Y40105D01*
X55025Y40186D01*
X55058Y40269D01*
X55084Y40353D01*
X55103Y40440D01*
X55114Y40528D01*
X55118Y40617D01*
X55748D01*
X55752Y40528D01*
D02*
G37*
G36*
X50752D02*
X50763Y40440D01*
X50782Y40353D01*
X50808Y40269D01*
X50841Y40186D01*
X50883Y40105D01*
X50931Y40025D01*
X50987Y39948D01*
X51051Y39872D01*
X51122Y39797D01*
X49744D01*
X49815Y39872D01*
X49879Y39948D01*
X49935Y40025D01*
X49983Y40105D01*
X50025Y40186D01*
X50058Y40269D01*
X50084Y40353D01*
X50103Y40440D01*
X50114Y40528D01*
X50118Y40617D01*
X50748D01*
X50752Y40528D01*
D02*
G37*
G36*
X112598Y40551D02*
X111811Y39764D01*
X111024D01*
X110236Y40551D01*
Y46654D01*
X112598D01*
Y40551D01*
D02*
G37*
G36*
X42205Y41535D02*
X41634Y40965D01*
Y36614D01*
X39272D01*
Y40925D01*
X38661Y41535D01*
Y44488D01*
X42205D01*
Y41535D01*
D02*
G37*
G36*
X47224Y41516D02*
X46654Y40945D01*
Y36595D01*
X44291D01*
Y40905D01*
X43681Y41516D01*
Y44469D01*
X47224D01*
Y41516D01*
D02*
G37*
G36*
X80355Y35027D02*
X80229Y34897D01*
X80030Y34664D01*
X79958Y34561D01*
X79903Y34468D01*
X79866Y34383D01*
X79847Y34308D01*
X79846Y34242D01*
X79863Y34184D01*
X79897Y34137D01*
X79018Y35015D01*
X79066Y34981D01*
X79123Y34964D01*
X79190Y34966D01*
X79265Y34984D01*
X79349Y35021D01*
X79443Y35076D01*
X79546Y35149D01*
X79658Y35239D01*
X79909Y35473D01*
X80355Y35027D01*
D02*
G37*
G36*
X77701Y35347D02*
X77934Y35149D01*
X78037Y35076D01*
X78131Y35021D01*
X78215Y34984D01*
X78291Y34966D01*
X78357Y34964D01*
X78414Y34981D01*
X78462Y35015D01*
X77583Y34137D01*
X77618Y34184D01*
X77634Y34242D01*
X77633Y34308D01*
X77614Y34383D01*
X77577Y34468D01*
X77522Y34561D01*
X77450Y34664D01*
X77360Y34776D01*
X77126Y35027D01*
X77571Y35473D01*
X77701Y35347D01*
D02*
G37*
G36*
X44315Y33228D02*
X44309Y33288D01*
X44290Y33342D01*
X44258Y33389D01*
X44213Y33430D01*
X44155Y33465D01*
X44084Y33493D01*
X44001Y33515D01*
X43905Y33531D01*
X43795Y33540D01*
X43673Y33543D01*
Y34173D01*
X43795Y34176D01*
X43905Y34186D01*
X44001Y34202D01*
X44084Y34224D01*
X44155Y34252D01*
X44213Y34287D01*
X44258Y34328D01*
X44290Y34375D01*
X44309Y34428D01*
X44315Y34488D01*
Y33228D01*
D02*
G37*
G36*
X41616Y34428D02*
X41636Y34375D01*
X41668Y34328D01*
X41713Y34287D01*
X41770Y34252D01*
X41841Y34224D01*
X41924Y34202D01*
X42021Y34186D01*
X42130Y34176D01*
X42252Y34173D01*
Y33543D01*
X42130Y33540D01*
X42021Y33531D01*
X41924Y33515D01*
X41841Y33493D01*
X41770Y33465D01*
X41713Y33430D01*
X41668Y33389D01*
X41636Y33342D01*
X41616Y33288D01*
X41610Y33228D01*
Y34488D01*
X41616Y34428D01*
D02*
G37*
G36*
X46042Y32683D02*
X45989Y32664D01*
X45942Y32632D01*
X45901Y32588D01*
X45866Y32532D01*
X45838Y32462D01*
X45816Y32381D01*
X45800Y32286D01*
X45791Y32179D01*
X45787Y32059D01*
X45158D01*
X45154Y32179D01*
X45145Y32286D01*
X45129Y32381D01*
X45107Y32462D01*
X45079Y32532D01*
X45044Y32588D01*
X45003Y32632D01*
X44956Y32664D01*
X44902Y32683D01*
X44842Y32689D01*
X46102D01*
X46042Y32683D01*
D02*
G37*
G36*
X90008Y34949D02*
X89874Y34901D01*
X89756Y34822D01*
X89653Y34711D01*
X89567Y34568D01*
X89496Y34394D01*
X89441Y34187D01*
X89402Y33949D01*
X89378Y33680D01*
X89372Y33465D01*
X89378Y33250D01*
X89402Y32980D01*
X89441Y32742D01*
X89496Y32535D01*
X89567Y32361D01*
X89653Y32218D01*
X89756Y32107D01*
X89874Y32028D01*
X90008Y31980D01*
X90158Y31964D01*
X87008D01*
X87157Y31980D01*
X87291Y32028D01*
X87409Y32107D01*
X87512Y32218D01*
X87598Y32361D01*
X87669Y32535D01*
X87724Y32742D01*
X87764Y32980D01*
X87787Y33250D01*
X87793Y33465D01*
X87787Y33680D01*
X87764Y33949D01*
X87724Y34187D01*
X87669Y34394D01*
X87598Y34568D01*
X87512Y34711D01*
X87409Y34822D01*
X87291Y34901D01*
X87157Y34949D01*
X87008Y34965D01*
X90158D01*
X90008Y34949D01*
D02*
G37*
G36*
X33192Y31795D02*
X33202Y31686D01*
X33217Y31590D01*
X33239Y31506D01*
X33268Y31436D01*
X33302Y31378D01*
X33343Y31333D01*
X33391Y31301D01*
X33444Y31282D01*
X33504Y31275D01*
X32244D01*
X32304Y31282D01*
X32357Y31301D01*
X32405Y31333D01*
X32446Y31378D01*
X32480Y31436D01*
X32509Y31506D01*
X32531Y31590D01*
X32546Y31686D01*
X32556Y31795D01*
X32559Y31917D01*
X33189D01*
X33192Y31795D01*
D02*
G37*
G36*
X28074D02*
X28084Y31686D01*
X28099Y31590D01*
X28121Y31506D01*
X28150Y31436D01*
X28184Y31378D01*
X28225Y31333D01*
X28272Y31301D01*
X28326Y31282D01*
X28386Y31275D01*
X27126D01*
X27186Y31282D01*
X27239Y31301D01*
X27287Y31333D01*
X27328Y31378D01*
X27362Y31436D01*
X27391Y31506D01*
X27413Y31590D01*
X27428Y31686D01*
X27438Y31795D01*
X27441Y31917D01*
X28071D01*
X28074Y31795D01*
D02*
G37*
G36*
X60854Y30472D02*
X60733Y30469D01*
X60624Y30460D01*
X60528Y30444D01*
X60445Y30422D01*
X60375Y30394D01*
X60317Y30359D01*
X60272Y30318D01*
X60239Y30271D01*
X60219Y30217D01*
X60212Y30158D01*
X60224Y31090D01*
X60230Y31093D01*
X60249Y31095D01*
X60325Y31098D01*
X60854Y31102D01*
Y30472D01*
D02*
G37*
G36*
X33841Y30491D02*
X33860Y30438D01*
X33892Y30391D01*
X33937Y30350D01*
X33995Y30315D01*
X34065Y30287D01*
X34149Y30265D01*
X34245Y30249D01*
X34354Y30239D01*
X34476Y30236D01*
Y29606D01*
X34354Y29603D01*
X34245Y29594D01*
X34149Y29578D01*
X34065Y29556D01*
X33995Y29528D01*
X33937Y29493D01*
X33892Y29452D01*
X33860Y29405D01*
X33841Y29351D01*
X33834Y29291D01*
Y30551D01*
X33841Y30491D01*
D02*
G37*
G36*
X26796Y29291D02*
X26789Y29351D01*
X26770Y29405D01*
X26738Y29452D01*
X26693Y29493D01*
X26635Y29528D01*
X26565Y29556D01*
X26481Y29578D01*
X26385Y29594D01*
X26276Y29603D01*
X26154Y29606D01*
Y30236D01*
X26276Y30239D01*
X26385Y30249D01*
X26481Y30265D01*
X26565Y30287D01*
X26635Y30315D01*
X26693Y30350D01*
X26738Y30391D01*
X26770Y30438D01*
X26789Y30491D01*
X26796Y30551D01*
Y29291D01*
D02*
G37*
G36*
X79310Y28746D02*
X79257Y28727D01*
X79210Y28695D01*
X79168Y28651D01*
X79134Y28595D01*
X79106Y28525D01*
X79084Y28444D01*
X79068Y28349D01*
X79058Y28242D01*
X79055Y28122D01*
X78425D01*
X78422Y28242D01*
X78413Y28349D01*
X78397Y28444D01*
X78375Y28525D01*
X78347Y28595D01*
X78312Y28651D01*
X78271Y28695D01*
X78224Y28727D01*
X78170Y28746D01*
X78110Y28752D01*
X79370D01*
X79310Y28746D01*
D02*
G37*
G36*
X59428D02*
X59375Y28727D01*
X59328Y28695D01*
X59287Y28651D01*
X59252Y28595D01*
X59224Y28525D01*
X59202Y28444D01*
X59186Y28349D01*
X59176Y28242D01*
X59173Y28122D01*
X58543D01*
X58540Y28242D01*
X58531Y28349D01*
X58515Y28444D01*
X58493Y28525D01*
X58465Y28595D01*
X58430Y28651D01*
X58389Y28695D01*
X58342Y28727D01*
X58288Y28746D01*
X58228Y28752D01*
X59488D01*
X59428Y28746D01*
D02*
G37*
G36*
X74924Y27467D02*
X74934Y27360D01*
X74950Y27265D01*
X74972Y27183D01*
X75000Y27114D01*
X75035Y27057D01*
X75076Y27013D01*
X75123Y26982D01*
X75176Y26963D01*
X75236Y26956D01*
X73976D01*
X74036Y26963D01*
X74090Y26982D01*
X74137Y27013D01*
X74178Y27057D01*
X74213Y27114D01*
X74241Y27183D01*
X74263Y27265D01*
X74279Y27360D01*
X74288Y27467D01*
X74291Y27586D01*
X74921D01*
X74924Y27467D01*
D02*
G37*
G36*
X59176D02*
X59186Y27360D01*
X59202Y27265D01*
X59224Y27183D01*
X59252Y27114D01*
X59287Y27057D01*
X59328Y27013D01*
X59375Y26982D01*
X59428Y26963D01*
X59488Y26956D01*
X58228D01*
X58288Y26963D01*
X58342Y26982D01*
X58389Y27013D01*
X58430Y27057D01*
X58465Y27114D01*
X58493Y27183D01*
X58515Y27265D01*
X58531Y27360D01*
X58540Y27467D01*
X58543Y27586D01*
X59173D01*
X59176Y27467D01*
D02*
G37*
G36*
X78859Y27626D02*
X78798Y27560D01*
X78743Y27490D01*
X78696Y27415D01*
X78654Y27337D01*
X78619Y27254D01*
X78591Y27168D01*
X78569Y27077D01*
X78554Y26983D01*
X78545Y26884D01*
X78543Y26781D01*
X77569Y27756D01*
X77672Y27758D01*
X77770Y27767D01*
X77865Y27782D01*
X77955Y27804D01*
X78042Y27832D01*
X78124Y27867D01*
X78203Y27908D01*
X78277Y27956D01*
X78347Y28010D01*
X78413Y28071D01*
X78859Y27626D01*
D02*
G37*
G36*
X90008Y28650D02*
X89874Y28602D01*
X89756Y28523D01*
X89653Y28412D01*
X89567Y28269D01*
X89496Y28095D01*
X89441Y27888D01*
X89402Y27650D01*
X89398Y27609D01*
X89402Y27567D01*
X89441Y27330D01*
X89496Y27123D01*
X89567Y26949D01*
X89653Y26806D01*
X89756Y26695D01*
X89874Y26615D01*
X90008Y26567D01*
X90158Y26551D01*
X87020Y26563D01*
X87167Y26579D01*
X87299Y26626D01*
X87415Y26704D01*
X87516Y26815D01*
X87601Y26956D01*
X87671Y27130D01*
X87726Y27334D01*
X87764Y27571D01*
X87767Y27608D01*
X87764Y27650D01*
X87724Y27888D01*
X87669Y28095D01*
X87598Y28269D01*
X87512Y28412D01*
X87409Y28523D01*
X87291Y28602D01*
X87157Y28650D01*
X87008Y28666D01*
X90158D01*
X90008Y28650D01*
D02*
G37*
G36*
X36539Y26480D02*
X36548Y26371D01*
X36564Y26275D01*
X36586Y26191D01*
X36614Y26121D01*
X36649Y26063D01*
X36690Y26018D01*
X36737Y25986D01*
X36791Y25967D01*
X36850Y25960D01*
X35591D01*
X35650Y25967D01*
X35704Y25986D01*
X35751Y26018D01*
X35792Y26063D01*
X35827Y26121D01*
X35855Y26191D01*
X35877Y26275D01*
X35893Y26371D01*
X35902Y26480D01*
X35906Y26602D01*
X36535D01*
X36539Y26480D01*
D02*
G37*
G36*
X24728D02*
X24737Y26371D01*
X24753Y26275D01*
X24775Y26191D01*
X24803Y26121D01*
X24838Y26063D01*
X24879Y26018D01*
X24926Y25986D01*
X24980Y25967D01*
X25039Y25960D01*
X23779D01*
X23839Y25967D01*
X23893Y25986D01*
X23940Y26018D01*
X23981Y26063D01*
X24016Y26121D01*
X24044Y26191D01*
X24066Y26275D01*
X24082Y26371D01*
X24091Y26480D01*
X24094Y26602D01*
X24724D01*
X24728Y26480D01*
D02*
G37*
G36*
X47126Y25804D02*
X47458Y25472D01*
X47638Y25038D01*
Y24803D01*
Y24568D01*
X47458Y24134D01*
X47126Y23802D01*
X46692Y23622D01*
X46457Y23622D01*
X46457Y23622D01*
X42913D01*
Y25984D01*
X46692D01*
X47126Y25804D01*
D02*
G37*
G36*
X33346Y23640D02*
X33292Y23620D01*
X33245Y23588D01*
X33204Y23543D01*
X33169Y23486D01*
X33141Y23415D01*
X33119Y23332D01*
X33103Y23235D01*
X33094Y23126D01*
X33091Y23004D01*
X32461D01*
X32458Y23126D01*
X32448Y23235D01*
X32432Y23332D01*
X32410Y23415D01*
X32382Y23486D01*
X32347Y23543D01*
X32306Y23588D01*
X32259Y23620D01*
X32206Y23640D01*
X32146Y23646D01*
X33406D01*
X33346Y23640D01*
D02*
G37*
G36*
X28424D02*
X28371Y23620D01*
X28324Y23588D01*
X28283Y23543D01*
X28248Y23486D01*
X28220Y23415D01*
X28198Y23332D01*
X28182Y23235D01*
X28172Y23126D01*
X28169Y23004D01*
X27539D01*
X27536Y23126D01*
X27527Y23235D01*
X27511Y23332D01*
X27489Y23415D01*
X27461Y23486D01*
X27426Y23543D01*
X27385Y23588D01*
X27338Y23620D01*
X27284Y23640D01*
X27224Y23646D01*
X28484D01*
X28424Y23640D01*
D02*
G37*
G36*
X51850Y33285D02*
X52182Y32952D01*
X52362Y32518D01*
X52362Y32283D01*
X52362Y32283D01*
Y28740D01*
Y27165D01*
X52559Y26969D01*
Y22638D01*
X50197D01*
X50000Y22835D01*
Y28740D01*
Y32283D01*
Y32518D01*
X50180Y32952D01*
X50512Y33285D01*
X50946Y33465D01*
X51416D01*
X51850Y33285D01*
D02*
G37*
G36*
X33094Y22445D02*
X33103Y22336D01*
X33119Y22239D01*
X33141Y22156D01*
X33169Y22085D01*
X33204Y22027D01*
X33245Y21983D01*
X33292Y21950D01*
X33346Y21931D01*
X33406Y21925D01*
X32146D01*
X32206Y21931D01*
X32259Y21950D01*
X32306Y21983D01*
X32347Y22027D01*
X32382Y22085D01*
X32410Y22156D01*
X32432Y22239D01*
X32448Y22336D01*
X32458Y22445D01*
X32461Y22567D01*
X33091D01*
X33094Y22445D01*
D02*
G37*
G36*
X28172D02*
X28182Y22336D01*
X28198Y22239D01*
X28220Y22156D01*
X28248Y22085D01*
X28283Y22027D01*
X28324Y21983D01*
X28371Y21950D01*
X28424Y21931D01*
X28484Y21925D01*
X27224D01*
X27284Y21931D01*
X27338Y21950D01*
X27385Y21983D01*
X27426Y22027D01*
X27461Y22085D01*
X27489Y22156D01*
X27511Y22239D01*
X27527Y22336D01*
X27536Y22445D01*
X27539Y22567D01*
X28169D01*
X28172Y22445D01*
D02*
G37*
G36*
X41339Y17717D02*
X38878Y15256D01*
X36516D01*
Y21949D01*
X37303D01*
X38976Y23622D01*
Y25984D01*
X41339D01*
Y17717D01*
D02*
G37*
G36*
X74292Y9116D02*
X74276Y9082D01*
X74261Y9038D01*
X74248Y8985D01*
X74237Y8923D01*
X74221Y8768D01*
X74214Y8575D01*
X74213Y8465D01*
X73032D01*
X73031Y8575D01*
X73007Y8923D01*
X72996Y8985D01*
X72983Y9038D01*
X72969Y9082D01*
X72952Y9116D01*
X72933Y9140D01*
X74311D01*
X74292Y9116D01*
D02*
G37*
G36*
X68307Y12402D02*
X67716Y11811D01*
Y9055D01*
Y6693D01*
Y6458D01*
X67537Y6024D01*
X67204Y5692D01*
X66770Y5512D01*
X66535D01*
X66300Y5512D01*
X65866Y5692D01*
X65534Y6024D01*
X65354Y6458D01*
X65354Y6693D01*
X65354Y6693D01*
Y9055D01*
Y16142D01*
X65945Y16732D01*
X68307D01*
Y12402D01*
D02*
G37*
G36*
X60906Y5966D02*
X60890Y5932D01*
X60875Y5889D01*
X60862Y5836D01*
X60851Y5773D01*
X60836Y5619D01*
X60828Y5426D01*
X60827Y5315D01*
X59646D01*
X59645Y5426D01*
X59621Y5773D01*
X59610Y5836D01*
X59597Y5889D01*
X59583Y5932D01*
X59566Y5966D01*
X59547Y5990D01*
X60925D01*
X60906Y5966D01*
D02*
G37*
G36*
X51696Y17231D02*
X51705Y17123D01*
X51721Y17029D01*
X51743Y16947D01*
X51772Y16878D01*
X51806Y16821D01*
X51847Y16777D01*
X51894Y16746D01*
X51932Y16732D01*
X52559D01*
X54331Y14961D01*
Y7874D01*
X54921Y7283D01*
Y6693D01*
Y6497D01*
X54771Y6135D01*
X54626Y5990D01*
X54607Y5966D01*
X54590Y5932D01*
X54576Y5889D01*
X54563Y5836D01*
X54552Y5773D01*
X54536Y5619D01*
X54528Y5426D01*
X54528Y5315D01*
X53347D01*
X53346Y5426D01*
X53326Y5709D01*
X52756D01*
X51968Y6496D01*
Y7874D01*
X50197Y9646D01*
Y16732D01*
X50824D01*
X50861Y16746D01*
X50909Y16777D01*
X50950Y16821D01*
X50984Y16878D01*
X51013Y16947D01*
X51035Y17029D01*
X51050Y17123D01*
X51060Y17231D01*
X51063Y17350D01*
X51693D01*
X51696Y17231D01*
D02*
G37*
G36*
X128740Y86024D02*
Y81890D01*
X127953Y81102D01*
X126969D01*
X124311Y83760D01*
Y87106D01*
X127657D01*
X128740Y86024D01*
D02*
G37*
G36*
X21260Y68504D02*
Y61614D01*
X20177Y60532D01*
X16831D01*
Y67224D01*
X18898Y69291D01*
X20472D01*
X21260Y68504D01*
D02*
G37*
G36*
X14156Y73405D02*
X14175Y73351D01*
X14207Y73304D01*
X14252Y73263D01*
X14310Y73228D01*
X14380Y73200D01*
X14464Y73178D01*
X14560Y73162D01*
X14669Y73153D01*
X14791Y73150D01*
Y72520D01*
X14669Y72517D01*
X14560Y72507D01*
X14464Y72491D01*
X14380Y72469D01*
X14310Y72441D01*
X14252Y72406D01*
X14207Y72365D01*
X14175Y72318D01*
X14156Y72265D01*
X14149Y72205D01*
Y73465D01*
X14156Y73405D01*
D02*
G37*
G36*
X18982Y72146D02*
X18908Y72217D01*
X18832Y72280D01*
X18754Y72336D01*
X18675Y72385D01*
X18594Y72426D01*
X18511Y72460D01*
X18426Y72486D01*
X18340Y72505D01*
X18252Y72516D01*
X18162Y72520D01*
X18162Y73150D01*
X18252Y73153D01*
X18340Y73165D01*
X18426Y73183D01*
X18511Y73209D01*
X18594Y73243D01*
X18675Y73284D01*
X18754Y73333D01*
X18832Y73389D01*
X18908Y73453D01*
X18982Y73524D01*
X18982Y72146D01*
D02*
G37*
G36*
X14665Y69587D02*
Y62205D01*
X11319D01*
Y69587D01*
X11811Y70079D01*
X14173D01*
X14665Y69587D01*
D02*
G37*
G36*
X124213Y55709D02*
Y53740D01*
X124803Y53150D01*
X125197D01*
Y52362D01*
X120866D01*
X118667Y54561D01*
X118667Y54561D01*
X118535Y54694D01*
X118327Y55005D01*
X118183Y55351D01*
X118110Y55718D01*
X118110Y55905D01*
X118110Y56297D01*
X118410Y57021D01*
X118964Y57574D01*
X119687Y57874D01*
X120079D01*
X122047Y57874D01*
X124213Y55709D01*
D02*
G37*
G36*
X120054Y51814D02*
X120118Y51764D01*
X120187Y51719D01*
X120259Y51681D01*
X120336Y51649D01*
X120417Y51622D01*
X120503Y51601D01*
X120592Y51587D01*
X120686Y51578D01*
X120784Y51575D01*
Y50787D01*
X120686Y50784D01*
X120592Y50776D01*
X120503Y50761D01*
X120417Y50740D01*
X120336Y50714D01*
X120259Y50681D01*
X120187Y50643D01*
X120118Y50598D01*
X120054Y50548D01*
X119994Y50492D01*
Y51870D01*
X120054Y51814D01*
D02*
G37*
G36*
X138583Y51968D02*
X136614Y50000D01*
X131496D01*
X129823Y50000D01*
X129035Y50787D01*
X126772D01*
Y51575D01*
X129035D01*
X129823Y52362D01*
X132677D01*
X133858Y53543D01*
Y62992D01*
X138583D01*
Y51968D01*
D02*
G37*
G36*
X120625Y48809D02*
X120558Y48737D01*
X120498Y48665D01*
X120445Y48591D01*
X120399Y48516D01*
X120361Y48440D01*
X120329Y48362D01*
X120305Y48284D01*
X120288Y48204D01*
X120278Y48123D01*
X120275Y48041D01*
X119301Y49016D01*
X119383Y49018D01*
X119464Y49028D01*
X119544Y49045D01*
X119622Y49070D01*
X119700Y49101D01*
X119776Y49140D01*
X119851Y49185D01*
X119924Y49238D01*
X119997Y49298D01*
X120068Y49365D01*
X120625Y48809D01*
D02*
G37*
G36*
Y45265D02*
X120558Y45194D01*
X120498Y45121D01*
X120445Y45048D01*
X120399Y44973D01*
X120361Y44897D01*
X120329Y44819D01*
X120305Y44741D01*
X120288Y44661D01*
X120278Y44580D01*
X120275Y44498D01*
X119301Y45472D01*
X119383Y45475D01*
X119464Y45485D01*
X119544Y45502D01*
X119622Y45526D01*
X119700Y45558D01*
X119776Y45596D01*
X119851Y45642D01*
X119924Y45695D01*
X119997Y45755D01*
X120068Y45822D01*
X120625Y45265D01*
D02*
G37*
G36*
X130315Y48425D02*
X132677D01*
Y42126D01*
X130315D01*
Y44488D01*
X127953Y46850D01*
Y48031D01*
Y48524D01*
X127264Y49213D01*
X126772D01*
Y50000D01*
X128740D01*
X130315Y48425D01*
D02*
G37*
G36*
X127165Y46555D02*
X128740Y44980D01*
Y42126D01*
X128740Y38189D01*
X122441D01*
X122441Y40551D01*
X124803D01*
X125591Y41339D01*
Y46752D01*
X126378Y47539D01*
Y48031D01*
X127165D01*
Y46555D01*
D02*
G37*
G36*
X120255Y34269D02*
X120202Y34250D01*
X120154Y34218D01*
X120113Y34173D01*
X120079Y34115D01*
X120050Y34045D01*
X120028Y33961D01*
X120013Y33865D01*
X120003Y33756D01*
X120000Y33634D01*
X119370D01*
X119367Y33756D01*
X119358Y33865D01*
X119342Y33961D01*
X119320Y34045D01*
X119291Y34115D01*
X119257Y34173D01*
X119216Y34218D01*
X119168Y34250D01*
X119115Y34269D01*
X119055Y34276D01*
X120315D01*
X120255Y34269D01*
D02*
G37*
G36*
X103720D02*
X103666Y34250D01*
X103619Y34218D01*
X103578Y34173D01*
X103543Y34115D01*
X103515Y34045D01*
X103493Y33961D01*
X103477Y33865D01*
X103468Y33756D01*
X103465Y33634D01*
X102835D01*
X102831Y33756D01*
X102822Y33865D01*
X102806Y33961D01*
X102784Y34045D01*
X102756Y34115D01*
X102721Y34173D01*
X102680Y34218D01*
X102633Y34250D01*
X102579Y34269D01*
X102520Y34276D01*
X103779D01*
X103720Y34269D01*
D02*
G37*
G36*
X115728Y32092D02*
X115674Y32073D01*
X115627Y32042D01*
X115586Y31998D01*
X115551Y31941D01*
X115523Y31872D01*
X115501Y31790D01*
X115485Y31696D01*
X115476Y31588D01*
X115472Y31469D01*
X114842D01*
X114839Y31588D01*
X114830Y31696D01*
X114814Y31790D01*
X114792Y31872D01*
X114764Y31941D01*
X114729Y31998D01*
X114688Y32042D01*
X114641Y32073D01*
X114587Y32092D01*
X114528Y32099D01*
X115787D01*
X115728Y32092D01*
D02*
G37*
G36*
X108247D02*
X108194Y32073D01*
X108147Y32042D01*
X108106Y31998D01*
X108071Y31941D01*
X108043Y31872D01*
X108020Y31790D01*
X108005Y31696D01*
X107995Y31588D01*
X107992Y31469D01*
X107362D01*
X107359Y31588D01*
X107350Y31696D01*
X107334Y31790D01*
X107312Y31872D01*
X107283Y31941D01*
X107249Y31998D01*
X107208Y32042D01*
X107161Y32073D01*
X107107Y32092D01*
X107047Y32099D01*
X108307D01*
X108247Y32092D01*
D02*
G37*
G36*
X116656Y29927D02*
X116677Y29726D01*
X116696Y29644D01*
X116719Y29575D01*
X116748Y29518D01*
X116783Y29474D01*
X116822Y29442D01*
X116867Y29423D01*
X116917Y29417D01*
X115760D01*
X115810Y29423D01*
X115855Y29442D01*
X115894Y29474D01*
X115929Y29518D01*
X115958Y29575D01*
X115981Y29644D01*
X116000Y29726D01*
X116013Y29820D01*
X116021Y29927D01*
X116024Y30047D01*
X116654D01*
X116656Y29927D01*
D02*
G37*
G36*
X115180Y30876D02*
X115095Y30785D01*
X115019Y30690D01*
X114953Y30592D01*
X114895Y30490D01*
X114846Y30384D01*
X114805Y30275D01*
X114774Y30162D01*
X114752Y30045D01*
X114739Y29925D01*
X114738Y29908D01*
X114753Y29726D01*
X114769Y29644D01*
X114788Y29575D01*
X114811Y29518D01*
X114839Y29474D01*
X114872Y29442D01*
X114908Y29423D01*
X114949Y29417D01*
X113792D01*
X113851Y29423D01*
X113904Y29442D01*
X113951Y29474D01*
X113992Y29518D01*
X114026Y29575D01*
X114054Y29644D01*
X114076Y29726D01*
X114088Y29795D01*
X114079Y29843D01*
X114048Y29937D01*
X114004Y30019D01*
X113947Y30089D01*
X113878Y30145D01*
X113796Y30189D01*
X113701Y30221D01*
X113594Y30240D01*
X113474Y30246D01*
X113659Y30876D01*
X113783Y30880D01*
X113903Y30894D01*
X114020Y30916D01*
X114133Y30947D01*
X114243Y30987D01*
X114348Y31036D01*
X114450Y31094D01*
X114549Y31161D01*
X114643Y31237D01*
X114734Y31321D01*
X115180Y30876D01*
D02*
G37*
G36*
X110751Y29927D02*
X110772Y29726D01*
X110790Y29644D01*
X110814Y29575D01*
X110843Y29518D01*
X110877Y29474D01*
X110917Y29442D01*
X110961Y29423D01*
X111012Y29417D01*
X109854D01*
X109905Y29423D01*
X109949Y29442D01*
X109989Y29474D01*
X110023Y29518D01*
X110052Y29575D01*
X110076Y29644D01*
X110094Y29726D01*
X110108Y29820D01*
X110116Y29927D01*
X110118Y30047D01*
X110748D01*
X110751Y29927D01*
D02*
G37*
G36*
X108782D02*
X108803Y29726D01*
X108822Y29644D01*
X108845Y29575D01*
X108874Y29518D01*
X108909Y29474D01*
X108948Y29442D01*
X108993Y29423D01*
X109043Y29417D01*
X107886D01*
X107936Y29423D01*
X107981Y29442D01*
X108020Y29474D01*
X108055Y29518D01*
X108084Y29575D01*
X108107Y29644D01*
X108126Y29726D01*
X108139Y29820D01*
X108147Y29927D01*
X108150Y30047D01*
X108780D01*
X108782Y29927D01*
D02*
G37*
G36*
X104845D02*
X104866Y29726D01*
X104885Y29644D01*
X104908Y29575D01*
X104937Y29518D01*
X104972Y29474D01*
X105011Y29442D01*
X105056Y29423D01*
X105106Y29417D01*
X103949D01*
X103999Y29423D01*
X104044Y29442D01*
X104083Y29474D01*
X104118Y29518D01*
X104147Y29575D01*
X104170Y29644D01*
X104189Y29726D01*
X104202Y29820D01*
X104210Y29927D01*
X104213Y30047D01*
X104842D01*
X104845Y29927D01*
D02*
G37*
G36*
X112491Y24724D02*
X112472Y24711D01*
X112456Y24689D01*
X112441Y24658D01*
X112429Y24618D01*
X112419Y24570D01*
X112411Y24514D01*
X112403Y24374D01*
X112402Y24291D01*
X111772D01*
X111772Y24372D01*
X111790Y24649D01*
X111797Y24678D01*
X111804Y24700D01*
X111813Y24712D01*
X111823Y24717D01*
X112512Y24729D01*
X112491Y24724D01*
D02*
G37*
G36*
X109043Y24717D02*
X109053Y24712D01*
X109062Y24700D01*
X109069Y24678D01*
X109076Y24649D01*
X109082Y24610D01*
X109090Y24508D01*
X109095Y24291D01*
X108465D01*
X108464Y24374D01*
X108447Y24570D01*
X108437Y24618D01*
X108425Y24658D01*
X108410Y24689D01*
X108394Y24711D01*
X108375Y24724D01*
X108354Y24729D01*
X109043Y24717D01*
D02*
G37*
G36*
X121377Y24719D02*
X121352Y24691D01*
X121331Y24643D01*
X121312Y24577D01*
X121296Y24492D01*
X121283Y24388D01*
X121266Y24124D01*
X121260Y23785D01*
X119685D01*
X119697Y24717D01*
X121404Y24729D01*
X121377Y24719D01*
D02*
G37*
G36*
X67598Y33285D02*
X67930Y32952D01*
X68110Y32518D01*
X68110Y32283D01*
X68110Y32283D01*
Y28740D01*
Y27165D01*
X68307Y26969D01*
Y22638D01*
X65945D01*
X65748Y22835D01*
Y28740D01*
Y32283D01*
Y32518D01*
X65928Y32952D01*
X66260Y33285D01*
X66694Y33465D01*
X67164D01*
X67598Y33285D01*
D02*
G37*
D10*
X122835Y48031D02*
X125197D01*
X119291Y44488D02*
X122835Y48031D01*
X119291D02*
X120866Y49606D01*
X125197D01*
X119291Y51181D02*
X125197D01*
D15*
X24409Y24803D02*
D03*
X28346D02*
D03*
X36220D02*
D03*
X32283D02*
D03*
X44094D02*
D03*
X40157D02*
D03*
X103543Y104331D02*
D03*
X107480D02*
D03*
X103543Y100394D02*
D03*
X107480D02*
D03*
X120866Y104331D02*
D03*
X124803D02*
D03*
X120866Y100394D02*
D03*
X124803D02*
D03*
X107480Y96457D02*
D03*
X111417D02*
D03*
X107480Y92520D02*
D03*
X111417D02*
D03*
X131496Y47244D02*
D03*
X135433D02*
D03*
X131496Y43307D02*
D03*
X135433D02*
D03*
X107480Y54528D02*
D03*
X103543D02*
D03*
X107480Y49606D02*
D03*
X103543D02*
D03*
X127559Y43307D02*
D03*
X123622D02*
D03*
X70866Y29921D02*
D03*
X66929D02*
D03*
X57087Y9055D02*
D03*
X53150D02*
D03*
X70472D02*
D03*
X66535D02*
D03*
X55118Y29921D02*
D03*
X51181D02*
D03*
X13780Y33858D02*
D03*
X17717D02*
D03*
D16*
X45472Y37795D02*
D03*
Y33858D02*
D03*
X103543Y113976D02*
D03*
Y110039D02*
D03*
X116142Y92520D02*
D03*
Y96457D02*
D03*
X130315Y92520D02*
D03*
Y96457D02*
D03*
X103543Y79921D02*
D03*
Y75984D02*
D03*
Y72047D02*
D03*
Y68110D02*
D03*
X127559Y39370D02*
D03*
Y35433D02*
D03*
X123622Y39370D02*
D03*
Y35433D02*
D03*
X119685D02*
D03*
Y39370D02*
D03*
X103150D02*
D03*
Y35433D02*
D03*
X78740Y33858D02*
D03*
Y29921D02*
D03*
X59055D02*
D03*
Y33858D02*
D03*
X40453Y37795D02*
D03*
Y33858D02*
D03*
X12992Y68898D02*
D03*
Y72835D02*
D03*
X103543Y96457D02*
D03*
Y92520D02*
D03*
X131496Y51181D02*
D03*
Y55118D02*
D03*
D26*
X61496Y30787D02*
X62598Y31890D01*
Y33071D02*
X66142Y36614D01*
X62598Y31890D02*
Y33071D01*
X66142Y36614D02*
X67323D01*
X70433Y39724D01*
X92047Y73032D02*
X93583Y74567D01*
X80433Y44488D02*
Y67835D01*
X88976Y76378D02*
X92047D01*
X80433Y67835D02*
X88976Y76378D01*
X105459Y64226D02*
Y65695D01*
X106575Y66811D01*
X105459Y64226D02*
X105512Y64173D01*
X108209Y66811D02*
X108524Y67126D01*
X106575Y66811D02*
X108209D01*
X28543Y94567D02*
X33937D01*
X28543Y99567D02*
X33937D01*
X26772Y42126D02*
Y44488D01*
Y42126D02*
X27756Y41142D01*
Y29921D02*
Y41142D01*
X30315Y42520D02*
X32874Y39961D01*
X30315Y42520D02*
Y44488D01*
X32874Y29921D02*
Y39961D01*
X24409Y28346D02*
X25984Y29921D01*
X24409Y24803D02*
Y28346D01*
X25984Y29921D02*
X27756D01*
X32874D02*
X34646D01*
X36220Y24803D02*
Y28346D01*
X34646Y29921D02*
X36220Y28346D01*
X27854Y24311D02*
X28346Y24803D01*
X27854Y18602D02*
Y24311D01*
X32283Y24803D02*
X32776Y24311D01*
Y18602D02*
Y24311D01*
X12795Y39370D02*
X13780Y38386D01*
Y33858D02*
Y38386D01*
X48819Y20866D02*
X51378Y18307D01*
X45472Y29921D02*
X48819Y26575D01*
Y20866D02*
Y26575D01*
X45472Y29921D02*
Y33858D01*
X40453D02*
X45472D01*
X40453Y40157D02*
Y44469D01*
Y37795D02*
Y40157D01*
X40433Y44488D02*
X40453Y44469D01*
X45433Y44488D02*
X45472Y44449D01*
Y37795D02*
Y44449D01*
X51378Y14567D02*
Y18307D01*
X119291Y109252D02*
X120866Y107677D01*
Y104331D02*
Y107677D01*
X118898Y109252D02*
X119291D01*
X77559Y26772D02*
X78740Y27953D01*
Y29921D01*
X19685Y72835D02*
X19685Y72835D01*
X12992Y72835D02*
X19685D01*
X28543Y69567D02*
X33937D01*
X18701Y105905D02*
X22835Y101772D01*
X18701Y105905D02*
Y106299D01*
X22835Y95079D02*
Y101772D01*
X18701Y90551D02*
Y90945D01*
X22835Y95079D01*
X21850Y87008D02*
X23228D01*
X18701Y90158D02*
X21850Y87008D01*
X18701Y90158D02*
Y90551D01*
X93583Y64567D02*
X97441D01*
X92047Y63032D02*
X93583Y64567D01*
Y74567D02*
X97441D01*
X112992Y89370D02*
X113779Y90158D01*
X111417Y89370D02*
X112992D01*
X113779Y90158D02*
Y94095D01*
X116142Y96457D01*
X111417D02*
X113779Y98819D01*
X107480Y96457D02*
X107480Y96457D01*
X107480Y92520D02*
Y96457D01*
X120728Y94488D02*
X121004Y94213D01*
X113779Y98819D02*
X117638D01*
X120000Y96457D01*
X118898Y100394D02*
X120866D01*
X114961Y104331D02*
X118898Y100394D01*
X111811Y104331D02*
X114961D01*
X107480Y108071D02*
X108661Y109252D01*
X107480Y104331D02*
Y108071D01*
X125728Y96457D02*
X130315D01*
X125728Y92520D02*
X130315D01*
X125728D02*
Y94488D01*
X120000Y96457D02*
X120728D01*
X118110Y94488D02*
X120728D01*
X116142Y96457D02*
X118110Y94488D01*
X98819Y40157D02*
X103150Y44488D01*
X78740Y33858D02*
X85039Y40157D01*
X98819D01*
X75433Y37165D02*
Y44488D01*
Y37165D02*
X78740Y33858D01*
X70433Y39724D02*
X74606Y35551D01*
Y24803D02*
Y35551D01*
X70433Y39724D02*
Y44488D01*
X59921Y30787D02*
X61496D01*
X59055Y29921D02*
X59921Y30787D01*
X58858Y24803D02*
Y29724D01*
X59055Y29921D01*
X97441Y104567D02*
X97677Y104331D01*
X103543D01*
X103543Y100394D02*
Y104331D01*
X103543Y104331D02*
X103543Y104331D01*
X28543Y109567D02*
X32244D01*
X33937Y107874D01*
X28543Y104567D02*
X33937D01*
X103543Y92520D02*
X107480D01*
X103543Y96457D02*
X106614Y99528D01*
X106614D01*
X107480Y100394D01*
X121732Y103465D02*
Y103465D01*
Y103465D02*
X124803Y100394D01*
X120866Y104331D02*
X121732Y103465D01*
X17461Y50394D02*
X20866D01*
X21693Y49567D02*
X28543D01*
X20866Y50394D02*
X21693Y49567D01*
X15748Y48681D02*
X17461Y50394D01*
X15748Y45807D02*
Y48681D01*
X12795Y51634D02*
Y55118D01*
Y51634D02*
X15748Y48681D01*
X12795Y42854D02*
X15748Y45807D01*
X12795Y39370D02*
Y42854D01*
X92047Y99567D02*
X97441D01*
X92047Y94567D02*
X97441D01*
X92047Y89567D02*
X97441D01*
X92047Y84567D02*
X97441D01*
X92047Y79567D02*
X97441D01*
X92047Y69567D02*
X97441D01*
X92047Y59567D02*
X97441D01*
X60433Y39094D02*
Y44488D01*
X55433Y39094D02*
Y44488D01*
X50433Y39094D02*
Y44488D01*
X103543Y72047D02*
Y75984D01*
Y72047D02*
X105512D01*
X106496Y73032D01*
X108524D01*
X116339Y30118D02*
X119685Y33465D01*
Y35433D01*
X116339Y27067D02*
Y30118D01*
X103150Y32283D02*
Y35433D01*
Y32283D02*
X104528Y30906D01*
Y27067D02*
Y30906D01*
X114419Y27116D02*
Y30561D01*
X107677Y31299D02*
X108465Y30512D01*
X110433Y30118D02*
X110876Y30561D01*
X112087Y26752D02*
X112402Y27067D01*
X108465D02*
Y30512D01*
Y27067D02*
X108780Y26752D01*
X107677Y31299D02*
Y34252D01*
X114370Y27067D02*
X114419Y27116D01*
X110433Y27067D02*
Y30118D01*
X110876Y30561D02*
X114419D01*
X112087Y24291D02*
Y26752D01*
X109449Y23622D02*
X111417D01*
X112087Y24291D01*
X108780D02*
X109449Y23622D01*
X108780Y24291D02*
Y26752D01*
X115157Y31299D02*
Y34252D01*
X114419Y30561D02*
X115157Y31299D01*
D28*
X12205Y98425D02*
D03*
X19291D02*
D03*
X12205Y47244D02*
D03*
X19291D02*
D03*
D29*
X88583Y102362D02*
D03*
X33465Y49606D02*
D03*
X62992Y9449D02*
D03*
X44094Y21654D02*
D03*
X51181Y35827D02*
D03*
X94095Y42520D02*
D03*
X66535Y38976D02*
D03*
X23622Y47244D02*
D03*
Y51968D02*
D03*
X2362Y2362D02*
D03*
X139370D02*
D03*
X44980Y6398D02*
D03*
X15650D02*
D03*
X70472Y36614D02*
D03*
X94095Y33465D02*
D03*
X127559Y33071D02*
D03*
X130709Y40157D02*
D03*
X127559Y104331D02*
D03*
X131102Y114961D02*
D03*
X115748D02*
D03*
X96850Y37795D02*
D03*
X137795Y43307D02*
D03*
Y47244D02*
D03*
X22047Y39370D02*
D03*
Y55118D02*
D03*
X12598Y94095D02*
D03*
Y102756D02*
D03*
X30315Y35039D02*
D03*
X20472Y18504D02*
D03*
X116929Y105512D02*
D03*
X111417Y37402D02*
D03*
X88976Y73228D02*
D03*
X92047Y73032D02*
D03*
X114961Y101181D02*
D03*
X134646Y20079D02*
D03*
X128740D02*
D03*
X134646Y25197D02*
D03*
X128740D02*
D03*
X88189Y4724D02*
D03*
X94095D02*
D03*
X88189Y9843D02*
D03*
X94095D02*
D03*
X128740D02*
D03*
X134646D02*
D03*
X128740Y4724D02*
D03*
X134646D02*
D03*
X116929Y61024D02*
D03*
X114961Y58268D02*
D03*
X105512Y64173D02*
D03*
X108661D02*
D03*
Y57874D02*
D03*
X33937Y94567D02*
D03*
Y99567D02*
D03*
X26772Y44488D02*
D03*
X30315D02*
D03*
X20079Y33858D02*
D03*
X46457Y24803D02*
D03*
X40453Y40157D02*
D03*
X45472D02*
D03*
X122047Y116929D02*
D03*
X120079Y55905D02*
D03*
X77559Y26772D02*
D03*
X128347Y67323D02*
D03*
Y59449D02*
D03*
X128347Y63386D02*
D03*
X136221Y59449D02*
D03*
Y67323D02*
D03*
Y63386D02*
D03*
X19685Y72835D02*
D03*
X33937Y69567D02*
D03*
X23228Y87008D02*
D03*
X92047Y66378D02*
D03*
X92047Y63032D02*
D03*
X33071Y114567D02*
D03*
X92047Y76378D02*
D03*
X111417Y89370D02*
D03*
X114961Y88189D02*
D03*
X111811Y104331D02*
D03*
Y107874D02*
D03*
X132677Y96457D02*
D03*
X118504Y89764D02*
D03*
X119291Y44488D02*
D03*
Y48031D02*
D03*
Y51181D02*
D03*
X123622Y45669D02*
D03*
X103150Y44488D02*
D03*
X33937Y107874D02*
D03*
Y104567D02*
D03*
X103543Y90158D02*
D03*
X111811Y100394D02*
D03*
X12992Y65354D02*
D03*
X127559Y82284D02*
D03*
X19685Y68110D02*
D03*
Y116929D02*
D03*
X73622Y9843D02*
D03*
X53937Y6693D02*
D03*
X50197D02*
D03*
X66535D02*
D03*
X70472D02*
D03*
X57087D02*
D03*
X60236D02*
D03*
X87992Y25591D02*
D03*
X94587D02*
D03*
X92047Y99567D02*
D03*
Y94567D02*
D03*
Y89567D02*
D03*
Y84567D02*
D03*
Y79567D02*
D03*
Y69567D02*
D03*
Y59567D02*
D03*
X60433Y39094D02*
D03*
X55433D02*
D03*
X50433D02*
D03*
X66929Y32283D02*
D03*
X51181D02*
D03*
X70866D02*
D03*
X55118D02*
D03*
X111811Y114961D02*
D03*
X129134Y47244D02*
D03*
X111417Y40945D02*
D03*
X125591Y39370D02*
D03*
X114173Y82284D02*
D03*
X116929Y85433D02*
D03*
X92913Y114567D02*
D03*
X108268Y88583D02*
D03*
X105512Y85433D02*
D03*
X103543Y82284D02*
D03*
X111024Y70079D02*
D03*
X131496Y45276D02*
D03*
X125984Y55709D02*
D03*
X128347D02*
D03*
Y53347D02*
D03*
D30*
X63386Y81496D02*
D03*
X74409D02*
D03*
Y87008D02*
D03*
X63386D02*
D03*
X66142Y78740D02*
D03*
X71653D02*
D03*
Y89764D02*
D03*
X66142D02*
D03*
Y84252D02*
D03*
X71653D02*
D03*
X68898Y81496D02*
D03*
Y87008D02*
D03*
D31*
X30315Y35039D02*
Y37795D01*
X103543Y79921D02*
Y82284D01*
D32*
X120866Y30315D02*
X123622Y33071D01*
Y35433D01*
X120866Y27067D02*
Y30315D01*
D33*
X60236Y4724D02*
X61024Y3937D01*
X71260D01*
X60236Y4724D02*
Y6693D01*
X59449Y3937D02*
X60236Y4724D01*
X55118Y3937D02*
X59449D01*
X53937Y5118D02*
Y6693D01*
Y5118D02*
X55118Y3937D01*
X71260D02*
X73622Y6299D01*
Y9843D01*
D34*
X44980Y6398D02*
D03*
X15650D02*
D03*
D35*
X22933Y18602D02*
D03*
X27854D02*
D03*
X32776D02*
D03*
X37697D02*
D03*
D36*
X32874Y29921D02*
D03*
X27756D02*
D03*
X30315Y37795D02*
D03*
D37*
X68898Y84252D02*
D03*
D38*
X97441Y114567D02*
D03*
Y109567D02*
D03*
Y104567D02*
D03*
Y99567D02*
D03*
Y94567D02*
D03*
Y89567D02*
D03*
Y84567D02*
D03*
Y79567D02*
D03*
Y74567D02*
D03*
Y69567D02*
D03*
Y64567D02*
D03*
Y59567D02*
D03*
Y54567D02*
D03*
Y49567D02*
D03*
X28543D02*
D03*
Y54567D02*
D03*
Y59567D02*
D03*
Y64567D02*
D03*
Y69567D02*
D03*
Y74567D02*
D03*
Y79567D02*
D03*
Y84567D02*
D03*
Y89567D02*
D03*
Y94567D02*
D03*
Y99567D02*
D03*
Y104567D02*
D03*
Y109567D02*
D03*
Y114567D02*
D03*
D39*
X65433Y44488D02*
D03*
X90433D02*
D03*
X80433D02*
D03*
X85433D02*
D03*
X70433D02*
D03*
X75433D02*
D03*
X55433D02*
D03*
X50433D02*
D03*
X45433D02*
D03*
X60433D02*
D03*
X40433D02*
D03*
X35433D02*
D03*
D40*
X118898Y109252D02*
D03*
Y114370D02*
D03*
X126772Y111811D02*
D03*
D41*
X108661Y109252D02*
D03*
Y114764D02*
D03*
D42*
X125728Y92520D02*
D03*
Y94488D02*
D03*
Y96457D02*
D03*
X120728D02*
D03*
Y94488D02*
D03*
Y92520D02*
D03*
D43*
X120472Y85433D02*
D03*
X125984D02*
D03*
X114173Y79134D02*
D03*
X108661D02*
D03*
X114173Y61024D02*
D03*
X108661D02*
D03*
X94095Y30315D02*
D03*
X88583D02*
D03*
X94095Y36614D02*
D03*
X88583D02*
D03*
X12992Y62205D02*
D03*
X18504D02*
D03*
X108661Y85433D02*
D03*
X114173D02*
D03*
D44*
X114311Y73032D02*
D03*
Y71063D02*
D03*
Y69095D02*
D03*
Y67126D02*
D03*
X108524D02*
D03*
Y69095D02*
D03*
Y71063D02*
D03*
Y73032D02*
D03*
D45*
X119882Y74016D02*
D03*
Y66142D02*
D03*
D46*
X128347Y63386D02*
D03*
X136221D02*
D03*
D47*
X120079Y55905D02*
D03*
D48*
X125197Y48031D02*
D03*
Y49606D02*
D03*
Y51181D02*
D03*
Y52756D02*
D03*
X126772Y48031D02*
D03*
Y49606D02*
D03*
Y51181D02*
D03*
Y52756D02*
D03*
D49*
X115157Y34252D02*
D03*
X111417D02*
D03*
X107677D02*
D03*
X111417Y44488D02*
D03*
X67126Y14567D02*
D03*
X74606D02*
D03*
Y24803D02*
D03*
X70866D02*
D03*
X67126D02*
D03*
X51378Y14567D02*
D03*
X58858D02*
D03*
Y24803D02*
D03*
X55118D02*
D03*
X51378D02*
D03*
D50*
X107677Y44488D02*
D03*
X115157D02*
D03*
D51*
X91299Y7283D02*
D03*
Y22638D02*
D03*
X131535Y7283D02*
D03*
Y22638D02*
D03*
D52*
X110433Y27067D02*
D03*
X112402D02*
D03*
X108465D02*
D03*
X106496D02*
D03*
X104528D02*
D03*
X114370D02*
D03*
X116339D02*
D03*
X118307D02*
D03*
D53*
X120866D02*
D03*
X124016D02*
D03*
X101969D02*
D03*
X98819D02*
D03*
D54*
X18701Y90551D02*
D03*
X12795D02*
D03*
X18701Y106299D02*
D03*
X12795D02*
D03*
X18701Y39370D02*
D03*
X12795D02*
D03*
X18701Y55118D02*
D03*
X12795D02*
D03*
D55*
X107480Y54528D02*
X114707Y47301D01*
Y44939D02*
X115157Y44488D01*
X114707Y44939D02*
Y47301D01*
X97441Y49567D02*
X97480Y49606D01*
X103543D01*
X107677Y44488D02*
Y49409D01*
X107480Y49606D02*
X107677Y49409D01*
X97441Y54567D02*
X97480Y54528D01*
X103543D01*
D56*
X114173Y85433D02*
X120472D01*
X12992Y62205D02*
X12992D01*
X114173Y82284D02*
Y85433D01*
Y79134D02*
Y82284D01*
D57*
X87992Y25591D02*
X88346D01*
X91299Y22638D01*
X88583Y30315D02*
Y36614D01*
Y25354D02*
Y30315D01*
X120472Y23785D02*
Y26673D01*
X120866Y27067D01*
X118341Y21654D02*
X120472Y23785D01*
X104724Y21654D02*
X118341D01*
X102362Y24016D02*
X104724Y21654D01*
X101969Y27067D02*
X102362Y26673D01*
Y24016D02*
Y26673D01*
M02*
