G04*
G04 #@! TF.GenerationSoftware,Altium Limited,Altium Designer,24.10.1 (45)*
G04*
G04 Layer_Color=128*
%FSLAX25Y25*%
%MOIN*%
G70*
G04*
G04 #@! TF.SameCoordinates,F1BA22F4-9FB4-4C3A-9B32-68D4286BD9C5*
G04*
G04*
G04 #@! TF.FilePolarity,Positive*
G04*
G01*
G75*
%ADD15R,0.02362X0.02362*%
%ADD16R,0.02362X0.02362*%
%ADD34R,0.03937X0.10630*%
%ADD35R,0.02362X0.06693*%
%ADD36R,0.01968X0.02756*%
%ADD38R,0.05906X0.03543*%
%ADD39R,0.03543X0.05906*%
%ADD40R,0.02756X0.01968*%
%ADD41R,0.03347X0.03347*%
%ADD42R,0.02638X0.01181*%
%ADD43R,0.03347X0.03347*%
%ADD44R,0.02598X0.01260*%
%ADD45R,0.04921X0.03937*%
G04:AMPARAMS|DCode=46|XSize=47.24mil|YSize=98.43mil|CornerRadius=11.81mil|HoleSize=0mil|Usage=FLASHONLY|Rotation=180.000|XOffset=0mil|YOffset=0mil|HoleType=Round|Shape=RoundedRectangle|*
%AMROUNDEDRECTD46*
21,1,0.04724,0.07480,0,0,180.0*
21,1,0.02362,0.09843,0,0,180.0*
1,1,0.02362,-0.01181,0.03740*
1,1,0.02362,0.01181,0.03740*
1,1,0.02362,0.01181,-0.03740*
1,1,0.02362,-0.01181,-0.03740*
%
%ADD46ROUNDEDRECTD46*%
%ADD47C,0.03937*%
%ADD48C,0.00906*%
%ADD49R,0.02362X0.04331*%
%ADD50R,0.01968X0.04331*%
%ADD51R,0.08583X0.07874*%
%ADD52R,0.01181X0.04724*%
%ADD53R,0.02362X0.04724*%
%ADD54R,0.03937X0.04724*%
G36*
X70669Y87992D02*
X67126D01*
Y91535D01*
X70669D01*
Y87992D01*
D02*
G37*
G36*
X76181Y87992D02*
X72638D01*
Y91535D01*
X76181D01*
Y87992D01*
D02*
G37*
G36*
X65158D02*
X61614D01*
Y91535D01*
X65158D01*
Y87992D01*
D02*
G37*
G36*
X76181Y82480D02*
X72638D01*
Y86024D01*
X76181D01*
Y82480D01*
D02*
G37*
G36*
X70669D02*
X67126D01*
Y86024D01*
X70669D01*
Y82480D01*
D02*
G37*
G36*
X65158Y82480D02*
X61614D01*
Y86024D01*
X65158D01*
Y82480D01*
D02*
G37*
G36*
X76181Y76968D02*
X72638D01*
Y80512D01*
X76181D01*
Y76968D01*
D02*
G37*
G36*
X70669D02*
X67126D01*
Y80512D01*
X70669D01*
Y76968D01*
D02*
G37*
G36*
X65158D02*
X61614D01*
Y80512D01*
X65158D01*
Y76968D01*
D02*
G37*
D15*
X24409Y24803D02*
D03*
X28346D02*
D03*
X36220D02*
D03*
X32283D02*
D03*
X44094D02*
D03*
X40157D02*
D03*
X103543Y104331D02*
D03*
X107480D02*
D03*
X103543Y100394D02*
D03*
X107480D02*
D03*
X120866Y104331D02*
D03*
X124803D02*
D03*
X120866Y100394D02*
D03*
X124803D02*
D03*
X107480Y96457D02*
D03*
X111417D02*
D03*
X107480Y92520D02*
D03*
X111417D02*
D03*
X131496Y47244D02*
D03*
X135433D02*
D03*
X131496Y43307D02*
D03*
X135433D02*
D03*
X107480Y54528D02*
D03*
X103543D02*
D03*
X107480Y49606D02*
D03*
X103543D02*
D03*
X127559Y43307D02*
D03*
X123622D02*
D03*
X70866Y29921D02*
D03*
X66929D02*
D03*
X57087Y9055D02*
D03*
X53150D02*
D03*
X70472D02*
D03*
X66535D02*
D03*
X55118Y29921D02*
D03*
X51181D02*
D03*
X13780Y33858D02*
D03*
X17717D02*
D03*
D16*
X45472Y37795D02*
D03*
Y33858D02*
D03*
X103543Y113976D02*
D03*
Y110039D02*
D03*
X116142Y92520D02*
D03*
Y96457D02*
D03*
X130315Y92520D02*
D03*
Y96457D02*
D03*
X103543Y79921D02*
D03*
Y75984D02*
D03*
Y72047D02*
D03*
Y68110D02*
D03*
X127559Y39370D02*
D03*
Y35433D02*
D03*
X123622Y39370D02*
D03*
Y35433D02*
D03*
X119685D02*
D03*
Y39370D02*
D03*
X103150D02*
D03*
Y35433D02*
D03*
X78740Y33858D02*
D03*
Y29921D02*
D03*
X59055D02*
D03*
Y33858D02*
D03*
X40453Y37795D02*
D03*
Y33858D02*
D03*
X12992Y68898D02*
D03*
Y72835D02*
D03*
X103543Y96457D02*
D03*
Y92520D02*
D03*
X131496Y51181D02*
D03*
Y55118D02*
D03*
D34*
X44980Y6398D02*
D03*
X15650D02*
D03*
D35*
X22933Y18602D02*
D03*
X27854D02*
D03*
X32776D02*
D03*
X37697D02*
D03*
D36*
X32874Y29921D02*
D03*
X27756D02*
D03*
X30315Y37795D02*
D03*
D38*
X97441Y114567D02*
D03*
Y109567D02*
D03*
Y104567D02*
D03*
Y99567D02*
D03*
Y94567D02*
D03*
Y89567D02*
D03*
Y84567D02*
D03*
Y79567D02*
D03*
Y74567D02*
D03*
Y69567D02*
D03*
Y64567D02*
D03*
Y59567D02*
D03*
Y54567D02*
D03*
Y49567D02*
D03*
X28543D02*
D03*
Y54567D02*
D03*
Y59567D02*
D03*
Y64567D02*
D03*
Y69567D02*
D03*
Y74567D02*
D03*
Y79567D02*
D03*
Y84567D02*
D03*
Y89567D02*
D03*
Y94567D02*
D03*
Y99567D02*
D03*
Y104567D02*
D03*
Y109567D02*
D03*
Y114567D02*
D03*
D39*
X65433Y44488D02*
D03*
X90433D02*
D03*
X80433D02*
D03*
X85433D02*
D03*
X70433D02*
D03*
X75433D02*
D03*
X55433D02*
D03*
X50433D02*
D03*
X45433D02*
D03*
X60433D02*
D03*
X40433D02*
D03*
X35433D02*
D03*
D40*
X118898Y109252D02*
D03*
Y114370D02*
D03*
X126772Y111811D02*
D03*
D41*
X108661Y109252D02*
D03*
Y114764D02*
D03*
D42*
X125728Y92520D02*
D03*
Y94488D02*
D03*
Y96457D02*
D03*
X120728D02*
D03*
Y94488D02*
D03*
Y92520D02*
D03*
D43*
X120472Y85433D02*
D03*
X125984D02*
D03*
X114173Y79134D02*
D03*
X108661D02*
D03*
X114173Y61024D02*
D03*
X108661D02*
D03*
X94095Y30315D02*
D03*
X88583D02*
D03*
X94095Y36614D02*
D03*
X88583D02*
D03*
X12992Y62205D02*
D03*
X18504D02*
D03*
X108661Y85433D02*
D03*
X114173D02*
D03*
D44*
X114311Y73032D02*
D03*
Y71063D02*
D03*
Y69095D02*
D03*
Y67126D02*
D03*
X108524D02*
D03*
Y69095D02*
D03*
Y71063D02*
D03*
Y73032D02*
D03*
D45*
X119882Y74016D02*
D03*
Y66142D02*
D03*
D46*
X128347Y63386D02*
D03*
X136221D02*
D03*
D47*
X120079Y55905D02*
D03*
D48*
X125197Y48031D02*
D03*
Y49606D02*
D03*
Y51181D02*
D03*
Y52756D02*
D03*
X126772Y48031D02*
D03*
Y49606D02*
D03*
Y51181D02*
D03*
Y52756D02*
D03*
D49*
X115157Y34252D02*
D03*
X111417D02*
D03*
X107677D02*
D03*
X111417Y44488D02*
D03*
X67126Y14567D02*
D03*
X74606D02*
D03*
Y24803D02*
D03*
X70866D02*
D03*
X67126D02*
D03*
X51378Y14567D02*
D03*
X58858D02*
D03*
Y24803D02*
D03*
X55118D02*
D03*
X51378D02*
D03*
D50*
X107677Y44488D02*
D03*
X115157D02*
D03*
D51*
X91299Y7283D02*
D03*
Y22638D02*
D03*
X131535Y7283D02*
D03*
Y22638D02*
D03*
D52*
X110433Y27067D02*
D03*
X112402D02*
D03*
X108465D02*
D03*
X106496D02*
D03*
X104528D02*
D03*
X114370D02*
D03*
X116339D02*
D03*
X118307D02*
D03*
D53*
X120866D02*
D03*
X124016D02*
D03*
X101969D02*
D03*
X98819D02*
D03*
D54*
X18701Y90551D02*
D03*
X12795D02*
D03*
X18701Y106299D02*
D03*
X12795D02*
D03*
X18701Y39370D02*
D03*
X12795D02*
D03*
X18701Y55118D02*
D03*
X12795D02*
D03*
M02*
