G04*
G04 #@! TF.GenerationSoftware,Altium Limited,Altium Designer,24.10.1 (45)*
G04*
G04 Layer_Physical_Order=2*
G04 Layer_Color=36540*
%FSLAX25Y25*%
%MOIN*%
G70*
G04*
G04 #@! TF.SameCoordinates,F1BA22F4-9FB4-4C3A-9B32-68D4286BD9C5*
G04*
G04*
G04 #@! TF.FilePolarity,Positive*
G04*
G01*
G75*
%ADD26C,0.00630*%
%ADD29C,0.01968*%
%ADD31C,0.01968*%
%ADD32C,0.02362*%
%ADD33C,0.01181*%
G36*
X34714Y108492D02*
X34790Y108428D01*
X34868Y108372D01*
X34947Y108324D01*
X35028Y108282D01*
X35111Y108249D01*
X35196Y108223D01*
X35282Y108204D01*
X35370Y108193D01*
X35460Y108189D01*
Y107559D01*
X35370Y107555D01*
X35282Y107544D01*
X35196Y107525D01*
X35111Y107499D01*
X35028Y107466D01*
X34947Y107424D01*
X34868Y107376D01*
X34790Y107320D01*
X34714Y107256D01*
X34640Y107185D01*
Y108563D01*
X34714Y108492D01*
D02*
G37*
G36*
X111023Y105570D02*
X111093Y105515D01*
X111168Y105467D01*
X111246Y105426D01*
X111328Y105391D01*
X111415Y105363D01*
X111505Y105341D01*
X111600Y105326D01*
X111698Y105317D01*
X111801Y105315D01*
X110827Y104341D01*
X110825Y104443D01*
X110816Y104542D01*
X110801Y104637D01*
X110779Y104727D01*
X110751Y104814D01*
X110716Y104896D01*
X110674Y104974D01*
X110627Y105049D01*
X110572Y105119D01*
X110511Y105185D01*
X110957Y105630D01*
X111023Y105570D01*
D02*
G37*
G36*
X34714Y105185D02*
X34790Y105121D01*
X34868Y105065D01*
X34947Y105017D01*
X35028Y104975D01*
X35111Y104942D01*
X35196Y104916D01*
X35282Y104897D01*
X35370Y104886D01*
X35460Y104882D01*
Y104252D01*
X35370Y104248D01*
X35282Y104237D01*
X35196Y104218D01*
X35111Y104192D01*
X35028Y104158D01*
X34947Y104117D01*
X34868Y104069D01*
X34790Y104013D01*
X34714Y103949D01*
X34640Y103878D01*
Y105256D01*
X34714Y105185D01*
D02*
G37*
G36*
X140528Y107110D02*
Y20330D01*
X139763Y20125D01*
X139622Y20055D01*
X139473Y20005D01*
X138494Y19439D01*
X138375Y19335D01*
X138244Y19248D01*
X137445Y18449D01*
X137357Y18317D01*
X137254Y18199D01*
X136688Y17220D01*
X136638Y17071D01*
X136568Y16930D01*
X136275Y15838D01*
X136265Y15680D01*
X136234Y15526D01*
Y14395D01*
X136265Y14241D01*
X136275Y14084D01*
X136568Y12992D01*
X136638Y12850D01*
X136688Y12701D01*
X137254Y11722D01*
X137357Y11604D01*
X137445Y11473D01*
X138244Y10673D01*
X138375Y10586D01*
X138494Y10482D01*
X139473Y9917D01*
X139622Y9866D01*
X139763Y9796D01*
X140528Y9591D01*
Y4121D01*
X140128Y3881D01*
X139707Y4055D01*
X139033D01*
X138411Y3797D01*
X137935Y3321D01*
X137677Y2699D01*
Y2025D01*
X137852Y1604D01*
X137611Y1204D01*
X4121D01*
X3881Y1604D01*
X4055Y2025D01*
Y2699D01*
X3797Y3321D01*
X3321Y3797D01*
X2699Y4055D01*
X2025D01*
X1604Y3881D01*
X1204Y4121D01*
Y9591D01*
X1969Y9796D01*
X2110Y9866D01*
X2259Y9917D01*
X3238Y10482D01*
X3357Y10586D01*
X3488Y10673D01*
X4287Y11473D01*
X4375Y11604D01*
X4479Y11722D01*
X5044Y12701D01*
X5094Y12850D01*
X5164Y12992D01*
X5457Y14084D01*
X5467Y14241D01*
X5498Y14395D01*
Y15526D01*
X5467Y15680D01*
X5457Y15838D01*
X5164Y16930D01*
X5094Y17071D01*
X5044Y17220D01*
X4479Y18199D01*
X4375Y18317D01*
X4287Y18449D01*
X3488Y19248D01*
X3357Y19335D01*
X3238Y19439D01*
X2259Y20005D01*
X2110Y20055D01*
X1969Y20125D01*
X1204Y20330D01*
Y26273D01*
X7843Y32911D01*
X7859Y32936D01*
X7883Y32954D01*
X8259Y33369D01*
X8305Y33445D01*
X8368Y33508D01*
X8989Y34438D01*
X9035Y34547D01*
X9101Y34646D01*
X9528Y35679D01*
X9551Y35795D01*
X9597Y35905D01*
X9712Y36484D01*
X10827Y37598D01*
Y44685D01*
X11173Y44885D01*
X11217Y44859D01*
X11868Y44685D01*
X12542D01*
X13193Y44859D01*
X13776Y45196D01*
X14253Y45673D01*
X14589Y46256D01*
X14764Y46907D01*
Y47581D01*
X14589Y48232D01*
X14253Y48815D01*
X13776Y49292D01*
X13193Y49629D01*
X12542Y49803D01*
X11868D01*
X11217Y49629D01*
X11173Y49604D01*
X10827Y49804D01*
Y92949D01*
X10927Y93005D01*
X11227Y93072D01*
X11639Y92659D01*
X12262Y92402D01*
X12935D01*
X13557Y92659D01*
X14034Y93135D01*
X14291Y93758D01*
Y94431D01*
X14034Y95053D01*
X13557Y95530D01*
X13272Y95648D01*
X13236Y95829D01*
X13266Y96083D01*
X13776Y96377D01*
X14253Y96854D01*
X14589Y97437D01*
X14764Y98088D01*
Y98762D01*
X14589Y99413D01*
X14253Y99997D01*
X13776Y100473D01*
X13266Y100767D01*
X13236Y101022D01*
X13272Y101203D01*
X13557Y101321D01*
X14034Y101797D01*
X14291Y102419D01*
Y103093D01*
X14034Y103715D01*
X13557Y104191D01*
X12935Y104449D01*
X12262D01*
X11639Y104191D01*
X11227Y103778D01*
X10927Y103846D01*
X10827Y103901D01*
Y109055D01*
X32201D01*
X32428Y108655D01*
X32244Y108211D01*
Y107537D01*
X32502Y106915D01*
X32978Y106439D01*
X33022Y106421D01*
Y106020D01*
X32978Y106002D01*
X32502Y105526D01*
X32244Y104904D01*
Y104230D01*
X32502Y103608D01*
X32978Y103132D01*
X33600Y102874D01*
X34274D01*
X34896Y103132D01*
X35086Y103322D01*
X35140Y103356D01*
X35197Y103411D01*
X35234Y103442D01*
X35268Y103467D01*
X35300Y103486D01*
X35328Y103500D01*
X35354Y103511D01*
X35379Y103519D01*
X35400Y103523D01*
X86827D01*
X87066Y103123D01*
X86890Y102699D01*
Y102025D01*
X87147Y101403D01*
X87624Y100927D01*
X88246Y100669D01*
X88919D01*
X89542Y100927D01*
X90018Y101403D01*
X90276Y102025D01*
Y102699D01*
X90100Y103123D01*
X90338Y103523D01*
X96969D01*
X102500Y97993D01*
Y91620D01*
X102495Y91600D01*
X102487Y91575D01*
X102477Y91549D01*
X102462Y91520D01*
X102443Y91489D01*
X102418Y91455D01*
X102387Y91417D01*
X102333Y91360D01*
X102299Y91307D01*
X102108Y91116D01*
X101850Y90494D01*
Y89821D01*
X102108Y89198D01*
X102477Y88830D01*
X102528Y88406D01*
X102512Y88319D01*
X94110Y79916D01*
X93679Y80051D01*
X93482Y80526D01*
X93006Y81002D01*
X92384Y81260D01*
X91711D01*
X91088Y81002D01*
X90612Y80526D01*
X90354Y79904D01*
Y79230D01*
X90612Y78608D01*
X91007Y78213D01*
X91056Y77972D01*
X91007Y77732D01*
X90612Y77337D01*
X90354Y76715D01*
Y76041D01*
X90612Y75419D01*
X91088Y74943D01*
X91180Y74905D01*
Y74505D01*
X91088Y74467D01*
X90834Y74212D01*
X90412Y74187D01*
X90349Y74250D01*
X89935Y74664D01*
X89313Y74921D01*
X88640D01*
X88017Y74664D01*
X87541Y74187D01*
X87283Y73565D01*
Y72892D01*
X87541Y72269D01*
X88017Y71793D01*
X88640Y71535D01*
X89313D01*
X89935Y71793D01*
X90189Y72047D01*
X90611Y72072D01*
X90675Y72010D01*
X91088Y71596D01*
X91283Y71516D01*
Y71083D01*
X91088Y71002D01*
X90612Y70526D01*
X90354Y69904D01*
Y69230D01*
X90612Y68608D01*
X91007Y68213D01*
X91056Y67972D01*
X91007Y67732D01*
X90898Y67623D01*
X90845Y67589D01*
X90788Y67534D01*
X90750Y67503D01*
X90716Y67478D01*
X90684Y67459D01*
X90656Y67444D01*
X90630Y67434D01*
X90605Y67426D01*
X90584Y67422D01*
X44291D01*
X25001Y86711D01*
X24989Y86729D01*
X24977Y86752D01*
X24966Y86778D01*
X24956Y86809D01*
X24948Y86844D01*
X24941Y86886D01*
X24937Y86935D01*
X24935Y87014D01*
X24921Y87075D01*
Y87345D01*
X24664Y87967D01*
X24187Y88443D01*
X23565Y88701D01*
X22892D01*
X22269Y88443D01*
X21793Y87967D01*
X21535Y87345D01*
Y86671D01*
X21793Y86049D01*
X22269Y85573D01*
X22892Y85315D01*
X23161D01*
X23223Y85301D01*
X23301Y85300D01*
X23350Y85295D01*
X23392Y85289D01*
X23427Y85280D01*
X23458Y85270D01*
X23484Y85259D01*
X23507Y85247D01*
X23525Y85235D01*
X43120Y65640D01*
X43120Y65640D01*
X43459Y65414D01*
X43858Y65334D01*
X90584D01*
X90605Y65330D01*
X90630Y65322D01*
X90656Y65311D01*
X90685Y65297D01*
X90716Y65278D01*
X90750Y65253D01*
X90788Y65222D01*
X90845Y65167D01*
X90898Y65133D01*
X91088Y64943D01*
X91180Y64905D01*
Y64505D01*
X91088Y64467D01*
X90612Y63990D01*
X90354Y63368D01*
Y62695D01*
X90612Y62072D01*
X91088Y61596D01*
X91283Y61516D01*
Y61083D01*
X91088Y61002D01*
X90612Y60526D01*
X90354Y59904D01*
Y59230D01*
X90612Y58608D01*
X91088Y58132D01*
X91711Y57874D01*
X92384D01*
X93006Y58132D01*
X93482Y58608D01*
X93740Y59230D01*
Y59904D01*
X93482Y60526D01*
X93006Y61002D01*
X92812Y61083D01*
Y61516D01*
X93006Y61596D01*
X93482Y62072D01*
X93740Y62695D01*
Y63368D01*
X93482Y63990D01*
X93006Y64467D01*
X92914Y64505D01*
Y64905D01*
X93006Y64943D01*
X93482Y65419D01*
X93740Y66041D01*
Y66715D01*
X93482Y67337D01*
X93087Y67732D01*
X93038Y67972D01*
X93087Y68213D01*
X93482Y68608D01*
X93740Y69230D01*
Y69904D01*
X93482Y70526D01*
X93006Y71002D01*
X92812Y71083D01*
Y71516D01*
X93006Y71596D01*
X93482Y72072D01*
X93740Y72695D01*
Y73368D01*
X93482Y73990D01*
X93006Y74467D01*
X92914Y74505D01*
Y74905D01*
X93006Y74943D01*
X93482Y75419D01*
X93740Y76041D01*
Y76310D01*
X93754Y76372D01*
X93756Y76451D01*
X93760Y76500D01*
X93767Y76542D01*
X93775Y76577D01*
X93785Y76607D01*
X93796Y76634D01*
X93808Y76657D01*
X93820Y76674D01*
X97460Y80315D01*
X114961D01*
X116142Y81496D01*
Y83071D01*
X114961Y84252D01*
X113779D01*
X113110Y84921D01*
Y89707D01*
X112853Y90329D01*
X112376Y90805D01*
X111754Y91063D01*
X111485D01*
X111423Y91077D01*
X111345Y91078D01*
X111296Y91083D01*
X111254Y91089D01*
X111218Y91098D01*
X111188Y91108D01*
X111162Y91119D01*
X111139Y91131D01*
X111121Y91143D01*
X110581Y91683D01*
X110242Y91909D01*
X109843Y91989D01*
X109843Y91988D01*
X107480D01*
X107480Y91989D01*
X107081Y91909D01*
X106742Y91683D01*
X106742Y91683D01*
X105606Y90546D01*
X105164Y90670D01*
X104979Y91116D01*
X104788Y91307D01*
X104754Y91360D01*
X104700Y91417D01*
X104668Y91455D01*
X104643Y91489D01*
X104624Y91520D01*
X104610Y91549D01*
X104599Y91575D01*
X104592Y91600D01*
X104587Y91620D01*
Y98425D01*
X104587Y98425D01*
X104508Y98825D01*
X104281Y99163D01*
X104281Y99163D01*
X98140Y105305D01*
X97801Y105531D01*
X97402Y105611D01*
X97401Y105611D01*
X35400D01*
X35379Y105615D01*
X35354Y105623D01*
X35328Y105633D01*
X35300Y105648D01*
X35269Y105667D01*
X35234Y105692D01*
X35197Y105723D01*
X35140Y105778D01*
X35086Y105812D01*
X34896Y106002D01*
X34852Y106020D01*
Y106421D01*
X34896Y106439D01*
X35086Y106629D01*
X35140Y106663D01*
X35197Y106718D01*
X35234Y106749D01*
X35268Y106774D01*
X35300Y106793D01*
X35328Y106807D01*
X35354Y106818D01*
X35379Y106826D01*
X35400Y106830D01*
X107835D01*
X110038Y104627D01*
X110050Y104609D01*
X110062Y104586D01*
X110073Y104560D01*
X110083Y104530D01*
X110092Y104494D01*
X110098Y104453D01*
X110103Y104403D01*
X110104Y104325D01*
X110118Y104263D01*
Y103994D01*
X110376Y103372D01*
X110852Y102895D01*
X111474Y102638D01*
X112148D01*
X112770Y102895D01*
X113246Y103372D01*
X113504Y103994D01*
Y104667D01*
X113246Y105290D01*
X112770Y105766D01*
X112148Y106024D01*
X111878D01*
X111817Y106037D01*
X111738Y106039D01*
X111689Y106043D01*
X111647Y106050D01*
X111612Y106059D01*
X111582Y106069D01*
X111556Y106079D01*
X111532Y106092D01*
X111514Y106103D01*
X109006Y108612D01*
X108941Y108655D01*
X109063Y109055D01*
X138583D01*
X140528Y107110D01*
D02*
G37*
G36*
X103862Y91591D02*
X103873Y91503D01*
X103892Y91416D01*
X103918Y91332D01*
X103952Y91249D01*
X103993Y91168D01*
X104042Y91088D01*
X104098Y91010D01*
X104161Y90935D01*
X104232Y90860D01*
X102854D01*
X102925Y90935D01*
X102989Y91010D01*
X103045Y91088D01*
X103094Y91168D01*
X103135Y91249D01*
X103168Y91332D01*
X103195Y91416D01*
X103213Y91503D01*
X103225Y91591D01*
X103228Y91681D01*
X103858D01*
X103862Y91591D01*
D02*
G37*
G36*
X110629Y90609D02*
X110699Y90554D01*
X110774Y90507D01*
X110852Y90465D01*
X110934Y90430D01*
X111021Y90402D01*
X111111Y90381D01*
X111206Y90365D01*
X111305Y90356D01*
X111407Y90354D01*
X110433Y89380D01*
X110431Y89483D01*
X110422Y89581D01*
X110407Y89676D01*
X110385Y89766D01*
X110357Y89853D01*
X110322Y89935D01*
X110281Y90014D01*
X110233Y90088D01*
X110178Y90158D01*
X110118Y90224D01*
X110563Y90670D01*
X110629Y90609D01*
D02*
G37*
G36*
X24215Y86895D02*
X24224Y86797D01*
X24239Y86702D01*
X24261Y86611D01*
X24289Y86525D01*
X24324Y86443D01*
X24365Y86364D01*
X24413Y86290D01*
X24467Y86220D01*
X24528Y86154D01*
X24083Y85708D01*
X24016Y85769D01*
X23946Y85824D01*
X23872Y85871D01*
X23794Y85913D01*
X23711Y85947D01*
X23625Y85976D01*
X23534Y85997D01*
X23439Y86013D01*
X23341Y86022D01*
X23238Y86024D01*
X24213Y86998D01*
X24215Y86895D01*
D02*
G37*
G36*
X93347Y77232D02*
X93286Y77166D01*
X93232Y77096D01*
X93184Y77021D01*
X93142Y76943D01*
X93108Y76861D01*
X93079Y76774D01*
X93058Y76684D01*
X93042Y76589D01*
X93034Y76490D01*
X93031Y76388D01*
X92057Y77362D01*
X92160Y77364D01*
X92258Y77373D01*
X92353Y77388D01*
X92444Y77410D01*
X92530Y77438D01*
X92612Y77473D01*
X92691Y77514D01*
X92765Y77562D01*
X92835Y77617D01*
X92901Y77678D01*
X93347Y77232D01*
D02*
G37*
G36*
X91344Y65689D02*
X91270Y65760D01*
X91194Y65824D01*
X91117Y65880D01*
X91037Y65928D01*
X90956Y65970D01*
X90873Y66003D01*
X90789Y66029D01*
X90702Y66048D01*
X90614Y66059D01*
X90524Y66063D01*
Y66693D01*
X90614Y66697D01*
X90702Y66708D01*
X90789Y66727D01*
X90873Y66753D01*
X90956Y66786D01*
X91037Y66828D01*
X91117Y66876D01*
X91194Y66932D01*
X91270Y66996D01*
X91344Y67067D01*
Y65689D01*
D02*
G37*
%LPC*%
G36*
X117266Y107205D02*
X116592D01*
X115970Y106947D01*
X115494Y106471D01*
X115236Y105849D01*
Y105175D01*
X115494Y104553D01*
X115970Y104077D01*
X116592Y103819D01*
X117266D01*
X117888Y104077D01*
X118364Y104553D01*
X118622Y105175D01*
Y105849D01*
X118364Y106471D01*
X117888Y106947D01*
X117266Y107205D01*
D02*
G37*
G36*
X127896Y106024D02*
X127222D01*
X126600Y105766D01*
X126124Y105290D01*
X125866Y104667D01*
Y103994D01*
X126124Y103372D01*
X126600Y102895D01*
X127222Y102638D01*
X127896D01*
X128518Y102895D01*
X128994Y103372D01*
X129252Y103994D01*
Y104667D01*
X128994Y105290D01*
X128518Y105766D01*
X127896Y106024D01*
D02*
G37*
G36*
X115297Y102874D02*
X114624D01*
X114002Y102616D01*
X113525Y102140D01*
X113379Y101786D01*
X112907Y101692D01*
X112770Y101829D01*
X112148Y102087D01*
X111474D01*
X110852Y101829D01*
X110376Y101353D01*
X110118Y100730D01*
Y100057D01*
X110376Y99435D01*
X110852Y98958D01*
X111474Y98701D01*
X112148D01*
X112770Y98958D01*
X113246Y99435D01*
X113393Y99789D01*
X113865Y99883D01*
X114002Y99746D01*
X114624Y99488D01*
X115297D01*
X115920Y99746D01*
X116396Y100222D01*
X116654Y100844D01*
Y101518D01*
X116396Y102140D01*
X115920Y102616D01*
X115297Y102874D01*
D02*
G37*
G36*
X92384Y101260D02*
X91711D01*
X91088Y101002D01*
X90612Y100526D01*
X90354Y99904D01*
Y99230D01*
X90612Y98608D01*
X91088Y98132D01*
X91711Y97874D01*
X92384D01*
X93006Y98132D01*
X93482Y98608D01*
X93740Y99230D01*
Y99904D01*
X93482Y100526D01*
X93006Y101002D01*
X92384Y101260D01*
D02*
G37*
G36*
X34274D02*
X33600D01*
X32978Y101002D01*
X32502Y100526D01*
X32244Y99904D01*
Y99230D01*
X32502Y98608D01*
X32978Y98132D01*
X33600Y97874D01*
X34274D01*
X34896Y98132D01*
X35372Y98608D01*
X35630Y99230D01*
Y99904D01*
X35372Y100526D01*
X34896Y101002D01*
X34274Y101260D01*
D02*
G37*
G36*
X19628Y100984D02*
X18954D01*
X18304Y100810D01*
X17720Y100473D01*
X17244Y99997D01*
X16907Y99413D01*
X16732Y98762D01*
Y98088D01*
X16907Y97437D01*
X17244Y96854D01*
X17720Y96377D01*
X18304Y96040D01*
X18954Y95866D01*
X19628D01*
X20279Y96040D01*
X20863Y96377D01*
X21339Y96854D01*
X21676Y97437D01*
X21850Y98088D01*
Y98762D01*
X21676Y99413D01*
X21339Y99997D01*
X20863Y100473D01*
X20279Y100810D01*
X19628Y100984D01*
D02*
G37*
G36*
X92384Y96260D02*
X91711D01*
X91088Y96002D01*
X90612Y95526D01*
X90354Y94904D01*
Y94230D01*
X90612Y93608D01*
X91088Y93132D01*
X91711Y92874D01*
X92384D01*
X93006Y93132D01*
X93482Y93608D01*
X93740Y94230D01*
Y94904D01*
X93482Y95526D01*
X93006Y96002D01*
X92384Y96260D01*
D02*
G37*
G36*
X34274D02*
X33600D01*
X32978Y96002D01*
X32502Y95526D01*
X32244Y94904D01*
Y94230D01*
X32502Y93608D01*
X32978Y93132D01*
X33600Y92874D01*
X34274D01*
X34896Y93132D01*
X35372Y93608D01*
X35630Y94230D01*
Y94904D01*
X35372Y95526D01*
X34896Y96002D01*
X34274Y96260D01*
D02*
G37*
G36*
X72069Y91850D02*
X71238D01*
X70472Y91533D01*
X69885Y90946D01*
X69567Y90179D01*
Y89422D01*
X69424Y89238D01*
X69239Y89095D01*
X68556D01*
X68371Y89238D01*
X68228Y89422D01*
Y90179D01*
X67911Y90946D01*
X67324Y91533D01*
X66557Y91850D01*
X65727D01*
X64960Y91533D01*
X64373Y90946D01*
X64055Y90179D01*
Y89422D01*
X63912Y89238D01*
X63727Y89095D01*
X62971D01*
X62204Y88777D01*
X61617Y88190D01*
X61299Y87423D01*
Y86593D01*
X61617Y85826D01*
X62204Y85239D01*
X62971Y84921D01*
X63727D01*
X63912Y84778D01*
X64055Y84594D01*
Y83910D01*
X63912Y83726D01*
X63727Y83583D01*
X62971D01*
X62204Y83265D01*
X61617Y82678D01*
X61299Y81911D01*
Y81081D01*
X61617Y80314D01*
X62204Y79727D01*
X62971Y79409D01*
X63727D01*
X63912Y79266D01*
X64055Y79082D01*
Y78325D01*
X64373Y77558D01*
X64960Y76971D01*
X65727Y76653D01*
X66557D01*
X67324Y76971D01*
X67911Y77558D01*
X68228Y78325D01*
Y79082D01*
X68371Y79266D01*
X68556Y79409D01*
X69239D01*
X69424Y79266D01*
X69567Y79082D01*
Y78325D01*
X69885Y77558D01*
X70472Y76971D01*
X71238Y76653D01*
X72069D01*
X72835Y76971D01*
X73422Y77558D01*
X73740Y78325D01*
Y79082D01*
X73883Y79266D01*
X74068Y79409D01*
X74825D01*
X75591Y79727D01*
X76178Y80314D01*
X76496Y81081D01*
Y81911D01*
X76178Y82678D01*
X75591Y83265D01*
X74825Y83583D01*
X74068D01*
X73883Y83726D01*
X73740Y83910D01*
Y84594D01*
X73883Y84778D01*
X74068Y84921D01*
X74825D01*
X75591Y85239D01*
X76178Y85826D01*
X76496Y86593D01*
Y87423D01*
X76178Y88190D01*
X75591Y88777D01*
X74825Y89095D01*
X74068D01*
X73883Y89238D01*
X73740Y89422D01*
Y90179D01*
X73422Y90946D01*
X72835Y91533D01*
X72069Y91850D01*
D02*
G37*
G36*
X118841Y91457D02*
X118167D01*
X117545Y91199D01*
X117069Y90723D01*
X116811Y90101D01*
Y89427D01*
X117069Y88805D01*
X117545Y88329D01*
X118167Y88071D01*
X118841D01*
X119463Y88329D01*
X119939Y88805D01*
X120197Y89427D01*
Y90101D01*
X119939Y90723D01*
X119463Y91199D01*
X118841Y91457D01*
D02*
G37*
G36*
X92384Y91260D02*
X91711D01*
X91088Y91002D01*
X90612Y90526D01*
X90354Y89904D01*
Y89230D01*
X90612Y88608D01*
X91088Y88132D01*
X91711Y87874D01*
X92384D01*
X93006Y88132D01*
X93482Y88608D01*
X93740Y89230D01*
Y89904D01*
X93482Y90526D01*
X93006Y91002D01*
X92384Y91260D01*
D02*
G37*
G36*
Y86260D02*
X91711D01*
X91088Y86002D01*
X90612Y85526D01*
X90354Y84904D01*
Y84230D01*
X90612Y83608D01*
X91088Y83132D01*
X91711Y82874D01*
X92384D01*
X93006Y83132D01*
X93482Y83608D01*
X93740Y84230D01*
Y84904D01*
X93482Y85526D01*
X93006Y86002D01*
X92384Y86260D01*
D02*
G37*
G36*
X127896Y83976D02*
X127222D01*
X126600Y83719D01*
X126124Y83242D01*
X125866Y82620D01*
Y81947D01*
X126124Y81324D01*
X126600Y80848D01*
X127222Y80590D01*
X127896D01*
X128518Y80848D01*
X128994Y81324D01*
X129252Y81947D01*
Y82620D01*
X128994Y83242D01*
X128518Y83719D01*
X127896Y83976D01*
D02*
G37*
G36*
X20022Y74528D02*
X19348D01*
X18726Y74270D01*
X18250Y73794D01*
X17992Y73171D01*
Y72498D01*
X18250Y71876D01*
X18726Y71399D01*
X19348Y71142D01*
X20022D01*
X20644Y71399D01*
X21120Y71876D01*
X21378Y72498D01*
Y73171D01*
X21120Y73794D01*
X20644Y74270D01*
X20022Y74528D01*
D02*
G37*
G36*
X111360Y71772D02*
X110687D01*
X110065Y71514D01*
X109588Y71038D01*
X109331Y70416D01*
Y69742D01*
X109588Y69120D01*
X110065Y68644D01*
X110687Y68386D01*
X111360D01*
X111983Y68644D01*
X112459Y69120D01*
X112716Y69742D01*
Y70416D01*
X112459Y71038D01*
X111983Y71514D01*
X111360Y71772D01*
D02*
G37*
G36*
X34274Y71260D02*
X33600D01*
X32978Y71002D01*
X32502Y70526D01*
X32244Y69904D01*
Y69230D01*
X32502Y68608D01*
X32978Y68132D01*
X33600Y67874D01*
X34274D01*
X34896Y68132D01*
X35372Y68608D01*
X35630Y69230D01*
Y69904D01*
X35372Y70526D01*
X34896Y71002D01*
X34274Y71260D01*
D02*
G37*
G36*
X20022Y69803D02*
X19348D01*
X18726Y69545D01*
X18250Y69069D01*
X17992Y68447D01*
Y67773D01*
X18250Y67151D01*
X18726Y66675D01*
X19348Y66417D01*
X20022D01*
X20644Y66675D01*
X21120Y67151D01*
X21378Y67773D01*
Y68447D01*
X21120Y69069D01*
X20644Y69545D01*
X20022Y69803D01*
D02*
G37*
G36*
X136557Y69016D02*
X135884D01*
X135261Y68758D01*
X134785Y68282D01*
X134528Y67660D01*
Y66986D01*
X134785Y66364D01*
X135261Y65888D01*
X135884Y65630D01*
X136557D01*
X137179Y65888D01*
X137656Y66364D01*
X137913Y66986D01*
Y67660D01*
X137656Y68282D01*
X137179Y68758D01*
X136557Y69016D01*
D02*
G37*
G36*
X128683D02*
X128010D01*
X127387Y68758D01*
X126911Y68282D01*
X126654Y67660D01*
Y66986D01*
X126911Y66364D01*
X127387Y65888D01*
X128010Y65630D01*
X128683D01*
X129305Y65888D01*
X129782Y66364D01*
X130039Y66986D01*
Y67660D01*
X129782Y68282D01*
X129305Y68758D01*
X128683Y69016D01*
D02*
G37*
G36*
X136557Y65079D02*
X135884D01*
X135261Y64821D01*
X134785Y64345D01*
X134528Y63723D01*
Y63049D01*
X134785Y62427D01*
X135261Y61951D01*
X135884Y61693D01*
X136557D01*
X137179Y61951D01*
X137656Y62427D01*
X137913Y63049D01*
Y63723D01*
X137656Y64345D01*
X137179Y64821D01*
X136557Y65079D01*
D02*
G37*
G36*
X128683D02*
X128010D01*
X127387Y64821D01*
X126911Y64345D01*
X126654Y63723D01*
Y63049D01*
X126911Y62427D01*
X127387Y61951D01*
X128010Y61693D01*
X128683D01*
X129305Y61951D01*
X129782Y62427D01*
X130039Y63049D01*
Y63723D01*
X129782Y64345D01*
X129305Y64821D01*
X128683Y65079D01*
D02*
G37*
G36*
X133014Y98150D02*
X132340D01*
X131718Y97892D01*
X131242Y97416D01*
X130984Y96793D01*
Y96120D01*
X131242Y95498D01*
X131432Y95307D01*
X131466Y95254D01*
X131521Y95197D01*
X131552Y95160D01*
X131577Y95125D01*
X131596Y95094D01*
X131611Y95066D01*
X131621Y95039D01*
X131629Y95014D01*
X131633Y94994D01*
Y61142D01*
X122853D01*
X121476Y62519D01*
X121241Y62675D01*
X120965Y62730D01*
X116437D01*
X116161Y62675D01*
X115926Y62519D01*
X114056Y60649D01*
X112549Y62155D01*
X112210Y62382D01*
X111811Y62461D01*
X111811Y62461D01*
X109909D01*
X109743Y62861D01*
X110097Y63214D01*
X110354Y63836D01*
Y64510D01*
X110097Y65132D01*
X109620Y65608D01*
X108998Y65866D01*
X108325D01*
X107703Y65608D01*
X107335Y65241D01*
X107087Y65171D01*
X106838Y65241D01*
X106471Y65608D01*
X105849Y65866D01*
X105175D01*
X104553Y65608D01*
X104077Y65132D01*
X103819Y64510D01*
Y63836D01*
X104077Y63214D01*
X104553Y62738D01*
X105175Y62480D01*
X105729D01*
X107530Y60679D01*
X107530Y60679D01*
X107868Y60453D01*
X108268Y60374D01*
X108268Y60374D01*
X111379D01*
X113254Y58499D01*
Y57776D01*
X113309Y57499D01*
X113465Y57265D01*
X113958Y56773D01*
X114192Y56616D01*
X114469Y56561D01*
X117029D01*
X119378Y54213D01*
X120356D01*
X122014Y52555D01*
Y49213D01*
Y46210D01*
X121929Y46006D01*
Y45333D01*
X122187Y44710D01*
X122663Y44234D01*
X123285Y43976D01*
X123959D01*
X124581Y44234D01*
X125057Y44710D01*
X125231Y45130D01*
X125684Y45243D01*
X127147Y43780D01*
X127381Y43624D01*
X127657Y43569D01*
X131890D01*
X132166Y43624D01*
X132401Y43780D01*
X132991Y44371D01*
X133148Y44605D01*
X133203Y44882D01*
Y46752D01*
X133148Y47028D01*
X132991Y47263D01*
X131810Y48444D01*
X133415Y50049D01*
X133415Y50049D01*
X133641Y50388D01*
X133721Y50787D01*
X133721Y50788D01*
Y94994D01*
X133725Y95014D01*
X133733Y95039D01*
X133744Y95066D01*
X133758Y95094D01*
X133777Y95125D01*
X133802Y95160D01*
X133834Y95197D01*
X133888Y95254D01*
X133922Y95307D01*
X134112Y95498D01*
X134370Y96120D01*
Y96793D01*
X134112Y97416D01*
X133636Y97892D01*
X133014Y98150D01*
D02*
G37*
G36*
X136557Y61142D02*
X135884D01*
X135261Y60884D01*
X134785Y60408D01*
X134528Y59786D01*
Y59112D01*
X134785Y58490D01*
X135261Y58014D01*
X135884Y57756D01*
X136557D01*
X137179Y58014D01*
X137656Y58490D01*
X137913Y59112D01*
Y59786D01*
X137656Y60408D01*
X137179Y60884D01*
X136557Y61142D01*
D02*
G37*
G36*
X108998Y59567D02*
X108325D01*
X107703Y59309D01*
X107226Y58833D01*
X106968Y58211D01*
Y57537D01*
X107226Y56915D01*
X107703Y56439D01*
X108325Y56181D01*
X108998D01*
X109620Y56439D01*
X110097Y56915D01*
X110354Y57537D01*
Y58211D01*
X110097Y58833D01*
X109620Y59309D01*
X108998Y59567D01*
D02*
G37*
G36*
X22384Y56811D02*
X21711D01*
X21088Y56553D01*
X20612Y56077D01*
X20354Y55455D01*
Y54781D01*
X20612Y54159D01*
X21088Y53683D01*
X21711Y53425D01*
X22119D01*
X22285Y53025D01*
X22187Y52928D01*
X21929Y52305D01*
Y51632D01*
X22187Y51010D01*
X22663Y50533D01*
X23285Y50276D01*
X23959D01*
X24581Y50533D01*
X25057Y51010D01*
X25315Y51632D01*
Y52305D01*
X25057Y52928D01*
X24581Y53404D01*
X23959Y53661D01*
X23550D01*
X23385Y54061D01*
X23482Y54159D01*
X23740Y54781D01*
Y55455D01*
X23482Y56077D01*
X23006Y56553D01*
X22384Y56811D01*
D02*
G37*
G36*
X33801Y51299D02*
X33128D01*
X32506Y51042D01*
X32029Y50565D01*
X31772Y49943D01*
Y49270D01*
X32029Y48647D01*
X32506Y48171D01*
X33128Y47913D01*
X33801D01*
X34424Y48171D01*
X34900Y48647D01*
X35157Y49270D01*
Y49943D01*
X34900Y50565D01*
X34424Y51042D01*
X33801Y51299D01*
D02*
G37*
G36*
X138132Y48937D02*
X137459D01*
X136836Y48679D01*
X136360Y48203D01*
X136102Y47581D01*
Y46907D01*
X136360Y46285D01*
X136836Y45809D01*
X137459Y45551D01*
X138132D01*
X138754Y45809D01*
X139231Y46285D01*
X139488Y46907D01*
Y47581D01*
X139231Y48203D01*
X138754Y48679D01*
X138132Y48937D01*
D02*
G37*
G36*
X19628Y49803D02*
X18954D01*
X18304Y49629D01*
X17720Y49292D01*
X17244Y48815D01*
X16907Y48232D01*
X16732Y47581D01*
Y46907D01*
X16907Y46256D01*
X17244Y45673D01*
X17720Y45196D01*
X18304Y44859D01*
X18954Y44685D01*
X19628D01*
X20279Y44859D01*
X20863Y45196D01*
X21339Y45673D01*
X21676Y46256D01*
X21711Y46388D01*
X22133Y46416D01*
X22187Y46285D01*
X22663Y45809D01*
X23285Y45551D01*
X23959D01*
X24581Y45809D01*
X25057Y46285D01*
X25315Y46907D01*
Y47581D01*
X25057Y48203D01*
X24581Y48679D01*
X23959Y48937D01*
X23285D01*
X22663Y48679D01*
X22187Y48203D01*
X22133Y48072D01*
X21711Y48100D01*
X21676Y48232D01*
X21339Y48815D01*
X20863Y49292D01*
X20279Y49629D01*
X19628Y49803D01*
D02*
G37*
G36*
X30652Y46181D02*
X29978D01*
X29356Y45923D01*
X28880Y45447D01*
X28760Y45158D01*
X28327D01*
X28207Y45447D01*
X27731Y45923D01*
X27108Y46181D01*
X26435D01*
X25813Y45923D01*
X25337Y45447D01*
X25079Y44825D01*
Y44151D01*
X25337Y43529D01*
X25813Y43053D01*
X26435Y42795D01*
X27108D01*
X27731Y43053D01*
X28207Y43529D01*
X28327Y43819D01*
X28760D01*
X28880Y43529D01*
X29356Y43053D01*
X29978Y42795D01*
X30652D01*
X31274Y43053D01*
X31750Y43529D01*
X32008Y44151D01*
Y44825D01*
X31750Y45447D01*
X31274Y45923D01*
X30652Y46181D01*
D02*
G37*
G36*
X119628Y52874D02*
X118955D01*
X118332Y52616D01*
X118142Y52426D01*
X118089Y52392D01*
X118032Y52337D01*
X117994Y52306D01*
X117960Y52281D01*
X117929Y52262D01*
X117900Y52248D01*
X117874Y52237D01*
X117849Y52229D01*
X117828Y52225D01*
X51476D01*
X51077Y52145D01*
X50738Y51919D01*
X50738Y51919D01*
X40749Y41930D01*
X40731Y41919D01*
X40708Y41906D01*
X40682Y41895D01*
X40652Y41885D01*
X40616Y41877D01*
X40574Y41870D01*
X40526Y41866D01*
X40447Y41864D01*
X40385Y41850D01*
X40116D01*
X39494Y41593D01*
X39018Y41116D01*
X38760Y40494D01*
Y39821D01*
X39018Y39198D01*
X39494Y38722D01*
X40116Y38465D01*
X45809D01*
X46431Y38722D01*
X46908Y39198D01*
X47165Y39821D01*
Y40090D01*
X47179Y40152D01*
X47181Y40230D01*
X47185Y40279D01*
X47192Y40321D01*
X47200Y40357D01*
X47210Y40387D01*
X47221Y40413D01*
X47234Y40436D01*
X47245Y40454D01*
X53779Y46988D01*
X101457D01*
Y44151D01*
X101714Y43529D01*
X102191Y43053D01*
X102813Y42795D01*
X103486D01*
X104109Y43053D01*
X104299Y43244D01*
X104352Y43277D01*
X104409Y43332D01*
X104447Y43363D01*
X104481Y43388D01*
X104512Y43407D01*
X104541Y43422D01*
X104567Y43432D01*
X104592Y43440D01*
X104613Y43444D01*
X117828D01*
X117849Y43440D01*
X117874Y43432D01*
X117900Y43422D01*
X117929Y43407D01*
X117960Y43388D01*
X117994Y43363D01*
X118032Y43332D01*
X118089Y43277D01*
X118142Y43244D01*
X118332Y43053D01*
X118955Y42795D01*
X119628D01*
X120250Y43053D01*
X120727Y43529D01*
X120984Y44151D01*
Y51518D01*
X120727Y52140D01*
X120250Y52616D01*
X119628Y52874D01*
D02*
G37*
G36*
X138132Y45000D02*
X137459D01*
X136836Y44742D01*
X136360Y44266D01*
X136102Y43644D01*
Y42970D01*
X136360Y42348D01*
X136836Y41872D01*
X137459Y41614D01*
X138132D01*
X138754Y41872D01*
X139231Y42348D01*
X139488Y42970D01*
Y43644D01*
X139231Y44266D01*
X138754Y44742D01*
X138132Y45000D01*
D02*
G37*
G36*
X94431Y44213D02*
X93758D01*
X93135Y43955D01*
X92659Y43479D01*
X92402Y42856D01*
Y42183D01*
X92659Y41561D01*
X93135Y41085D01*
X93758Y40827D01*
X94431D01*
X95053Y41085D01*
X95530Y41561D01*
X95787Y42183D01*
Y42856D01*
X95530Y43479D01*
X95053Y43955D01*
X94431Y44213D01*
D02*
G37*
G36*
X131045Y41850D02*
X130372D01*
X129750Y41593D01*
X129273Y41116D01*
X129016Y40494D01*
Y39821D01*
X129273Y39198D01*
X129750Y38722D01*
X130372Y38465D01*
X131045D01*
X131668Y38722D01*
X132144Y39198D01*
X132402Y39821D01*
Y40494D01*
X132144Y41116D01*
X131668Y41593D01*
X131045Y41850D01*
D02*
G37*
G36*
X111754Y42638D02*
X111081D01*
X110458Y42380D01*
X109982Y41904D01*
X109724Y41282D01*
Y40608D01*
X109982Y39986D01*
X110458Y39510D01*
X110748Y39390D01*
Y38957D01*
X110458Y38837D01*
X109982Y38361D01*
X109724Y37738D01*
Y37065D01*
X109982Y36443D01*
X110458Y35966D01*
X111081Y35709D01*
X111754D01*
X112376Y35966D01*
X112853Y36443D01*
X113110Y37065D01*
Y37692D01*
X113110Y37738D01*
X113416Y38045D01*
X124506D01*
X124523Y38044D01*
X124632Y37935D01*
X125254Y37677D01*
X125927D01*
X126549Y37935D01*
X127026Y38411D01*
X127284Y39033D01*
Y39707D01*
X127026Y40329D01*
X126549Y40805D01*
X125927Y41063D01*
X125254D01*
X124632Y40805D01*
X124526Y40700D01*
X124454Y40695D01*
X113541D01*
X113121Y41115D01*
X113110Y41128D01*
Y41282D01*
X112853Y41904D01*
X112376Y42380D01*
X111754Y42638D01*
D02*
G37*
G36*
X22384Y41063D02*
X21711D01*
X21088Y40805D01*
X20612Y40329D01*
X20354Y39707D01*
Y39033D01*
X20612Y38411D01*
X21088Y37935D01*
X21711Y37677D01*
X22384D01*
X23006Y37935D01*
X23482Y38411D01*
X23740Y39033D01*
Y39707D01*
X23482Y40329D01*
X23006Y40805D01*
X22384Y41063D01*
D02*
G37*
G36*
X60770Y40787D02*
X60096D01*
X59474Y40530D01*
X58998Y40053D01*
X58740Y39431D01*
Y38758D01*
X58998Y38135D01*
X59474Y37659D01*
X60096Y37402D01*
X60770D01*
X61392Y37659D01*
X61868Y38135D01*
X62126Y38758D01*
Y39431D01*
X61868Y40053D01*
X61392Y40530D01*
X60770Y40787D01*
D02*
G37*
G36*
X55770D02*
X55096D01*
X54474Y40530D01*
X53998Y40053D01*
X53740Y39431D01*
Y38758D01*
X53998Y38135D01*
X54474Y37659D01*
X55096Y37402D01*
X55770D01*
X56392Y37659D01*
X56868Y38135D01*
X57126Y38758D01*
Y39431D01*
X56868Y40053D01*
X56392Y40530D01*
X55770Y40787D01*
D02*
G37*
G36*
X66872Y40669D02*
X66199D01*
X65576Y40412D01*
X65100Y39935D01*
X64842Y39313D01*
Y38640D01*
X65100Y38017D01*
X65576Y37541D01*
X66199Y37284D01*
X66872D01*
X67494Y37541D01*
X67971Y38017D01*
X68228Y38640D01*
Y39313D01*
X67971Y39935D01*
X67494Y40412D01*
X66872Y40669D01*
D02*
G37*
G36*
X97187Y39488D02*
X96514D01*
X95891Y39230D01*
X95415Y38754D01*
X95157Y38132D01*
Y37459D01*
X95415Y36836D01*
X95891Y36360D01*
X96514Y36102D01*
X97187D01*
X97809Y36360D01*
X98286Y36836D01*
X98543Y37459D01*
Y38132D01*
X98286Y38754D01*
X97809Y39230D01*
X97187Y39488D01*
D02*
G37*
G36*
X70809Y38307D02*
X70136D01*
X69513Y38049D01*
X69037Y37573D01*
X68779Y36951D01*
Y36277D01*
X69037Y35655D01*
X69513Y35179D01*
X70136Y34921D01*
X70809D01*
X71431Y35179D01*
X71908Y35655D01*
X72165Y36277D01*
Y36951D01*
X71908Y37573D01*
X71431Y38049D01*
X70809Y38307D01*
D02*
G37*
G36*
X50770Y40787D02*
X50096D01*
X49474Y40530D01*
X48998Y40053D01*
X48740Y39431D01*
Y38758D01*
X48998Y38135D01*
X49474Y37659D01*
X49884Y37490D01*
X49992Y37032D01*
X49746Y36786D01*
X49488Y36163D01*
Y35490D01*
X49746Y34868D01*
X50222Y34392D01*
X50844Y34134D01*
X51518D01*
X52140Y34392D01*
X52616Y34868D01*
X52874Y35490D01*
Y36163D01*
X52616Y36786D01*
X52140Y37262D01*
X51730Y37432D01*
X51622Y37889D01*
X51868Y38135D01*
X52126Y38758D01*
Y39431D01*
X51868Y40053D01*
X51392Y40530D01*
X50770Y40787D01*
D02*
G37*
G36*
X30652Y36732D02*
X29978D01*
X29356Y36474D01*
X28880Y35998D01*
X28622Y35376D01*
Y34703D01*
X28880Y34080D01*
X29356Y33604D01*
X29978Y33347D01*
X30652D01*
X31274Y33604D01*
X31750Y34080D01*
X32008Y34703D01*
Y35376D01*
X31750Y35998D01*
X31274Y36474D01*
X30652Y36732D01*
D02*
G37*
G36*
X94431Y35157D02*
X93758D01*
X93135Y34900D01*
X92659Y34424D01*
X92402Y33801D01*
Y33128D01*
X92659Y32506D01*
X93135Y32029D01*
X93758Y31772D01*
X94431D01*
X95053Y32029D01*
X95530Y32506D01*
X95787Y33128D01*
Y33801D01*
X95530Y34424D01*
X95053Y34900D01*
X94431Y35157D01*
D02*
G37*
G36*
X127896Y34764D02*
X127222D01*
X126600Y34506D01*
X126124Y34030D01*
X125866Y33408D01*
Y32734D01*
X126124Y32112D01*
X126600Y31636D01*
X127222Y31378D01*
X127896D01*
X128518Y31636D01*
X128994Y32112D01*
X129252Y32734D01*
Y33408D01*
X128994Y34030D01*
X128518Y34506D01*
X127896Y34764D01*
D02*
G37*
G36*
X71203Y33976D02*
X70529D01*
X69907Y33719D01*
X69431Y33242D01*
X69173Y32620D01*
Y31947D01*
X69431Y31324D01*
X69907Y30848D01*
X70529Y30591D01*
X71203D01*
X71825Y30848D01*
X72301Y31324D01*
X72559Y31947D01*
Y32620D01*
X72301Y33242D01*
X71825Y33719D01*
X71203Y33976D01*
D02*
G37*
G36*
X55455D02*
X54781D01*
X54159Y33719D01*
X53683Y33242D01*
X53425Y32620D01*
Y31947D01*
X53683Y31324D01*
X54159Y30848D01*
X54781Y30591D01*
X55455D01*
X56077Y30848D01*
X56553Y31324D01*
X56811Y31947D01*
Y32620D01*
X56553Y33242D01*
X56077Y33719D01*
X55455Y33976D01*
D02*
G37*
G36*
X94923Y27283D02*
X94250D01*
X93628Y27026D01*
X93151Y26550D01*
X92894Y25927D01*
Y25254D01*
X93151Y24632D01*
X93628Y24155D01*
X94250Y23898D01*
X94923D01*
X95546Y24155D01*
X96022Y24632D01*
X96280Y25254D01*
Y25927D01*
X96022Y26550D01*
X95546Y27026D01*
X94923Y27283D01*
D02*
G37*
G36*
X88329D02*
X87655D01*
X87033Y27026D01*
X86557Y26550D01*
X86299Y25927D01*
Y25254D01*
X86557Y24632D01*
X87033Y24155D01*
X87655Y23898D01*
X88329D01*
X88951Y24155D01*
X89427Y24632D01*
X89685Y25254D01*
Y25927D01*
X89427Y26550D01*
X88951Y27026D01*
X88329Y27283D01*
D02*
G37*
G36*
X134982Y26890D02*
X134309D01*
X133687Y26632D01*
X133211Y26156D01*
X132953Y25534D01*
Y24860D01*
X133211Y24238D01*
X133687Y23762D01*
X134309Y23504D01*
X134982D01*
X135605Y23762D01*
X136081Y24238D01*
X136339Y24860D01*
Y25534D01*
X136081Y26156D01*
X135605Y26632D01*
X134982Y26890D01*
D02*
G37*
G36*
X129077D02*
X128403D01*
X127781Y26632D01*
X127305Y26156D01*
X127047Y25534D01*
Y24860D01*
X127305Y24238D01*
X127781Y23762D01*
X128403Y23504D01*
X129077D01*
X129699Y23762D01*
X130175Y24238D01*
X130433Y24860D01*
Y25534D01*
X130175Y26156D01*
X129699Y26632D01*
X129077Y26890D01*
D02*
G37*
G36*
X44431Y23346D02*
X43758D01*
X43135Y23089D01*
X42659Y22613D01*
X42402Y21990D01*
Y21317D01*
X42659Y20695D01*
X43135Y20218D01*
X43758Y19961D01*
X44431D01*
X45053Y20218D01*
X45530Y20695D01*
X45787Y21317D01*
Y21990D01*
X45530Y22613D01*
X45053Y23089D01*
X44431Y23346D01*
D02*
G37*
G36*
X123265Y24016D02*
X122325D01*
X121457Y23656D01*
X120793Y22992D01*
X120433Y22123D01*
Y21184D01*
X120793Y20315D01*
X121457Y19651D01*
X122325Y19291D01*
X123265D01*
X124133Y19651D01*
X124798Y20315D01*
X125157Y21184D01*
Y22123D01*
X124798Y22992D01*
X124133Y23656D01*
X123265Y24016D01*
D02*
G37*
G36*
X100509D02*
X99569D01*
X98701Y23656D01*
X98037Y22992D01*
X97677Y22123D01*
Y21184D01*
X98037Y20315D01*
X98701Y19651D01*
X99569Y19291D01*
X100509D01*
X101377Y19651D01*
X102042Y20315D01*
X102402Y21184D01*
Y22123D01*
X102042Y22992D01*
X101377Y23656D01*
X100509Y24016D01*
D02*
G37*
G36*
X134982Y21772D02*
X134309D01*
X133687Y21514D01*
X133211Y21038D01*
X132953Y20415D01*
Y19742D01*
X133211Y19120D01*
X133687Y18644D01*
X134309Y18386D01*
X134982D01*
X135605Y18644D01*
X136081Y19120D01*
X136339Y19742D01*
Y20415D01*
X136081Y21038D01*
X135605Y21514D01*
X134982Y21772D01*
D02*
G37*
G36*
X129077D02*
X128403D01*
X127781Y21514D01*
X127305Y21038D01*
X127047Y20415D01*
Y19742D01*
X127305Y19120D01*
X127781Y18644D01*
X128403Y18386D01*
X129077D01*
X129699Y18644D01*
X130175Y19120D01*
X130433Y19742D01*
Y20415D01*
X130175Y21038D01*
X129699Y21514D01*
X129077Y21772D01*
D02*
G37*
G36*
X20809Y20197D02*
X20136D01*
X19513Y19939D01*
X19037Y19463D01*
X18779Y18841D01*
Y18167D01*
X19037Y17545D01*
X19513Y17069D01*
X20136Y16811D01*
X20809D01*
X21431Y17069D01*
X21908Y17545D01*
X22165Y18167D01*
Y18841D01*
X21908Y19463D01*
X21431Y19939D01*
X20809Y20197D01*
D02*
G37*
G36*
X134982Y11535D02*
X134309D01*
X133687Y11278D01*
X133211Y10802D01*
X132953Y10179D01*
Y9506D01*
X133211Y8884D01*
X133687Y8407D01*
X134309Y8150D01*
X134982D01*
X135605Y8407D01*
X136081Y8884D01*
X136339Y9506D01*
Y10179D01*
X136081Y10802D01*
X135605Y11278D01*
X134982Y11535D01*
D02*
G37*
G36*
X129077D02*
X128403D01*
X127781Y11278D01*
X127305Y10802D01*
X127047Y10179D01*
Y9506D01*
X127305Y8884D01*
X127781Y8407D01*
X128403Y8150D01*
X129077D01*
X129699Y8407D01*
X130175Y8884D01*
X130433Y9506D01*
Y10179D01*
X130175Y10802D01*
X129699Y11278D01*
X129077Y11535D01*
D02*
G37*
G36*
X94431D02*
X93758D01*
X93135Y11278D01*
X92659Y10802D01*
X92402Y10179D01*
Y9506D01*
X92659Y8884D01*
X93135Y8407D01*
X93758Y8150D01*
X94431D01*
X95053Y8407D01*
X95530Y8884D01*
X95787Y9506D01*
Y10179D01*
X95530Y10802D01*
X95053Y11278D01*
X94431Y11535D01*
D02*
G37*
G36*
X88526D02*
X87852D01*
X87230Y11278D01*
X86754Y10802D01*
X86496Y10179D01*
Y9506D01*
X86754Y8884D01*
X87230Y8407D01*
X87852Y8150D01*
X88526D01*
X89148Y8407D01*
X89624Y8884D01*
X89882Y9506D01*
Y10179D01*
X89624Y10802D01*
X89148Y11278D01*
X88526Y11535D01*
D02*
G37*
G36*
X73959D02*
X73285D01*
X72663Y11278D01*
X72187Y10802D01*
X71929Y10179D01*
Y9506D01*
X72187Y8884D01*
X72663Y8407D01*
X73285Y8150D01*
X73959D01*
X74581Y8407D01*
X75057Y8884D01*
X75315Y9506D01*
Y10179D01*
X75057Y10802D01*
X74581Y11278D01*
X73959Y11535D01*
D02*
G37*
G36*
X63329Y11142D02*
X62655D01*
X62033Y10884D01*
X61557Y10408D01*
X61299Y9786D01*
Y9112D01*
X61557Y8490D01*
X62033Y8014D01*
X62655Y7756D01*
X63329D01*
X63951Y8014D01*
X64427Y8490D01*
X64685Y9112D01*
Y9786D01*
X64427Y10408D01*
X63951Y10884D01*
X63329Y11142D01*
D02*
G37*
G36*
X60573Y8386D02*
X59899D01*
X59277Y8128D01*
X58910Y7761D01*
X58661Y7691D01*
X58413Y7761D01*
X58046Y8128D01*
X57423Y8386D01*
X56750D01*
X56128Y8128D01*
X55760Y7761D01*
X55512Y7691D01*
X55264Y7761D01*
X54896Y8128D01*
X54274Y8386D01*
X53600D01*
X52978Y8128D01*
X52502Y7652D01*
X52267Y7085D01*
X52141Y7066D01*
X51993D01*
X51867Y7085D01*
X51632Y7652D01*
X51156Y8128D01*
X50534Y8386D01*
X49860D01*
X49238Y8128D01*
X48762Y7652D01*
X48504Y7030D01*
Y6356D01*
X48762Y5734D01*
X49238Y5258D01*
X49860Y5000D01*
X50534D01*
X51156Y5258D01*
X51632Y5734D01*
X51867Y6301D01*
X51993Y6319D01*
X52141D01*
X52267Y6301D01*
X52502Y5734D01*
X52978Y5258D01*
X53600Y5000D01*
X54274D01*
X54896Y5258D01*
X55264Y5625D01*
X55512Y5695D01*
X55760Y5625D01*
X56128Y5258D01*
X56750Y5000D01*
X57423D01*
X58046Y5258D01*
X58413Y5625D01*
X58661Y5695D01*
X58910Y5625D01*
X59277Y5258D01*
X59899Y5000D01*
X60573D01*
X61195Y5258D01*
X61671Y5734D01*
X61929Y6356D01*
Y7030D01*
X61671Y7652D01*
X61195Y8128D01*
X60573Y8386D01*
D02*
G37*
G36*
X70809D02*
X70136D01*
X69513Y8128D01*
X69037Y7652D01*
X68779Y7030D01*
Y6356D01*
X69037Y5734D01*
X69513Y5258D01*
X70136Y5000D01*
X70809D01*
X71431Y5258D01*
X71908Y5734D01*
X72165Y6356D01*
Y7030D01*
X71908Y7652D01*
X71431Y8128D01*
X70809Y8386D01*
D02*
G37*
G36*
X66872D02*
X66199D01*
X65576Y8128D01*
X65100Y7652D01*
X64842Y7030D01*
Y6356D01*
X65100Y5734D01*
X65576Y5258D01*
X66199Y5000D01*
X66872D01*
X67494Y5258D01*
X67971Y5734D01*
X68228Y6356D01*
Y7030D01*
X67971Y7652D01*
X67494Y8128D01*
X66872Y8386D01*
D02*
G37*
G36*
X45317Y8091D02*
X44644D01*
X44021Y7833D01*
X43545Y7357D01*
X43287Y6734D01*
Y6061D01*
X43545Y5439D01*
X44021Y4963D01*
X44644Y4705D01*
X45317D01*
X45939Y4963D01*
X46415Y5439D01*
X46673Y6061D01*
Y6734D01*
X46415Y7357D01*
X45939Y7833D01*
X45317Y8091D01*
D02*
G37*
G36*
X15986D02*
X15313D01*
X14691Y7833D01*
X14214Y7357D01*
X13957Y6734D01*
Y6061D01*
X14214Y5439D01*
X14691Y4963D01*
X15313Y4705D01*
X15986D01*
X16609Y4963D01*
X17085Y5439D01*
X17343Y6061D01*
Y6734D01*
X17085Y7357D01*
X16609Y7833D01*
X15986Y8091D01*
D02*
G37*
G36*
X134982Y6417D02*
X134309D01*
X133687Y6160D01*
X133211Y5683D01*
X132953Y5061D01*
Y4388D01*
X133211Y3765D01*
X133687Y3289D01*
X134309Y3032D01*
X134982D01*
X135605Y3289D01*
X136081Y3765D01*
X136339Y4388D01*
Y5061D01*
X136081Y5683D01*
X135605Y6160D01*
X134982Y6417D01*
D02*
G37*
G36*
X129077D02*
X128403D01*
X127781Y6160D01*
X127305Y5683D01*
X127047Y5061D01*
Y4388D01*
X127305Y3765D01*
X127781Y3289D01*
X128403Y3032D01*
X129077D01*
X129699Y3289D01*
X130175Y3765D01*
X130433Y4388D01*
Y5061D01*
X130175Y5683D01*
X129699Y6160D01*
X129077Y6417D01*
D02*
G37*
G36*
X94431D02*
X93758D01*
X93135Y6160D01*
X92659Y5683D01*
X92402Y5061D01*
Y4388D01*
X92659Y3765D01*
X93135Y3289D01*
X93758Y3032D01*
X94431D01*
X95053Y3289D01*
X95530Y3765D01*
X95787Y4388D01*
Y5061D01*
X95530Y5683D01*
X95053Y6160D01*
X94431Y6417D01*
D02*
G37*
G36*
X88526D02*
X87852D01*
X87230Y6160D01*
X86754Y5683D01*
X86496Y5061D01*
Y4388D01*
X86754Y3765D01*
X87230Y3289D01*
X87852Y3032D01*
X88526D01*
X89148Y3289D01*
X89624Y3765D01*
X89882Y4388D01*
Y5061D01*
X89624Y5683D01*
X89148Y6160D01*
X88526Y6417D01*
D02*
G37*
%LPD*%
G36*
X133295Y95680D02*
X133231Y95604D01*
X133175Y95526D01*
X133127Y95447D01*
X133086Y95365D01*
X133052Y95283D01*
X133026Y95198D01*
X133007Y95112D01*
X132996Y95024D01*
X132992Y94934D01*
X132362D01*
X132359Y95024D01*
X132347Y95112D01*
X132328Y95198D01*
X132302Y95283D01*
X132269Y95365D01*
X132228Y95447D01*
X132179Y95526D01*
X132123Y95604D01*
X132059Y95680D01*
X131988Y95754D01*
X133366D01*
X133295Y95680D01*
D02*
G37*
G36*
X124213Y58760D02*
Y55020D01*
X127657Y51575D01*
X132480Y46752D01*
Y44882D01*
X131890Y44291D01*
X127657D01*
X122736Y49213D01*
Y52854D01*
X121850Y53740D01*
X121850Y56595D01*
X120768Y57677D01*
X119390D01*
X118996Y57284D01*
X114469D01*
X113976Y57776D01*
Y59547D01*
X116437Y62008D01*
X120965D01*
X124213Y58760D01*
D02*
G37*
G36*
X118588Y50492D02*
X118514Y50563D01*
X118438Y50627D01*
X118361Y50683D01*
X118281Y50731D01*
X118200Y50773D01*
X118117Y50806D01*
X118033Y50832D01*
X117946Y50851D01*
X117858Y50862D01*
X117768Y50866D01*
Y51496D01*
X117858Y51500D01*
X117946Y51511D01*
X118033Y51530D01*
X118117Y51556D01*
X118200Y51590D01*
X118281Y51631D01*
X118361Y51679D01*
X118438Y51735D01*
X118514Y51799D01*
X118588Y51870D01*
Y50492D01*
D02*
G37*
G36*
Y47343D02*
X118514Y47414D01*
X118438Y47477D01*
X118361Y47533D01*
X118281Y47582D01*
X118200Y47623D01*
X118117Y47657D01*
X118033Y47683D01*
X117946Y47702D01*
X117858Y47713D01*
X117768Y47717D01*
Y48346D01*
X117858Y48350D01*
X117946Y48361D01*
X118033Y48380D01*
X118117Y48406D01*
X118200Y48440D01*
X118281Y48481D01*
X118361Y48530D01*
X118438Y48586D01*
X118514Y48649D01*
X118588Y48720D01*
Y47343D01*
D02*
G37*
G36*
Y43799D02*
X118514Y43870D01*
X118438Y43934D01*
X118361Y43990D01*
X118281Y44039D01*
X118200Y44080D01*
X118117Y44113D01*
X118033Y44140D01*
X117946Y44158D01*
X117858Y44170D01*
X117768Y44173D01*
Y44803D01*
X117858Y44807D01*
X117946Y44818D01*
X118033Y44837D01*
X118117Y44863D01*
X118200Y44897D01*
X118281Y44938D01*
X118361Y44986D01*
X118438Y45042D01*
X118514Y45106D01*
X118588Y45177D01*
Y43799D01*
D02*
G37*
G36*
X103927Y45106D02*
X104003Y45042D01*
X104080Y44986D01*
X104160Y44938D01*
X104241Y44897D01*
X104324Y44863D01*
X104408Y44837D01*
X104495Y44818D01*
X104583Y44807D01*
X104673Y44803D01*
Y44173D01*
X104583Y44170D01*
X104495Y44158D01*
X104408Y44140D01*
X104324Y44113D01*
X104241Y44080D01*
X104160Y44039D01*
X104080Y43990D01*
X104003Y43934D01*
X103927Y43870D01*
X103852Y43799D01*
Y45177D01*
X103927Y45106D01*
D02*
G37*
G36*
X46772Y41012D02*
X46711Y40946D01*
X46657Y40875D01*
X46609Y40801D01*
X46568Y40723D01*
X46533Y40640D01*
X46505Y40554D01*
X46483Y40463D01*
X46468Y40369D01*
X46459Y40270D01*
X46457Y40167D01*
X45482Y41142D01*
X45585Y41144D01*
X45684Y41153D01*
X45778Y41168D01*
X45869Y41190D01*
X45955Y41218D01*
X46038Y41253D01*
X46116Y41294D01*
X46190Y41342D01*
X46260Y41396D01*
X46327Y41457D01*
X46772Y41012D01*
D02*
G37*
G36*
X41752D02*
X41692Y40946D01*
X41637Y40875D01*
X41589Y40801D01*
X41548Y40723D01*
X41513Y40640D01*
X41485Y40554D01*
X41463Y40463D01*
X41448Y40369D01*
X41439Y40270D01*
X41437Y40167D01*
X40463Y41142D01*
X40565Y41144D01*
X40664Y41153D01*
X40759Y41168D01*
X40849Y41190D01*
X40936Y41218D01*
X41018Y41253D01*
X41096Y41294D01*
X41171Y41342D01*
X41241Y41396D01*
X41307Y41457D01*
X41752Y41012D01*
D02*
G37*
G36*
X112405Y40905D02*
X112417Y40869D01*
X112438Y40828D01*
X112466Y40781D01*
X112503Y40729D01*
X112601Y40609D01*
X112732Y40467D01*
X112809Y40388D01*
X111974Y39553D01*
X111895Y39631D01*
X111633Y39859D01*
X111581Y39896D01*
X111534Y39925D01*
X111493Y39945D01*
X111457Y39957D01*
X111427Y39961D01*
X112401Y40935D01*
X112405Y40905D01*
D02*
G37*
G36*
X124888Y38681D02*
X124864Y38700D01*
X124830Y38717D01*
X124786Y38731D01*
X124733Y38744D01*
X124671Y38755D01*
X124516Y38771D01*
X124323Y38779D01*
X124213Y38780D01*
Y39961D01*
X124323Y39962D01*
X124671Y39985D01*
X124733Y39996D01*
X124786Y40009D01*
X124830Y40024D01*
X124864Y40040D01*
X124888Y40059D01*
Y38681D01*
D02*
G37*
D26*
X108268Y61417D02*
X111811D01*
X114961Y58268D01*
X105512Y64173D02*
X108268Y61417D01*
X51476Y51181D02*
X119291D01*
X40453Y40157D02*
X51476Y51181D01*
X53347Y48031D02*
X119291D01*
X45472Y40157D02*
X53347Y48031D01*
X43858Y66378D02*
X92047D01*
X23228Y87008D02*
X43858Y66378D01*
X92047Y76378D02*
X103465Y87795D01*
X104331D02*
X107480Y90945D01*
X103465Y87795D02*
X104331D01*
X109843Y90945D02*
X111417Y89370D01*
X107480Y90945D02*
X109843D01*
X33937Y107874D02*
X108268D01*
X111811Y104331D01*
X129134Y47244D02*
X132677Y50787D01*
Y96457D01*
X103150Y44488D02*
X119291D01*
X33937Y104567D02*
X97402D01*
X103543Y90158D02*
Y98425D01*
X97402Y104567D02*
X103543Y98425D01*
D29*
X116929Y61024D02*
D03*
X114961Y58268D02*
D03*
X105512Y64173D02*
D03*
X20079Y33858D02*
D03*
X46457Y24803D02*
D03*
X40453Y40157D02*
D03*
X45472D02*
D03*
X122047Y116929D02*
D03*
X77559Y26772D02*
D03*
X23228Y87008D02*
D03*
X92047Y66378D02*
D03*
Y76378D02*
D03*
X111417Y89370D02*
D03*
X114961Y88189D02*
D03*
X111811Y104331D02*
D03*
Y107874D02*
D03*
X132677Y96457D02*
D03*
X119291Y44488D02*
D03*
Y48031D02*
D03*
Y51181D02*
D03*
X103150Y44488D02*
D03*
X33937Y107874D02*
D03*
Y104567D02*
D03*
X103543Y90158D02*
D03*
X12992Y65354D02*
D03*
X19685Y116929D02*
D03*
X66929Y32283D02*
D03*
X51181D02*
D03*
X129134Y47244D02*
D03*
X111417Y40945D02*
D03*
X125591Y39370D02*
D03*
X114173Y82284D02*
D03*
X116929Y85433D02*
D03*
X103543Y82284D02*
D03*
X131496Y45276D02*
D03*
D31*
X103543Y82284D02*
X114173D01*
X114173Y82284D01*
D32*
X116142Y111024D02*
X122047Y116929D01*
X25591Y111024D02*
X116142D01*
X19685Y116929D02*
X25591Y111024D01*
D33*
X111417Y40945D02*
X112992Y39370D01*
X125591D01*
M02*
