G04*
G04 #@! TF.GenerationSoftware,Altium Limited,Altium Designer,24.10.1 (45)*
G04*
G04 Layer_Physical_Order=1*
G04 Layer_Color=255*
%FSLAX25Y25*%
%MOIN*%
G70*
G04*
G04 #@! TF.SameCoordinates,F1BA22F4-9FB4-4C3A-9B32-68D4286BD9C5*
G04*
G04*
G04 #@! TF.FilePolarity,Positive*
G04*
G01*
G75*
%ADD13R,0.07480X0.08661*%
%ADD14R,0.01181X0.05118*%
%ADD15R,0.02362X0.02362*%
%ADD16R,0.02362X0.02362*%
%ADD17R,0.06299X0.03937*%
%ADD26C,0.00630*%
%ADD27C,0.00551*%
%ADD28C,0.03150*%
%ADD29C,0.01968*%
%ADD30C,0.02756*%
G36*
X125197Y118110D02*
X122835Y115748D01*
X121260D01*
X118898Y118110D01*
Y122047D01*
X125197D01*
Y118110D01*
D02*
G37*
G36*
X22835D02*
X20472Y115748D01*
X18898D01*
X16535Y118110D01*
Y122047D01*
X22835D01*
Y118110D01*
D02*
G37*
G36*
X140528Y107110D02*
Y20330D01*
X139763Y20125D01*
X139622Y20055D01*
X139473Y20005D01*
X138494Y19439D01*
X138375Y19335D01*
X138244Y19248D01*
X137445Y18449D01*
X137357Y18317D01*
X137254Y18199D01*
X136688Y17220D01*
X136638Y17071D01*
X136568Y16930D01*
X136275Y15838D01*
X136265Y15680D01*
X136234Y15526D01*
Y14395D01*
X136265Y14241D01*
X136275Y14084D01*
X136568Y12992D01*
X136638Y12850D01*
X136688Y12701D01*
X137254Y11722D01*
X137357Y11604D01*
X137445Y11473D01*
X138244Y10673D01*
X138375Y10586D01*
X138494Y10482D01*
X139473Y9917D01*
X139622Y9866D01*
X139763Y9796D01*
X140528Y9591D01*
Y1204D01*
X1204D01*
Y9591D01*
X1969Y9796D01*
X2110Y9866D01*
X2259Y9917D01*
X3238Y10482D01*
X3357Y10586D01*
X3488Y10673D01*
X4287Y11473D01*
X4375Y11604D01*
X4479Y11722D01*
X5044Y12701D01*
X5094Y12850D01*
X5164Y12992D01*
X5457Y14084D01*
X5467Y14241D01*
X5498Y14395D01*
Y15526D01*
X5467Y15680D01*
X5457Y15838D01*
X5164Y16930D01*
X5094Y17071D01*
X5044Y17220D01*
X4479Y18199D01*
X4375Y18317D01*
X4287Y18449D01*
X3488Y19248D01*
X3357Y19335D01*
X3238Y19439D01*
X2259Y20005D01*
X2110Y20055D01*
X1969Y20125D01*
X1204Y20330D01*
Y26273D01*
X7843Y32911D01*
X7859Y32936D01*
X7883Y32954D01*
X8259Y33369D01*
X8305Y33445D01*
X8368Y33508D01*
X8989Y34438D01*
X9035Y34547D01*
X9101Y34646D01*
X9528Y35679D01*
X9551Y35795D01*
X9597Y35905D01*
X9815Y37001D01*
Y37091D01*
X9837Y37177D01*
X9864Y37736D01*
X9860Y37766D01*
X9866Y37795D01*
Y44685D01*
X12205D01*
Y44685D01*
X12542D01*
X13193Y44859D01*
X13776Y45196D01*
X14253Y45673D01*
X14589Y46256D01*
X14764Y46907D01*
Y47581D01*
X14589Y48232D01*
X14253Y48815D01*
X13776Y49292D01*
X13193Y49629D01*
X12542Y49803D01*
X9866D01*
Y95866D01*
X12542D01*
X13193Y96040D01*
X13776Y96377D01*
X14253Y96854D01*
X14589Y97437D01*
X14764Y98088D01*
Y98762D01*
X14589Y99413D01*
X14253Y99997D01*
X13776Y100473D01*
X13193Y100810D01*
X12542Y100984D01*
X9866D01*
Y107700D01*
X17191Y115025D01*
X20772D01*
X20983Y115237D01*
X20983Y115237D01*
X22085Y116339D01*
X119647D01*
X120749Y115237D01*
X120983Y115080D01*
X121260Y115025D01*
X122835D01*
X123111Y115080D01*
X123346Y115237D01*
X124447Y116339D01*
X131299D01*
X140528Y107110D01*
D02*
G37*
%LPC*%
G36*
X34274Y109567D02*
X33600D01*
X32978Y109309D01*
X32502Y108833D01*
X32244Y108211D01*
Y107537D01*
X32502Y106915D01*
X32978Y106439D01*
X33022Y106421D01*
Y106020D01*
X32978Y106002D01*
X32502Y105526D01*
X32244Y104904D01*
Y104230D01*
X32502Y103608D01*
X32978Y103132D01*
X33600Y102874D01*
X34274D01*
X34896Y103132D01*
X35372Y103608D01*
X35630Y104230D01*
Y104904D01*
X35372Y105526D01*
X34896Y106002D01*
X34852Y106020D01*
Y106421D01*
X34896Y106439D01*
X35372Y106915D01*
X35630Y107537D01*
Y108211D01*
X35372Y108833D01*
X34896Y109309D01*
X34274Y109567D01*
D02*
G37*
G36*
X112148D02*
X111474D01*
X110852Y109309D01*
X110376Y108833D01*
X110118Y108211D01*
Y103994D01*
X110376Y103372D01*
X110852Y102895D01*
X111474Y102638D01*
X112148D01*
X112770Y102895D01*
X113246Y103372D01*
X113504Y103994D01*
Y108211D01*
X113246Y108833D01*
X112770Y109309D01*
X112148Y109567D01*
D02*
G37*
G36*
X34274Y101260D02*
X33600D01*
X32978Y101002D01*
X32502Y100526D01*
X32244Y99904D01*
Y99230D01*
X32502Y98608D01*
X32978Y98132D01*
X33600Y97874D01*
X34274D01*
X34896Y98132D01*
X35372Y98608D01*
X35630Y99230D01*
Y99904D01*
X35372Y100526D01*
X34896Y101002D01*
X34274Y101260D01*
D02*
G37*
G36*
X133014Y98150D02*
X132340D01*
X131718Y97892D01*
X131242Y97416D01*
X130984Y96793D01*
Y96120D01*
X131242Y95498D01*
X131718Y95021D01*
X132340Y94764D01*
X133014D01*
X133636Y95021D01*
X134112Y95498D01*
X134370Y96120D01*
Y96793D01*
X134112Y97416D01*
X133636Y97892D01*
X133014Y98150D01*
D02*
G37*
G36*
X34274Y96260D02*
X33600D01*
X32978Y96002D01*
X32502Y95526D01*
X32244Y94904D01*
Y94230D01*
X32502Y93608D01*
X32978Y93132D01*
X33600Y92874D01*
X34274D01*
X34896Y93132D01*
X35372Y93608D01*
X35630Y94230D01*
Y94904D01*
X35372Y95526D01*
X34896Y96002D01*
X34274Y96260D01*
D02*
G37*
G36*
X103880Y91850D02*
X103207D01*
X102584Y91593D01*
X102108Y91116D01*
X101850Y90494D01*
Y89821D01*
X102108Y89198D01*
X102584Y88722D01*
X103207Y88465D01*
X103880D01*
X104502Y88722D01*
X104979Y89198D01*
X105236Y89821D01*
Y90494D01*
X104979Y91116D01*
X104502Y91593D01*
X103880Y91850D01*
D02*
G37*
G36*
X125197Y110959D02*
X118898Y110959D01*
X118828Y110945D01*
X118189D01*
Y110306D01*
X118175Y110236D01*
X118175Y92520D01*
X118230Y92243D01*
X118387Y92009D01*
X119750Y90646D01*
Y88882D01*
X119057Y88189D01*
X117323D01*
Y88221D01*
X114481Y91063D01*
X111081D01*
X110458Y90805D01*
X109982Y90329D01*
X109724Y89707D01*
Y89033D01*
X109982Y88411D01*
X110458Y87935D01*
X111081Y87677D01*
X113078D01*
X115236Y85519D01*
Y84732D01*
X116228Y83740D01*
X117441D01*
X118175Y83006D01*
X118175Y74803D01*
X118189Y74733D01*
X118189Y74094D01*
X118189D01*
Y74081D01*
X118189Y74081D01*
Y66999D01*
X118175Y66929D01*
Y62992D01*
X117873Y62730D01*
X116437D01*
X116161Y62675D01*
X115926Y62519D01*
X113465Y60058D01*
X111103D01*
X109399Y61762D01*
X109061Y61988D01*
X108661Y62067D01*
X108661Y62067D01*
X97834D01*
X93740Y66161D01*
Y69230D01*
Y73368D01*
Y79230D01*
X93740Y79904D01*
Y84230D01*
X93740Y84230D01*
Y84904D01*
X93740Y84904D01*
Y89230D01*
X93740Y89230D01*
Y89904D01*
X93740Y89904D01*
Y94230D01*
X93740Y94230D01*
Y94904D01*
X93740Y94904D01*
Y99230D01*
X93740Y99230D01*
Y99904D01*
X93740Y99904D01*
Y100173D01*
X93534Y100672D01*
X93152Y101053D01*
X92654Y101260D01*
X91711D01*
X91088Y101002D01*
X90612Y100526D01*
X90354Y99904D01*
Y99350D01*
X78002Y86998D01*
X77776Y86659D01*
X77697Y86260D01*
X77697Y86260D01*
Y75629D01*
X75246Y73179D01*
X75020Y72840D01*
X74941Y72441D01*
X74941Y72441D01*
Y34291D01*
X71112Y30462D01*
X70886Y30124D01*
X70807Y29724D01*
X70807Y29724D01*
Y26772D01*
X68405D01*
X61477Y33700D01*
Y37631D01*
X61481Y37652D01*
X61489Y37677D01*
X61500Y37703D01*
X61514Y37732D01*
X61533Y37763D01*
X61558Y37797D01*
X61589Y37835D01*
X61644Y37892D01*
X61678Y37945D01*
X61868Y38135D01*
X62126Y38758D01*
Y39431D01*
X61868Y40053D01*
X61392Y40530D01*
X60770Y40787D01*
X55096D01*
X54474Y40530D01*
X53998Y40053D01*
X53740Y39431D01*
Y38758D01*
X53998Y38135D01*
X54188Y37945D01*
X54222Y37892D01*
X54277Y37835D01*
X54308Y37797D01*
X54333Y37763D01*
X54352Y37732D01*
X54366Y37703D01*
X54377Y37677D01*
X54385Y37652D01*
X54389Y37631D01*
Y35906D01*
X54389Y35906D01*
X54469Y35506D01*
X54695Y35168D01*
X62933Y26930D01*
Y22165D01*
X62598D01*
Y15630D01*
X64632D01*
Y6458D01*
X64687Y6182D01*
X64867Y5747D01*
X65023Y5513D01*
X65355Y5181D01*
X65590Y5024D01*
X66024Y4844D01*
X66300Y4789D01*
X66770D01*
X67047Y4844D01*
X67481Y5024D01*
X67715Y5181D01*
X68048Y5513D01*
X68204Y5747D01*
X68204Y5747D01*
X68384Y6182D01*
X68439Y6458D01*
Y7022D01*
X69291Y7874D01*
Y10236D01*
X71653D01*
Y8150D01*
X73959D01*
X74581Y8407D01*
X75057Y8884D01*
X75315Y9506D01*
Y10905D01*
X74409Y11811D01*
X73228D01*
Y14173D01*
X75197D01*
Y15630D01*
Y21457D01*
X76378D01*
Y15630D01*
X94803D01*
Y22165D01*
Y23898D01*
X94923D01*
X95546Y24155D01*
X96022Y24632D01*
X96280Y25254D01*
Y25927D01*
X96022Y26550D01*
X95546Y27026D01*
X94923Y27283D01*
X93091D01*
Y58104D01*
X93095Y58125D01*
X93103Y58150D01*
X93114Y58176D01*
X93128Y58204D01*
X93147Y58235D01*
X93172Y58270D01*
X93204Y58307D01*
X93258Y58364D01*
X93292Y58418D01*
X93482Y58608D01*
X93740Y59230D01*
Y62643D01*
X93884Y62754D01*
X94104Y62845D01*
X96664Y60286D01*
X96664Y60286D01*
X97002Y60059D01*
X97402Y59980D01*
X97402Y59980D01*
X108229D01*
X113042Y55168D01*
X113380Y54941D01*
X113779Y54862D01*
X113780Y54862D01*
X118728D01*
X119378Y54213D01*
X120356D01*
X122014Y52555D01*
Y49213D01*
X122069Y48936D01*
X122225Y48702D01*
X127147Y43780D01*
X127381Y43624D01*
X127657Y43569D01*
X131890D01*
X132166Y43624D01*
X132401Y43780D01*
X132991Y44371D01*
X133148Y44605D01*
X133203Y44882D01*
Y46752D01*
X133148Y47028D01*
X132991Y47263D01*
X128168Y52086D01*
X128168Y52086D01*
X124935Y55319D01*
Y58760D01*
Y61313D01*
X125906Y62283D01*
Y62922D01*
X125919Y62992D01*
Y66630D01*
X129251Y69962D01*
X129408Y70196D01*
X129463Y70473D01*
Y82518D01*
X129408Y82795D01*
X129228Y83229D01*
X129228Y83229D01*
X129071Y83463D01*
X128739Y83796D01*
X128505Y83952D01*
X128505Y83952D01*
X128070Y84132D01*
X127888Y84187D01*
Y85433D01*
Y95276D01*
X127833Y95552D01*
X127676Y95786D01*
X125919Y97543D01*
Y110236D01*
X125906Y110306D01*
Y110945D01*
X125267D01*
X125197Y110959D01*
D02*
G37*
G36*
X114510Y83976D02*
X113837D01*
X113214Y83719D01*
X112738Y83242D01*
X112480Y82620D01*
Y81947D01*
X112738Y81324D01*
X113214Y80848D01*
X113837Y80591D01*
X114510D01*
X115132Y80848D01*
X115608Y81324D01*
X115866Y81947D01*
Y82620D01*
X115608Y83242D01*
X115132Y83719D01*
X114510Y83976D01*
D02*
G37*
G36*
X103880Y83976D02*
X103207D01*
X102584Y83719D01*
X102108Y83242D01*
X101850Y82620D01*
Y81947D01*
X102108Y81324D01*
X102584Y80848D01*
X103207Y80590D01*
X103880D01*
X104502Y80848D01*
X104979Y81324D01*
X105236Y81947D01*
Y82620D01*
X104979Y83242D01*
X104502Y83719D01*
X103880Y83976D01*
D02*
G37*
G36*
X22835Y110959D02*
X16535D01*
X16466Y110945D01*
X15827D01*
Y110306D01*
X15813Y110236D01*
Y103543D01*
X15868Y103267D01*
X16025Y103032D01*
X16535Y102522D01*
Y94329D01*
X14450Y92243D01*
X14293Y92009D01*
X14238Y91732D01*
Y87008D01*
Y82284D01*
X14293Y82007D01*
X14450Y81773D01*
X15813Y80409D01*
Y74803D01*
X15827Y74733D01*
Y74094D01*
X16466D01*
X16535Y74081D01*
X17992D01*
Y72498D01*
X18250Y71876D01*
X18726Y71399D01*
X19348Y71142D01*
X20022D01*
X20644Y71399D01*
X20834Y71590D01*
X20888Y71624D01*
X20945Y71678D01*
X20982Y71710D01*
X21016Y71735D01*
X21048Y71754D01*
X21076Y71768D01*
X21102Y71779D01*
X21127Y71786D01*
X21148Y71791D01*
X25386D01*
X25669Y71508D01*
X25669Y70945D01*
X25669Y70545D01*
Y67008D01*
X29449D01*
Y67854D01*
X30315D01*
X30315Y67854D01*
X30714Y67933D01*
X31053Y68160D01*
X31417Y68523D01*
X32474D01*
X32495Y68519D01*
X32520Y68511D01*
X32546Y68500D01*
X32574Y68486D01*
X32605Y68467D01*
X32640Y68442D01*
X32678Y68411D01*
X32734Y68356D01*
X32788Y68322D01*
X32978Y68132D01*
X33600Y67874D01*
X34274D01*
X34896Y68132D01*
X35372Y68608D01*
X35630Y69230D01*
Y69904D01*
X35372Y70526D01*
X34896Y71002D01*
X34274Y71260D01*
X33600D01*
X32978Y71002D01*
X32788Y70812D01*
X32734Y70778D01*
X32678Y70723D01*
X32640Y70692D01*
X32606Y70667D01*
X32574Y70648D01*
X32546Y70634D01*
X32520Y70623D01*
X32495Y70615D01*
X32474Y70611D01*
X29607D01*
X29449Y70945D01*
X29449Y71187D01*
Y74724D01*
X23949D01*
X23557Y74803D01*
X23557Y83465D01*
Y84943D01*
X24921Y86307D01*
Y91616D01*
X26889Y93584D01*
X27046Y93818D01*
X27101Y94095D01*
Y106693D01*
X27046Y106969D01*
X26889Y107204D01*
X23543Y110549D01*
Y110945D01*
X22905D01*
X22835Y110959D01*
D02*
G37*
G36*
X136557Y69016D02*
X135884D01*
X135261Y68758D01*
X134785Y68282D01*
X134528Y67660D01*
Y66986D01*
X134785Y66364D01*
X135261Y65888D01*
X135884Y65630D01*
X136557D01*
X137179Y65888D01*
X137656Y66364D01*
X137913Y66986D01*
Y67660D01*
X137656Y68282D01*
X137179Y68758D01*
X136557Y69016D01*
D02*
G37*
G36*
X13329Y67047D02*
X12655D01*
X12033Y66790D01*
X11557Y66313D01*
X11299Y65691D01*
Y65018D01*
X11557Y64395D01*
X12033Y63919D01*
X12655Y63661D01*
X13329D01*
X13951Y63919D01*
X14427Y64395D01*
X14685Y65018D01*
Y65691D01*
X14427Y66313D01*
X13951Y66790D01*
X13329Y67047D01*
D02*
G37*
G36*
X105849Y65866D02*
X105175D01*
X104553Y65608D01*
X104077Y65132D01*
X103819Y64510D01*
Y63836D01*
X104077Y63214D01*
X104553Y62738D01*
X105175Y62480D01*
X105849D01*
X106471Y62738D01*
X106947Y63214D01*
X107205Y63836D01*
Y64510D01*
X106947Y65132D01*
X106471Y65608D01*
X105849Y65866D01*
D02*
G37*
G36*
X20472Y70014D02*
X18898D01*
X18621Y69959D01*
X18387Y69802D01*
X16222Y67638D01*
X15827D01*
Y66999D01*
X15813Y66929D01*
Y62992D01*
X15827Y62922D01*
Y62283D01*
X16466D01*
X16535Y62270D01*
X22835D01*
X22905Y62283D01*
X23543D01*
Y62922D01*
X23557Y62992D01*
Y66929D01*
X23543Y66999D01*
Y67638D01*
X23148D01*
X20983Y69802D01*
X20749Y69959D01*
X20472Y70014D01*
D02*
G37*
G36*
X136557Y65079D02*
X135884D01*
X135261Y64821D01*
X134785Y64345D01*
X134528Y63723D01*
Y63049D01*
X134785Y62427D01*
X135261Y61951D01*
X135884Y61693D01*
X136557D01*
X137179Y61951D01*
X137656Y62427D01*
X137913Y63049D01*
Y63723D01*
X137656Y64345D01*
X137179Y64821D01*
X136557Y65079D01*
D02*
G37*
G36*
Y61142D02*
X135884D01*
X135261Y60884D01*
X134785Y60408D01*
X134528Y59786D01*
Y59112D01*
X134785Y58490D01*
X135261Y58014D01*
X135884Y57756D01*
X136557D01*
X137179Y58014D01*
X137656Y58490D01*
X137913Y59112D01*
Y59786D01*
X137656Y60408D01*
X137179Y60884D01*
X136557Y61142D01*
D02*
G37*
G36*
X19628Y49803D02*
X18954D01*
X18304Y49629D01*
X17720Y49292D01*
X17244Y48815D01*
X16907Y48232D01*
X16732Y47581D01*
Y46907D01*
X16907Y46256D01*
X17244Y45673D01*
X17720Y45196D01*
X18304Y44859D01*
X18954Y44685D01*
X19628D01*
X20279Y44859D01*
X20863Y45196D01*
X21339Y45673D01*
X21676Y46256D01*
X21850Y46907D01*
Y47581D01*
X21676Y48232D01*
X21339Y48815D01*
X20863Y49292D01*
X20279Y49629D01*
X19628Y49803D01*
D02*
G37*
G36*
X119628Y52874D02*
X118955D01*
X118332Y52616D01*
X117856Y52140D01*
X117598Y51518D01*
Y48368D01*
Y44151D01*
X117856Y43529D01*
X118332Y43053D01*
X118955Y42795D01*
X119628D01*
X120250Y43053D01*
X120727Y43529D01*
X120984Y44151D01*
Y51518D01*
X120727Y52140D01*
X120250Y52616D01*
X119628Y52874D01*
D02*
G37*
G36*
X103486Y46181D02*
X102813D01*
X102191Y45923D01*
X101714Y45447D01*
X101457Y44825D01*
Y44151D01*
X101714Y43529D01*
X102191Y43053D01*
X102813Y42795D01*
X103486D01*
X104109Y43053D01*
X104585Y43529D01*
X104842Y44151D01*
Y44825D01*
X104585Y45447D01*
X104109Y45923D01*
X103486Y46181D01*
D02*
G37*
G36*
X30652D02*
X26435D01*
X25813Y45923D01*
X25337Y45447D01*
X25079Y44825D01*
Y44151D01*
X25337Y43529D01*
X25813Y43053D01*
X26435Y42795D01*
X30652D01*
X31274Y43053D01*
X31750Y43529D01*
X32008Y44151D01*
Y44825D01*
X31750Y45447D01*
X31274Y45923D01*
X30652Y46181D01*
D02*
G37*
G36*
X111754Y42638D02*
X111081D01*
X110458Y42380D01*
X109982Y41904D01*
X109724Y41282D01*
Y40608D01*
X109982Y39986D01*
X110458Y39510D01*
X111081Y39252D01*
X111754D01*
X112376Y39510D01*
X112853Y39986D01*
X113110Y40608D01*
Y41282D01*
X112853Y41904D01*
X112376Y42380D01*
X111754Y42638D01*
D02*
G37*
G36*
X125927Y41063D02*
X125254D01*
X124632Y40805D01*
X124155Y40329D01*
X123898Y39707D01*
Y39033D01*
X124155Y38411D01*
X124632Y37935D01*
X125254Y37677D01*
X125927D01*
X126549Y37935D01*
X127026Y38411D01*
X127284Y39033D01*
Y39707D01*
X127026Y40329D01*
X126549Y40805D01*
X125927Y41063D01*
D02*
G37*
G36*
X20415Y35551D02*
X19742D01*
X19120Y35293D01*
X18644Y34817D01*
X18386Y34195D01*
Y33522D01*
X18644Y32899D01*
X19120Y32423D01*
X19742Y32165D01*
X20415D01*
X21038Y32423D01*
X21514Y32899D01*
X21772Y33522D01*
Y34195D01*
X21514Y34817D01*
X21038Y35293D01*
X20415Y35551D01*
D02*
G37*
G36*
X67266Y33976D02*
X66592D01*
X65970Y33719D01*
X65494Y33242D01*
X65236Y32620D01*
Y31947D01*
X65494Y31324D01*
X65970Y30848D01*
X66592Y30591D01*
X67266D01*
X67888Y30848D01*
X68364Y31324D01*
X68622Y31947D01*
Y32620D01*
X68364Y33242D01*
X67888Y33719D01*
X67266Y33976D01*
D02*
G37*
G36*
X134982Y26890D02*
X134309D01*
X133687Y26632D01*
X133211Y26156D01*
X132953Y25534D01*
Y24860D01*
X133211Y24238D01*
X133687Y23762D01*
X134309Y23504D01*
X134982D01*
X135605Y23762D01*
X136081Y24238D01*
X136339Y24860D01*
Y25534D01*
X136081Y26156D01*
X135605Y26632D01*
X134982Y26890D01*
D02*
G37*
G36*
X129077D02*
X128403D01*
X127781Y26632D01*
X127305Y26156D01*
X127047Y25534D01*
Y24860D01*
X127305Y24238D01*
X127781Y23762D01*
X128403Y23504D01*
X129077D01*
X129699Y23762D01*
X130175Y24238D01*
X130433Y24860D01*
Y25534D01*
X130175Y26156D01*
X129699Y26632D01*
X129077Y26890D01*
D02*
G37*
G36*
X123265Y24016D02*
X122325D01*
X121457Y23656D01*
X120793Y22992D01*
X120433Y22123D01*
Y21184D01*
X120793Y20315D01*
X121457Y19651D01*
X122325Y19291D01*
X123265D01*
X124133Y19651D01*
X124798Y20315D01*
X125157Y21184D01*
Y22123D01*
X124798Y22992D01*
X124133Y23656D01*
X123265Y24016D01*
D02*
G37*
G36*
X100509D02*
X99569D01*
X98701Y23656D01*
X98037Y22992D01*
X97677Y22123D01*
Y21184D01*
X98037Y20315D01*
X98701Y19651D01*
X99569Y19291D01*
X100509D01*
X101377Y19651D01*
X102042Y20315D01*
X102402Y21184D01*
Y22123D01*
X102042Y22992D01*
X101377Y23656D01*
X100509Y24016D01*
D02*
G37*
G36*
X134982Y21772D02*
X134309D01*
X133687Y21514D01*
X133211Y21038D01*
X132953Y20415D01*
Y19742D01*
X133211Y19120D01*
X133687Y18644D01*
X134309Y18386D01*
X134982D01*
X135605Y18644D01*
X136081Y19120D01*
X136339Y19742D01*
Y20415D01*
X136081Y21038D01*
X135605Y21514D01*
X134982Y21772D01*
D02*
G37*
G36*
X129077D02*
X128403D01*
X127781Y21514D01*
X127305Y21038D01*
X127047Y20415D01*
Y19742D01*
X127305Y19120D01*
X127781Y18644D01*
X128403Y18386D01*
X129077D01*
X129699Y18644D01*
X130175Y19120D01*
X130433Y19742D01*
Y20415D01*
X130175Y21038D01*
X129699Y21514D01*
X129077Y21772D01*
D02*
G37*
G36*
X134982Y11535D02*
X134309D01*
X133687Y11278D01*
X133211Y10802D01*
X132953Y10179D01*
Y9506D01*
X133211Y8884D01*
X133687Y8407D01*
X134309Y8150D01*
X134982D01*
X135605Y8407D01*
X136081Y8884D01*
X136339Y9506D01*
Y10179D01*
X136081Y10802D01*
X135605Y11278D01*
X134982Y11535D01*
D02*
G37*
G36*
X129077D02*
X128403D01*
X127781Y11278D01*
X127305Y10802D01*
X127047Y10179D01*
Y9506D01*
X127305Y8884D01*
X127781Y8407D01*
X128403Y8150D01*
X129077D01*
X129699Y8407D01*
X130175Y8884D01*
X130433Y9506D01*
Y10179D01*
X130175Y10802D01*
X129699Y11278D01*
X129077Y11535D01*
D02*
G37*
G36*
X94431D02*
X93758D01*
X93135Y11278D01*
X92659Y10802D01*
X92402Y10179D01*
Y9506D01*
X92659Y8884D01*
X93135Y8407D01*
X93758Y8150D01*
X94431D01*
X95053Y8407D01*
X95530Y8884D01*
X95787Y9506D01*
Y10179D01*
X95530Y10802D01*
X95053Y11278D01*
X94431Y11535D01*
D02*
G37*
G36*
X88526D02*
X87852D01*
X87230Y11278D01*
X86754Y10802D01*
X86496Y10179D01*
Y9506D01*
X86754Y8884D01*
X87230Y8407D01*
X87852Y8150D01*
X88526D01*
X89148Y8407D01*
X89624Y8884D01*
X89882Y9506D01*
Y10179D01*
X89624Y10802D01*
X89148Y11278D01*
X88526Y11535D01*
D02*
G37*
G36*
X50071Y41850D02*
X39751D01*
X38760Y40859D01*
Y39456D01*
X41168Y37048D01*
X44153D01*
X44291Y36910D01*
Y24574D01*
X45498Y23368D01*
X46120Y23110D01*
X46793D01*
X46929Y23020D01*
Y15630D01*
X48031D01*
Y7087D01*
X48031Y6669D01*
X48351Y5897D01*
X48942Y5306D01*
X49714Y4986D01*
X50132Y4986D01*
X54211D01*
X54488Y5041D01*
X54994Y5251D01*
X55229Y5407D01*
X55616Y5795D01*
X55616Y5795D01*
X55773Y6030D01*
X55983Y6536D01*
X56037Y6813D01*
Y7219D01*
X56693Y7874D01*
X57699D01*
X58543Y7030D01*
Y6356D01*
X58801Y5734D01*
X59277Y5258D01*
X59899Y5000D01*
X60573D01*
X61195Y5258D01*
X61671Y5734D01*
X61929Y6356D01*
Y7030D01*
X61671Y7652D01*
X61480Y7843D01*
X61445Y7898D01*
X61381Y7964D01*
X61339Y8012D01*
X61306Y8056D01*
X61281Y8095D01*
X61263Y8128D01*
X61251Y8156D01*
X61243Y8178D01*
X61240Y8191D01*
Y9055D01*
X61163Y9439D01*
X60946Y9765D01*
X59074Y11636D01*
Y15630D01*
X61417D01*
Y22165D01*
X61083D01*
Y22638D01*
X61083Y22638D01*
X61004Y23037D01*
X60777Y23376D01*
X58218Y25935D01*
X57880Y26161D01*
X57480Y26241D01*
X57480Y26241D01*
X55550D01*
X51570Y30221D01*
X51693Y30663D01*
X52140Y30848D01*
X52616Y31324D01*
X52874Y31947D01*
Y32620D01*
X52616Y33242D01*
X52140Y33719D01*
X51518Y33976D01*
X50844D01*
X50263Y33735D01*
X49863Y33882D01*
Y37048D01*
X50781D01*
X52126Y38393D01*
Y39796D01*
X50071Y41850D01*
D02*
G37*
G36*
X134982Y6417D02*
X134309D01*
X133687Y6160D01*
X133211Y5683D01*
X132953Y5061D01*
Y4388D01*
X133211Y3765D01*
X133687Y3289D01*
X134309Y3032D01*
X134982D01*
X135605Y3289D01*
X136081Y3765D01*
X136339Y4388D01*
Y5061D01*
X136081Y5683D01*
X135605Y6160D01*
X134982Y6417D01*
D02*
G37*
G36*
X129077D02*
X128403D01*
X127781Y6160D01*
X127305Y5683D01*
X127047Y5061D01*
Y4388D01*
X127305Y3765D01*
X127781Y3289D01*
X128403Y3032D01*
X129077D01*
X129699Y3289D01*
X130175Y3765D01*
X130433Y4388D01*
Y5061D01*
X130175Y5683D01*
X129699Y6160D01*
X129077Y6417D01*
D02*
G37*
G36*
X94431D02*
X93758D01*
X93135Y6160D01*
X92659Y5683D01*
X92402Y5061D01*
Y4388D01*
X92659Y3765D01*
X93135Y3289D01*
X93758Y3032D01*
X94431D01*
X95053Y3289D01*
X95530Y3765D01*
X95787Y4388D01*
Y5061D01*
X95530Y5683D01*
X95053Y6160D01*
X94431Y6417D01*
D02*
G37*
G36*
X88526D02*
X87852D01*
X87230Y6160D01*
X86754Y5683D01*
X86496Y5061D01*
Y4388D01*
X86754Y3765D01*
X87230Y3289D01*
X87852Y3032D01*
X88526D01*
X89148Y3289D01*
X89624Y3765D01*
X89882Y4388D01*
Y5061D01*
X89624Y5683D01*
X89148Y6160D01*
X88526Y6417D01*
D02*
G37*
%LPD*%
G36*
X125197Y97244D02*
X127165Y95276D01*
Y85433D01*
X125197Y83465D01*
X125197Y74803D01*
X118898D01*
X118898Y87008D01*
X120472Y88583D01*
Y90945D01*
X118898Y92520D01*
X118898Y110236D01*
X125197Y110236D01*
Y97244D01*
D02*
G37*
G36*
X92037Y72047D02*
X91935Y72045D01*
X91836Y72036D01*
X91742Y72021D01*
X91651Y71999D01*
X91565Y71971D01*
X91482Y71936D01*
X91404Y71895D01*
X91329Y71847D01*
X91259Y71793D01*
X91193Y71732D01*
X90748Y72177D01*
X90808Y72243D01*
X90863Y72314D01*
X90911Y72388D01*
X90952Y72466D01*
X90987Y72549D01*
X91015Y72635D01*
X91037Y72726D01*
X91052Y72820D01*
X91061Y72919D01*
X91063Y73022D01*
X92037Y72047D01*
D02*
G37*
G36*
Y68583D02*
X91935Y68581D01*
X91836Y68572D01*
X91742Y68557D01*
X91651Y68535D01*
X91565Y68506D01*
X91482Y68472D01*
X91404Y68430D01*
X91329Y68383D01*
X91259Y68328D01*
X91193Y68267D01*
X90748Y68713D01*
X90808Y68779D01*
X90863Y68849D01*
X90911Y68923D01*
X90952Y69002D01*
X90987Y69084D01*
X91015Y69171D01*
X91037Y69261D01*
X91052Y69356D01*
X91061Y69454D01*
X91063Y69557D01*
X92037Y68583D01*
D02*
G37*
G36*
X128228Y83285D02*
X128560Y82952D01*
X128740Y82518D01*
Y82284D01*
Y70473D01*
X125197Y66929D01*
Y62992D01*
X118898D01*
Y66929D01*
X118898D01*
X126378Y74410D01*
Y82284D01*
Y82518D01*
X126558Y82952D01*
X126890Y83285D01*
X127324Y83465D01*
X127794D01*
X128228Y83285D01*
D02*
G37*
G36*
X92037Y62047D02*
X91935Y62045D01*
X91836Y62036D01*
X91742Y62021D01*
X91651Y61999D01*
X91565Y61971D01*
X91482Y61936D01*
X91404Y61895D01*
X91329Y61847D01*
X91259Y61793D01*
X91193Y61732D01*
X90748Y62177D01*
X90808Y62243D01*
X90863Y62314D01*
X90911Y62388D01*
X90952Y62466D01*
X90987Y62549D01*
X91015Y62635D01*
X91037Y62726D01*
X91052Y62820D01*
X91061Y62919D01*
X91063Y63022D01*
X92037Y62047D01*
D02*
G37*
G36*
X92665Y58790D02*
X92602Y58714D01*
X92545Y58636D01*
X92497Y58557D01*
X92456Y58476D01*
X92422Y58393D01*
X92396Y58308D01*
X92377Y58222D01*
X92366Y58134D01*
X92362Y58044D01*
X91732D01*
X91729Y58134D01*
X91717Y58222D01*
X91699Y58308D01*
X91672Y58393D01*
X91639Y58476D01*
X91598Y58557D01*
X91549Y58636D01*
X91493Y58714D01*
X91429Y58790D01*
X91358Y58864D01*
X92736D01*
X92665Y58790D01*
D02*
G37*
G36*
X124213Y58760D02*
Y55020D01*
X127657Y51575D01*
X132480Y46752D01*
Y44882D01*
X131890Y44291D01*
X127657D01*
X122736Y49213D01*
Y52854D01*
X121850Y53740D01*
X121850Y56595D01*
X120768Y57677D01*
X119390D01*
X118996Y57284D01*
X114469D01*
X113976Y57776D01*
Y59547D01*
X116437Y62008D01*
X120965D01*
X124213Y58760D01*
D02*
G37*
G36*
X61051Y38317D02*
X60987Y38241D01*
X60931Y38164D01*
X60883Y38084D01*
X60842Y38003D01*
X60808Y37920D01*
X60782Y37836D01*
X60763Y37749D01*
X60752Y37661D01*
X60748Y37571D01*
X60118D01*
X60114Y37661D01*
X60103Y37749D01*
X60084Y37836D01*
X60058Y37920D01*
X60025Y38003D01*
X59983Y38084D01*
X59935Y38164D01*
X59879Y38241D01*
X59815Y38317D01*
X59744Y38392D01*
X61122D01*
X61051Y38317D01*
D02*
G37*
G36*
X56051D02*
X55987Y38241D01*
X55931Y38164D01*
X55883Y38084D01*
X55841Y38003D01*
X55808Y37920D01*
X55782Y37836D01*
X55763Y37749D01*
X55752Y37661D01*
X55748Y37571D01*
X55118D01*
X55114Y37661D01*
X55103Y37749D01*
X55084Y37836D01*
X55058Y37920D01*
X55025Y38003D01*
X54984Y38084D01*
X54935Y38164D01*
X54879Y38241D01*
X54815Y38317D01*
X54744Y38392D01*
X56122D01*
X56051Y38317D01*
D02*
G37*
G36*
X89885Y21955D02*
X89906Y21753D01*
X89924Y21671D01*
X89948Y21602D01*
X89977Y21545D01*
X90011Y21501D01*
X90051Y21470D01*
X90095Y21451D01*
X90145Y21445D01*
X88988D01*
X89038Y21451D01*
X89083Y21470D01*
X89123Y21501D01*
X89157Y21545D01*
X89186Y21602D01*
X89210Y21671D01*
X89228Y21753D01*
X89241Y21848D01*
X89249Y21955D01*
X89252Y22075D01*
X89882D01*
X89885Y21955D01*
D02*
G37*
G36*
X87916D02*
X87937Y21753D01*
X87956Y21671D01*
X87979Y21602D01*
X88008Y21545D01*
X88042Y21501D01*
X88082Y21470D01*
X88127Y21451D01*
X88177Y21445D01*
X87020D01*
X87070Y21451D01*
X87115Y21470D01*
X87154Y21501D01*
X87189Y21545D01*
X87218Y21602D01*
X87241Y21671D01*
X87260Y21753D01*
X87273Y21848D01*
X87281Y21955D01*
X87283Y22075D01*
X87913D01*
X87916Y21955D01*
D02*
G37*
G36*
X85948D02*
X85969Y21753D01*
X85987Y21671D01*
X86011Y21602D01*
X86040Y21545D01*
X86074Y21501D01*
X86114Y21470D01*
X86158Y21451D01*
X86208Y21445D01*
X85051D01*
X85101Y21451D01*
X85146Y21470D01*
X85186Y21501D01*
X85220Y21545D01*
X85249Y21602D01*
X85273Y21671D01*
X85291Y21753D01*
X85304Y21848D01*
X85312Y21955D01*
X85315Y22075D01*
X85945D01*
X85948Y21955D01*
D02*
G37*
G36*
X83979D02*
X84000Y21753D01*
X84019Y21671D01*
X84042Y21602D01*
X84071Y21545D01*
X84105Y21501D01*
X84145Y21470D01*
X84190Y21451D01*
X84240Y21445D01*
X83083D01*
X83133Y21451D01*
X83178Y21470D01*
X83217Y21501D01*
X83252Y21545D01*
X83281Y21602D01*
X83304Y21671D01*
X83323Y21753D01*
X83336Y21848D01*
X83344Y21955D01*
X83346Y22075D01*
X83976D01*
X83979Y21955D01*
D02*
G37*
G36*
X82011D02*
X82032Y21753D01*
X82050Y21671D01*
X82074Y21602D01*
X82103Y21545D01*
X82137Y21501D01*
X82177Y21470D01*
X82221Y21451D01*
X82271Y21445D01*
X81114D01*
X81164Y21451D01*
X81209Y21470D01*
X81249Y21501D01*
X81283Y21545D01*
X81312Y21602D01*
X81336Y21671D01*
X81354Y21753D01*
X81367Y21848D01*
X81375Y21955D01*
X81378Y22075D01*
X82008D01*
X82011Y21955D01*
D02*
G37*
G36*
X80042D02*
X80063Y21753D01*
X80081Y21671D01*
X80105Y21602D01*
X80134Y21545D01*
X80168Y21501D01*
X80208Y21470D01*
X80253Y21451D01*
X80303Y21445D01*
X79146D01*
X79196Y21451D01*
X79241Y21470D01*
X79280Y21501D01*
X79315Y21545D01*
X79344Y21602D01*
X79367Y21671D01*
X79386Y21753D01*
X79399Y21848D01*
X79407Y21955D01*
X79409Y22075D01*
X80039D01*
X80042Y21955D01*
D02*
G37*
G36*
X78074D02*
X78095Y21753D01*
X78113Y21671D01*
X78137Y21602D01*
X78166Y21545D01*
X78200Y21501D01*
X78240Y21470D01*
X78284Y21451D01*
X78334Y21445D01*
X77177D01*
X77227Y21451D01*
X77272Y21470D01*
X77312Y21501D01*
X77346Y21545D01*
X77375Y21602D01*
X77399Y21671D01*
X77417Y21753D01*
X77430Y21848D01*
X77438Y21955D01*
X77441Y22075D01*
X78071D01*
X78074Y21955D01*
D02*
G37*
G36*
X74137D02*
X74158Y21753D01*
X74176Y21671D01*
X74200Y21602D01*
X74229Y21545D01*
X74263Y21501D01*
X74303Y21470D01*
X74347Y21451D01*
X74397Y21445D01*
X73240D01*
X73290Y21451D01*
X73335Y21470D01*
X73375Y21501D01*
X73409Y21545D01*
X73438Y21602D01*
X73462Y21671D01*
X73480Y21753D01*
X73493Y21848D01*
X73501Y21955D01*
X73504Y22075D01*
X74134D01*
X74137Y21955D01*
D02*
G37*
G36*
X72168D02*
X72189Y21753D01*
X72207Y21671D01*
X72231Y21602D01*
X72260Y21545D01*
X72294Y21501D01*
X72334Y21470D01*
X72379Y21451D01*
X72429Y21445D01*
X71272D01*
X71322Y21451D01*
X71367Y21470D01*
X71406Y21501D01*
X71441Y21545D01*
X71469Y21602D01*
X71493Y21671D01*
X71512Y21753D01*
X71525Y21848D01*
X71533Y21955D01*
X71535Y22075D01*
X72165D01*
X72168Y21955D01*
D02*
G37*
G36*
X70200D02*
X70221Y21753D01*
X70239Y21671D01*
X70263Y21602D01*
X70292Y21545D01*
X70326Y21501D01*
X70366Y21470D01*
X70410Y21451D01*
X70460Y21445D01*
X69303D01*
X69353Y21451D01*
X69398Y21470D01*
X69438Y21501D01*
X69472Y21545D01*
X69501Y21602D01*
X69525Y21671D01*
X69543Y21753D01*
X69556Y21848D01*
X69564Y21955D01*
X69567Y22075D01*
X70197D01*
X70200Y21955D01*
D02*
G37*
G36*
X64294D02*
X64315Y21753D01*
X64333Y21671D01*
X64357Y21602D01*
X64386Y21545D01*
X64420Y21501D01*
X64460Y21470D01*
X64505Y21451D01*
X64555Y21445D01*
X63398D01*
X63448Y21451D01*
X63493Y21470D01*
X63532Y21501D01*
X63566Y21545D01*
X63595Y21602D01*
X63619Y21671D01*
X63638Y21753D01*
X63651Y21848D01*
X63659Y21955D01*
X63661Y22075D01*
X64291D01*
X64294Y21955D01*
D02*
G37*
G36*
X68504Y14961D02*
X69291Y14173D01*
X71653D01*
Y12289D01*
X71688Y12228D01*
X71751Y12139D01*
X71829Y12041D01*
X72031Y11823D01*
X71641Y11433D01*
X71529Y11542D01*
X71326Y11714D01*
X71236Y11776D01*
X71175Y11811D01*
X69291D01*
X67323Y13780D01*
Y18898D01*
X68504D01*
Y14961D01*
D02*
G37*
G36*
X72794Y11066D02*
X72863Y11015D01*
X72937Y10970D01*
X73017Y10931D01*
X73102Y10898D01*
X73193Y10871D01*
X73290Y10851D01*
X73392Y10837D01*
X73499Y10829D01*
X73612Y10827D01*
X72638Y9852D01*
X72636Y9965D01*
X72628Y10073D01*
X72614Y10175D01*
X72593Y10271D01*
X72567Y10362D01*
X72534Y10447D01*
X72495Y10527D01*
X72450Y10601D01*
X72399Y10670D01*
X72342Y10733D01*
X72731Y11123D01*
X72794Y11066D01*
D02*
G37*
G36*
X66535Y13386D02*
X67716Y12205D01*
Y6693D01*
Y6458D01*
X67537Y6024D01*
X67204Y5692D01*
X66770Y5512D01*
X66300D01*
X65866Y5692D01*
X65534Y6024D01*
X65354Y6458D01*
Y6693D01*
Y18898D01*
X66535D01*
Y13386D01*
D02*
G37*
G36*
X26378Y106693D02*
Y94095D01*
X21260Y88976D01*
X21260Y85039D01*
X22835Y83465D01*
X22835Y74803D01*
X16535D01*
Y80709D01*
X14961Y82284D01*
Y87008D01*
Y91732D01*
X18898Y95669D01*
X20472D01*
X22047Y97244D01*
Y99606D01*
X20472Y101181D01*
X18898D01*
X16535Y103543D01*
Y110236D01*
X22835D01*
X26378Y106693D01*
D02*
G37*
G36*
X26402Y72205D02*
X26395Y72265D01*
X26376Y72318D01*
X26344Y72365D01*
X26299Y72406D01*
X26241Y72441D01*
X26171Y72469D01*
X26087Y72491D01*
X25991Y72507D01*
X25882Y72517D01*
X25760Y72520D01*
Y73150D01*
X25882Y73153D01*
X25991Y73162D01*
X26087Y73178D01*
X26171Y73200D01*
X26241Y73228D01*
X26299Y73263D01*
X26344Y73304D01*
X26376Y73351D01*
X26395Y73405D01*
X26402Y73465D01*
Y72205D01*
D02*
G37*
G36*
X20462Y73453D02*
X20538Y73389D01*
X20616Y73333D01*
X20695Y73284D01*
X20776Y73243D01*
X20859Y73210D01*
X20944Y73183D01*
X21030Y73165D01*
X21118Y73153D01*
X21208Y73150D01*
Y72520D01*
X21118Y72516D01*
X21030Y72505D01*
X20944Y72486D01*
X20859Y72460D01*
X20776Y72426D01*
X20695Y72385D01*
X20616Y72336D01*
X20538Y72280D01*
X20462Y72217D01*
X20388Y72146D01*
Y73524D01*
X20462Y73453D01*
D02*
G37*
G36*
X33234Y68878D02*
X33160Y68949D01*
X33084Y69013D01*
X33006Y69069D01*
X32927Y69117D01*
X32846Y69159D01*
X32763Y69192D01*
X32678Y69218D01*
X32592Y69237D01*
X32504Y69248D01*
X32414Y69252D01*
Y69882D01*
X32504Y69886D01*
X32592Y69897D01*
X32678Y69916D01*
X32763Y69942D01*
X32846Y69975D01*
X32927Y70016D01*
X33006Y70065D01*
X33084Y70121D01*
X33160Y70185D01*
X33234Y70256D01*
Y68878D01*
D02*
G37*
G36*
X28723Y69468D02*
X28742Y69414D01*
X28774Y69367D01*
X28819Y69326D01*
X28877Y69291D01*
X28947Y69263D01*
X29031Y69241D01*
X29127Y69225D01*
X29236Y69216D01*
X29358Y69213D01*
Y68583D01*
X29236Y68580D01*
X29127Y68570D01*
X29031Y68554D01*
X28947Y68532D01*
X28877Y68504D01*
X28819Y68469D01*
X28774Y68428D01*
X28742Y68381D01*
X28723Y68328D01*
X28716Y68268D01*
Y69528D01*
X28723Y69468D01*
D02*
G37*
G36*
X22835Y66929D02*
Y62992D01*
X16535D01*
Y66929D01*
X18898Y69291D01*
X20472D01*
X22835Y66929D01*
D02*
G37*
G36*
X41230Y40775D02*
X41306Y40712D01*
X41383Y40656D01*
X41463Y40607D01*
X41544Y40566D01*
X41627Y40532D01*
X41712Y40506D01*
X41798Y40487D01*
X41886Y40476D01*
X41976Y40472D01*
Y39843D01*
X41886Y39839D01*
X41798Y39828D01*
X41712Y39809D01*
X41627Y39783D01*
X41544Y39749D01*
X41463Y39708D01*
X41383Y39659D01*
X41306Y39603D01*
X41230Y39540D01*
X41156Y39469D01*
Y40846D01*
X41230Y40775D01*
D02*
G37*
G36*
X46459Y40045D02*
X46468Y39946D01*
X46483Y39852D01*
X46505Y39761D01*
X46533Y39675D01*
X46568Y39592D01*
X46609Y39514D01*
X46657Y39440D01*
X46711Y39369D01*
X46772Y39303D01*
X46327Y38858D01*
X46260Y38919D01*
X46190Y38973D01*
X46116Y39021D01*
X46038Y39062D01*
X45955Y39097D01*
X45869Y39125D01*
X45778Y39147D01*
X45684Y39162D01*
X45585Y39171D01*
X45482Y39173D01*
X46457Y40148D01*
X46459Y40045D01*
D02*
G37*
G36*
X50423Y38110D02*
X50321Y38108D01*
X50222Y38099D01*
X50127Y38084D01*
X50037Y38062D01*
X49950Y38034D01*
X49868Y37999D01*
X49790Y37958D01*
X49715Y37910D01*
X49645Y37856D01*
X49579Y37795D01*
X49133Y38240D01*
X49194Y38306D01*
X49249Y38377D01*
X49297Y38451D01*
X49338Y38529D01*
X49373Y38612D01*
X49401Y38698D01*
X49423Y38789D01*
X49438Y38883D01*
X49447Y38982D01*
X49449Y39085D01*
X50423Y38110D01*
D02*
G37*
G36*
X60357Y21955D02*
X60378Y21753D01*
X60396Y21671D01*
X60420Y21602D01*
X60449Y21545D01*
X60483Y21501D01*
X60523Y21470D01*
X60568Y21451D01*
X60618Y21445D01*
X59461D01*
X59511Y21451D01*
X59556Y21470D01*
X59595Y21501D01*
X59629Y21545D01*
X59658Y21602D01*
X59682Y21671D01*
X59701Y21753D01*
X59714Y21848D01*
X59722Y21955D01*
X59724Y22075D01*
X60354D01*
X60357Y21955D01*
D02*
G37*
G36*
X56420D02*
X56441Y21753D01*
X56459Y21671D01*
X56483Y21602D01*
X56512Y21545D01*
X56546Y21501D01*
X56586Y21470D01*
X56631Y21451D01*
X56681Y21445D01*
X55524D01*
X55574Y21451D01*
X55619Y21470D01*
X55658Y21501D01*
X55692Y21545D01*
X55721Y21602D01*
X55745Y21671D01*
X55764Y21753D01*
X55777Y21848D01*
X55785Y21955D01*
X55787Y22075D01*
X56417D01*
X56420Y21955D01*
D02*
G37*
G36*
X52483D02*
X52504Y21753D01*
X52522Y21671D01*
X52546Y21602D01*
X52575Y21545D01*
X52609Y21501D01*
X52649Y21470D01*
X52694Y21451D01*
X52744Y21445D01*
X51587D01*
X51637Y21451D01*
X51682Y21470D01*
X51721Y21501D01*
X51755Y21545D01*
X51784Y21602D01*
X51808Y21671D01*
X51827Y21753D01*
X51840Y21848D01*
X51848Y21955D01*
X51850Y22075D01*
X52480D01*
X52483Y21955D01*
D02*
G37*
G36*
X58570Y16357D02*
X58523Y16340D01*
X58482Y16312D01*
X58446Y16273D01*
X58415Y16222D01*
X58390Y16160D01*
X58371Y16087D01*
X58358Y16002D01*
X58349Y15906D01*
X58346Y15799D01*
X57795D01*
X57793Y15906D01*
X57784Y16002D01*
X57771Y16087D01*
X57751Y16160D01*
X57726Y16222D01*
X57696Y16273D01*
X57660Y16312D01*
X57619Y16340D01*
X57572Y16357D01*
X57520Y16363D01*
X58622D01*
X58570Y16357D01*
D02*
G37*
G36*
X60516Y8143D02*
X60528Y8058D01*
X60549Y7974D01*
X60578Y7890D01*
X60615Y7807D01*
X60661Y7723D01*
X60714Y7641D01*
X60776Y7559D01*
X60847Y7477D01*
X60925Y7396D01*
X59547D01*
X59626Y7477D01*
X59696Y7559D01*
X59758Y7641D01*
X59812Y7723D01*
X59857Y7807D01*
X59895Y7890D01*
X59923Y7974D01*
X59944Y8058D01*
X59957Y8143D01*
X59961Y8228D01*
X60512D01*
X60516Y8143D01*
D02*
G37*
G36*
X54724Y14764D02*
X55315Y14173D01*
Y11811D01*
Y7087D01*
Y6813D01*
X55105Y6306D01*
X54718Y5918D01*
X54211Y5709D01*
X53741D01*
X53379Y5858D01*
X53103Y6135D01*
X52953Y6497D01*
Y6693D01*
Y11811D01*
Y14173D01*
X53543Y14764D01*
Y18898D01*
X54724D01*
Y14764D01*
D02*
G37*
G36*
X50787Y14764D02*
X51378Y14173D01*
Y6693D01*
Y6458D01*
X51198Y6024D01*
X50866Y5692D01*
X50432Y5512D01*
X49962D01*
X49528Y5692D01*
X49196Y6024D01*
X49016Y6458D01*
Y6693D01*
Y14173D01*
X49606Y14764D01*
Y21457D01*
X50787D01*
Y14764D01*
D02*
G37*
D13*
X101181Y31693D02*
D03*
X40551D02*
D03*
D14*
X93504Y18898D02*
D03*
X91535D02*
D03*
X89567D02*
D03*
X87598D02*
D03*
X85630D02*
D03*
X83661D02*
D03*
X81693D02*
D03*
X79724D02*
D03*
X77756D02*
D03*
X75787D02*
D03*
X73819D02*
D03*
X71850D02*
D03*
X69882D02*
D03*
X67913D02*
D03*
X65945D02*
D03*
X63976D02*
D03*
X62008D02*
D03*
X60039D02*
D03*
X58071D02*
D03*
X56102D02*
D03*
X54134D02*
D03*
X52165D02*
D03*
X50197D02*
D03*
X48228D02*
D03*
D15*
X66535Y9055D02*
D03*
X70472D02*
D03*
Y12992D02*
D03*
X74409D02*
D03*
X54134D02*
D03*
X50197D02*
D03*
Y9055D02*
D03*
X54134D02*
D03*
D16*
X27559Y72835D02*
D03*
Y68898D02*
D03*
D17*
X19685Y76772D02*
D03*
Y64961D02*
D03*
Y120079D02*
D03*
Y108268D02*
D03*
X122047Y120079D02*
D03*
Y108268D02*
D03*
Y76772D02*
D03*
Y64961D02*
D03*
D26*
X86614Y75984D02*
X90197Y79567D01*
X86614Y70669D02*
Y75984D01*
X83858Y67913D02*
X86614Y70669D01*
X84646Y77165D02*
X92047Y84567D01*
X84646Y71653D02*
Y77165D01*
X81890Y68898D02*
X84646Y71653D01*
X82677Y80197D02*
X92047Y89567D01*
X82677Y72835D02*
Y80197D01*
X79921Y70079D02*
X82677Y72835D01*
X80709Y74016D02*
Y83228D01*
X77953Y71260D02*
X80709Y74016D01*
Y83228D02*
X92047Y94567D01*
X75984Y72441D02*
X78740Y75197D01*
Y86260D01*
X92047Y99567D01*
X90197Y79567D02*
X92047D01*
X85827Y66811D02*
X92047Y73032D01*
X108661Y61024D02*
X113779Y55905D01*
X97402Y61024D02*
X108661D01*
X113779Y55905D02*
X120079D01*
X92047Y66378D02*
X97402Y61024D01*
X40453Y40157D02*
X42520D01*
X45669Y29921D02*
Y37008D01*
X42520Y40157D02*
X45669Y37008D01*
X47244Y30709D02*
Y38386D01*
X45472Y40157D02*
X47244Y38386D01*
X75590Y25591D02*
X77756Y23425D01*
Y18898D02*
Y23425D01*
X75590Y25591D02*
Y28150D01*
X79921Y32480D01*
X27559Y72835D02*
X27559Y72835D01*
X19685Y72835D02*
X27559D01*
X30315Y68898D02*
X30984Y69567D01*
X33937D01*
X27559Y68898D02*
X30315D01*
X89764Y60748D02*
X92047Y63032D01*
X85827Y30118D02*
Y66811D01*
X89764Y57874D02*
Y60748D01*
X73819Y18898D02*
Y28937D01*
X71850Y18898D02*
Y29724D01*
X69882Y18898D02*
Y23819D01*
X55966Y19034D02*
X56102Y18898D01*
Y22638D01*
X60039Y18898D02*
Y22638D01*
X52165Y18898D02*
Y23425D01*
X63976Y18898D02*
Y27362D01*
X85630Y18898D02*
Y27165D01*
X79724Y18898D02*
Y29528D01*
X83661Y18898D02*
Y27953D01*
X81693Y18898D02*
Y28740D01*
X89567Y18898D02*
Y22244D01*
X87598Y18898D02*
Y22244D01*
X71850Y29724D02*
X75984Y33858D01*
Y72441D01*
X60433Y33268D02*
X69882Y23819D01*
X77953Y33071D02*
Y71260D01*
X73819Y28937D02*
X77953Y33071D01*
X79921Y32480D02*
Y70079D01*
X48819Y31496D02*
X55118Y25197D01*
X57480D02*
X60039Y22638D01*
X55118Y25197D02*
X57480D01*
X90551D02*
Y57087D01*
X89764Y57874D02*
X90551Y57087D01*
X79724Y29528D02*
X81890Y31693D01*
X81693Y28740D02*
X83858Y30906D01*
X83661Y27953D02*
X85827Y30118D01*
X81890Y31693D02*
Y68898D01*
X85630Y27165D02*
X87795Y29331D01*
X83858Y30906D02*
Y67913D01*
X87795Y29331D02*
Y65315D01*
X87598Y22244D02*
X90551Y25197D01*
X89567Y22244D02*
X92047Y24724D01*
Y59567D01*
X87795Y65315D02*
X92047Y69567D01*
X60433Y33268D02*
Y39094D01*
X55433Y35906D02*
X63976Y27362D01*
X55433Y35906D02*
Y39094D01*
X55512Y23228D02*
X56102Y22638D01*
X47244Y30709D02*
X54724Y23228D01*
X55512D01*
X48819Y31496D02*
Y37480D01*
X45669Y29921D02*
X52165Y23425D01*
X48819Y37480D02*
X50433Y39094D01*
D27*
X58071Y11220D02*
Y18898D01*
X60236Y6693D02*
Y9055D01*
X58071Y11220D02*
X60236Y9055D01*
X73622Y9843D02*
X73622D01*
X70472Y12992D02*
X73622Y9843D01*
D28*
X12205Y98425D02*
D03*
X19291D02*
D03*
X12205Y47244D02*
D03*
X19291D02*
D03*
D29*
X88583Y102362D02*
D03*
X33465Y49606D02*
D03*
X62992Y9449D02*
D03*
X44094Y21654D02*
D03*
X51181Y35827D02*
D03*
X94095Y42520D02*
D03*
X66535Y38976D02*
D03*
X23622Y47244D02*
D03*
Y51968D02*
D03*
X2362Y2362D02*
D03*
X139370D02*
D03*
X44980Y6398D02*
D03*
X15650D02*
D03*
X70472Y36614D02*
D03*
X94095Y33465D02*
D03*
X127559Y33071D02*
D03*
X130709Y40157D02*
D03*
X127559Y104331D02*
D03*
X131102Y114961D02*
D03*
X115748D02*
D03*
X96850Y37795D02*
D03*
X137795Y43307D02*
D03*
Y47244D02*
D03*
X22047Y39370D02*
D03*
Y55118D02*
D03*
X12598Y94095D02*
D03*
Y102756D02*
D03*
X30315Y35039D02*
D03*
X20472Y18504D02*
D03*
X116929Y105512D02*
D03*
X111417Y37402D02*
D03*
X88976Y73228D02*
D03*
X92047Y73032D02*
D03*
X114961Y101181D02*
D03*
X134646Y20079D02*
D03*
X128740D02*
D03*
X134646Y25197D02*
D03*
X128740D02*
D03*
X88189Y4724D02*
D03*
X94095D02*
D03*
X88189Y9843D02*
D03*
X94095D02*
D03*
X128740D02*
D03*
X134646D02*
D03*
X128740Y4724D02*
D03*
X134646D02*
D03*
X116929Y61024D02*
D03*
X114961Y58268D02*
D03*
X105512Y64173D02*
D03*
X108661D02*
D03*
Y57874D02*
D03*
X33937Y94567D02*
D03*
Y99567D02*
D03*
X26772Y44488D02*
D03*
X30315D02*
D03*
X20079Y33858D02*
D03*
X46457Y24803D02*
D03*
X40453Y40157D02*
D03*
X45472D02*
D03*
X122047Y116929D02*
D03*
X120079Y55905D02*
D03*
X77559Y26772D02*
D03*
X128347Y67323D02*
D03*
Y59449D02*
D03*
X128347Y63386D02*
D03*
X136221Y59449D02*
D03*
Y67323D02*
D03*
Y63386D02*
D03*
X19685Y72835D02*
D03*
X33937Y69567D02*
D03*
X23228Y87008D02*
D03*
X92047Y66378D02*
D03*
X92047Y63032D02*
D03*
X33071Y114567D02*
D03*
X92047Y76378D02*
D03*
X111417Y89370D02*
D03*
X114961Y88189D02*
D03*
X111811Y104331D02*
D03*
Y107874D02*
D03*
X132677Y96457D02*
D03*
X118504Y89764D02*
D03*
X119291Y44488D02*
D03*
Y48031D02*
D03*
Y51181D02*
D03*
X123622Y45669D02*
D03*
X103150Y44488D02*
D03*
X33937Y107874D02*
D03*
Y104567D02*
D03*
X103543Y90158D02*
D03*
X111811Y100394D02*
D03*
X12992Y65354D02*
D03*
X127559Y82284D02*
D03*
X19685Y68110D02*
D03*
Y116929D02*
D03*
X73622Y9843D02*
D03*
X53937Y6693D02*
D03*
X50197D02*
D03*
X66535D02*
D03*
X70472D02*
D03*
X57087D02*
D03*
X60236D02*
D03*
X87992Y25591D02*
D03*
X94587D02*
D03*
X92047Y99567D02*
D03*
Y94567D02*
D03*
Y89567D02*
D03*
Y84567D02*
D03*
Y79567D02*
D03*
Y69567D02*
D03*
Y59567D02*
D03*
X60433Y39094D02*
D03*
X55433D02*
D03*
X50433D02*
D03*
X66929Y32283D02*
D03*
X51181D02*
D03*
X70866D02*
D03*
X55118D02*
D03*
X111811Y114961D02*
D03*
X129134Y47244D02*
D03*
X111417Y40945D02*
D03*
X125591Y39370D02*
D03*
X114173Y82284D02*
D03*
X116929Y85433D02*
D03*
X92913Y114567D02*
D03*
X108268Y88583D02*
D03*
X105512Y85433D02*
D03*
X103543Y82284D02*
D03*
X111024Y70079D02*
D03*
X131496Y45276D02*
D03*
X125984Y55709D02*
D03*
X128347D02*
D03*
Y53347D02*
D03*
D30*
X63386Y81496D02*
D03*
X74409D02*
D03*
Y87008D02*
D03*
X63386D02*
D03*
X66142Y78740D02*
D03*
X71653D02*
D03*
Y89764D02*
D03*
X66142D02*
D03*
Y84252D02*
D03*
X71653D02*
D03*
X68898Y81496D02*
D03*
Y87008D02*
D03*
M02*
