G04*
G04 #@! TF.GenerationSoftware,Altium Limited,Altium Designer,24.10.1 (45)*
G04*
G04 Layer_Physical_Order=3*
G04 Layer_Color=16440176*
%FSLAX25Y25*%
%MOIN*%
G70*
G04*
G04 #@! TF.SameCoordinates,F1BA22F4-9FB4-4C3A-9B32-68D4286BD9C5*
G04*
G04*
G04 #@! TF.FilePolarity,Positive*
G04*
G01*
G75*
%ADD10C,0.00787*%
%ADD26C,0.00630*%
%ADD29C,0.01968*%
%ADD30C,0.02756*%
G36*
X140528Y107110D02*
Y20330D01*
X139763Y20125D01*
X139622Y20055D01*
X139473Y20005D01*
X138494Y19439D01*
X138375Y19335D01*
X138244Y19248D01*
X137445Y18449D01*
X137357Y18317D01*
X137254Y18199D01*
X136688Y17220D01*
X136638Y17071D01*
X136568Y16930D01*
X136275Y15838D01*
X136265Y15680D01*
X136234Y15526D01*
Y14395D01*
X136265Y14241D01*
X136275Y14084D01*
X136568Y12992D01*
X136638Y12850D01*
X136688Y12701D01*
X137254Y11722D01*
X137357Y11604D01*
X137445Y11473D01*
X138244Y10673D01*
X138375Y10586D01*
X138494Y10482D01*
X139473Y9917D01*
X139622Y9866D01*
X139763Y9796D01*
X140528Y9591D01*
Y1204D01*
X1204D01*
Y9591D01*
X1969Y9796D01*
X2110Y9866D01*
X2259Y9917D01*
X3238Y10482D01*
X3357Y10586D01*
X3488Y10673D01*
X4287Y11473D01*
X4375Y11604D01*
X4479Y11722D01*
X5044Y12701D01*
X5094Y12850D01*
X5164Y12992D01*
X5457Y14084D01*
X5467Y14241D01*
X5498Y14395D01*
Y15526D01*
X5467Y15680D01*
X5457Y15838D01*
X5164Y16930D01*
X5094Y17071D01*
X5044Y17220D01*
X4479Y18199D01*
X4375Y18317D01*
X4287Y18449D01*
X3488Y19248D01*
X3357Y19335D01*
X3238Y19439D01*
X2259Y20005D01*
X2110Y20055D01*
X1969Y20125D01*
X1204Y20330D01*
Y26273D01*
X7843Y32911D01*
X7859Y32936D01*
X7883Y32954D01*
X8259Y33369D01*
X8305Y33445D01*
X8368Y33508D01*
X8989Y34438D01*
X9035Y34547D01*
X9101Y34646D01*
X9528Y35679D01*
X9551Y35795D01*
X9597Y35905D01*
X9815Y37001D01*
Y37091D01*
X9837Y37177D01*
X9864Y37736D01*
X9860Y37766D01*
X9866Y37795D01*
Y45410D01*
X10266Y45564D01*
X10633Y45196D01*
X11217Y44859D01*
X11868Y44685D01*
X12542D01*
X13193Y44859D01*
X13776Y45196D01*
X14253Y45673D01*
X14589Y46256D01*
X14764Y46907D01*
Y47581D01*
X14589Y48232D01*
X14253Y48815D01*
X13776Y49292D01*
X13193Y49629D01*
X12542Y49803D01*
X11868D01*
X11217Y49629D01*
X10633Y49292D01*
X10266Y48924D01*
X9866Y49078D01*
Y96592D01*
X10266Y96745D01*
X10633Y96377D01*
X11217Y96040D01*
X11868Y95866D01*
X12542D01*
X13193Y96040D01*
X13776Y96377D01*
X14253Y96854D01*
X14589Y97437D01*
X14764Y98088D01*
Y98762D01*
X14589Y99413D01*
X14253Y99997D01*
X13776Y100473D01*
X13193Y100810D01*
X12542Y100984D01*
X11868D01*
X11217Y100810D01*
X10633Y100473D01*
X10266Y100105D01*
X9866Y100259D01*
Y107503D01*
X18291Y115929D01*
X18726Y115494D01*
X19348Y115236D01*
X20022D01*
X20644Y115494D01*
X21120Y115970D01*
X21191Y116142D01*
X44912D01*
X120541Y116142D01*
X120612Y115970D01*
X121088Y115494D01*
X121711Y115236D01*
X122384D01*
X123006Y115494D01*
X123482Y115970D01*
X123554Y116142D01*
X131496D01*
X140528Y107110D01*
D02*
G37*
%LPC*%
G36*
X34274Y109567D02*
X33600D01*
X32978Y109309D01*
X32502Y108833D01*
X32244Y108211D01*
Y107537D01*
X32502Y106915D01*
X32978Y106439D01*
X33022Y106421D01*
Y106020D01*
X32978Y106002D01*
X32502Y105526D01*
X32244Y104904D01*
Y104230D01*
X32502Y103608D01*
X32978Y103132D01*
X33600Y102874D01*
X34274D01*
X34896Y103132D01*
X35372Y103608D01*
X35630Y104230D01*
Y104904D01*
X35372Y105526D01*
X34896Y106002D01*
X34852Y106020D01*
Y106421D01*
X34896Y106439D01*
X35372Y106915D01*
X35630Y107537D01*
Y108211D01*
X35372Y108833D01*
X34896Y109309D01*
X34274Y109567D01*
D02*
G37*
G36*
X112148D02*
X111474D01*
X110852Y109309D01*
X110376Y108833D01*
X110118Y108211D01*
Y107537D01*
X110376Y106915D01*
X110852Y106439D01*
X111142Y106319D01*
Y105886D01*
X110852Y105766D01*
X110376Y105290D01*
X110118Y104667D01*
Y103994D01*
X110376Y103372D01*
X110852Y102895D01*
X111474Y102638D01*
X112148D01*
X112770Y102895D01*
X113246Y103372D01*
X113504Y103994D01*
Y104667D01*
X113246Y105290D01*
X112770Y105766D01*
X112480Y105886D01*
Y106319D01*
X112770Y106439D01*
X113246Y106915D01*
X113504Y107537D01*
Y108211D01*
X113246Y108833D01*
X112770Y109309D01*
X112148Y109567D01*
D02*
G37*
G36*
X92384Y101260D02*
X91711D01*
X91088Y101002D01*
X90612Y100526D01*
X90354Y99904D01*
Y99230D01*
X90612Y98608D01*
X91088Y98132D01*
X91711Y97874D01*
X92384D01*
X93006Y98132D01*
X93482Y98608D01*
X93740Y99230D01*
Y99904D01*
X93482Y100526D01*
X93006Y101002D01*
X92384Y101260D01*
D02*
G37*
G36*
X34274D02*
X33600D01*
X32978Y101002D01*
X32502Y100526D01*
X32244Y99904D01*
Y99230D01*
X32502Y98608D01*
X32978Y98132D01*
X33600Y97874D01*
X33870D01*
X33931Y97860D01*
X34010Y97859D01*
X34059Y97854D01*
X34101Y97848D01*
X34136Y97839D01*
X34166Y97829D01*
X34192Y97818D01*
X34216Y97806D01*
X34233Y97794D01*
X35177Y96851D01*
Y96244D01*
X34777Y96052D01*
X34274Y96260D01*
X33600D01*
X32978Y96002D01*
X32502Y95526D01*
X32244Y94904D01*
Y94634D01*
X32230Y94573D01*
X32229Y94494D01*
X32224Y94445D01*
X32218Y94403D01*
X32209Y94368D01*
X32199Y94337D01*
X32188Y94311D01*
X32176Y94288D01*
X32164Y94270D01*
X28002Y90108D01*
X27776Y89770D01*
X27696Y89370D01*
X27696Y89370D01*
Y46889D01*
X27068Y46261D01*
X27050Y46249D01*
X27027Y46237D01*
X27001Y46226D01*
X26971Y46216D01*
X26935Y46207D01*
X26893Y46201D01*
X26844Y46196D01*
X26766Y46195D01*
X26704Y46181D01*
X26435D01*
X25813Y45923D01*
X25337Y45447D01*
X25079Y44825D01*
Y44151D01*
X25337Y43529D01*
X25813Y43053D01*
X26435Y42795D01*
X27108D01*
X27731Y43053D01*
X28207Y43529D01*
X28327Y43819D01*
X28760D01*
X28880Y43529D01*
X29356Y43053D01*
X29978Y42795D01*
X30652D01*
X31274Y43053D01*
X31750Y43529D01*
X32008Y44151D01*
Y44825D01*
X31750Y45447D01*
X31560Y45638D01*
X31526Y45691D01*
X31471Y45748D01*
X31440Y45785D01*
X31415Y45820D01*
X31396Y45851D01*
X31381Y45879D01*
X31371Y45906D01*
X31363Y45930D01*
X31359Y45951D01*
Y87363D01*
X36958Y92963D01*
X36959Y92963D01*
X37185Y93301D01*
X37264Y93701D01*
Y97283D01*
X37264Y97284D01*
X37185Y97683D01*
X36959Y98022D01*
X36958Y98022D01*
X35710Y99270D01*
X35698Y99288D01*
X35686Y99311D01*
X35675Y99338D01*
X35665Y99368D01*
X35656Y99403D01*
X35650Y99445D01*
X35645Y99494D01*
X35644Y99573D01*
X35630Y99634D01*
Y99904D01*
X35372Y100526D01*
X34896Y101002D01*
X34274Y101260D01*
D02*
G37*
G36*
X19628Y100984D02*
X18954D01*
X18304Y100810D01*
X17720Y100473D01*
X17244Y99997D01*
X16907Y99413D01*
X16732Y98762D01*
Y98088D01*
X16907Y97437D01*
X17244Y96854D01*
X17720Y96377D01*
X18304Y96040D01*
X18954Y95866D01*
X19628D01*
X20279Y96040D01*
X20863Y96377D01*
X21339Y96854D01*
X21676Y97437D01*
X21850Y98088D01*
Y98762D01*
X21676Y99413D01*
X21339Y99997D01*
X20863Y100473D01*
X20279Y100810D01*
X19628Y100984D01*
D02*
G37*
G36*
X133014Y98150D02*
X132340D01*
X131718Y97892D01*
X131242Y97416D01*
X130984Y96793D01*
Y96120D01*
X131242Y95498D01*
X131718Y95021D01*
X132340Y94764D01*
X133014D01*
X133636Y95021D01*
X134112Y95498D01*
X134370Y96120D01*
Y96793D01*
X134112Y97416D01*
X133636Y97892D01*
X133014Y98150D01*
D02*
G37*
G36*
X92384Y96260D02*
X91711D01*
X91088Y96002D01*
X90612Y95526D01*
X90354Y94904D01*
Y94230D01*
X90612Y93608D01*
X91088Y93132D01*
X91711Y92874D01*
X92384D01*
X93006Y93132D01*
X93482Y93608D01*
X93740Y94230D01*
Y94904D01*
X93482Y95526D01*
X93006Y96002D01*
X92384Y96260D01*
D02*
G37*
G36*
X103880Y91850D02*
X103207D01*
X102584Y91593D01*
X102108Y91116D01*
X101850Y90494D01*
Y89821D01*
X102108Y89198D01*
X102584Y88722D01*
X103207Y88465D01*
X103880D01*
X104502Y88722D01*
X104979Y89198D01*
X105236Y89821D01*
Y90494D01*
X104979Y91116D01*
X104502Y91593D01*
X103880Y91850D01*
D02*
G37*
G36*
X92384Y91260D02*
X91711D01*
X91088Y91002D01*
X90612Y90526D01*
X90354Y89904D01*
Y89230D01*
X90612Y88608D01*
X91088Y88132D01*
X91711Y87874D01*
X92384D01*
X93006Y88132D01*
X93482Y88608D01*
X93740Y89230D01*
Y89904D01*
X93482Y90526D01*
X93006Y91002D01*
X92384Y91260D01*
D02*
G37*
G36*
X23565Y88701D02*
X22892D01*
X22269Y88443D01*
X21793Y87967D01*
X21535Y87345D01*
Y86671D01*
X21793Y86049D01*
X22269Y85573D01*
X22892Y85315D01*
X23565D01*
X24187Y85573D01*
X24664Y86049D01*
X24921Y86671D01*
Y87345D01*
X24664Y87967D01*
X24187Y88443D01*
X23565Y88701D01*
D02*
G37*
G36*
X111754Y91063D02*
X111081D01*
X110458Y90805D01*
X109982Y90329D01*
X109724Y89707D01*
Y89033D01*
X109982Y88411D01*
X110458Y87935D01*
X111081Y87677D01*
X111754D01*
X112376Y87935D01*
X112853Y88411D01*
X112868Y88448D01*
X113268Y88368D01*
Y87852D01*
X113525Y87230D01*
X114002Y86754D01*
X114624Y86496D01*
X115104D01*
X115381Y86141D01*
X115384Y86127D01*
X115236Y85770D01*
Y85096D01*
X115494Y84474D01*
X115970Y83998D01*
X116592Y83740D01*
X117266D01*
X117888Y83998D01*
X118364Y84474D01*
X118622Y85096D01*
Y85770D01*
X118364Y86392D01*
X117888Y86868D01*
X117266Y87126D01*
X116786D01*
X116509Y87481D01*
X116506Y87495D01*
X116654Y87852D01*
Y88526D01*
X116396Y89148D01*
X115920Y89624D01*
X115297Y89882D01*
X114624D01*
X114002Y89624D01*
X113525Y89148D01*
X113510Y89111D01*
X113110Y89191D01*
Y89707D01*
X112853Y90329D01*
X112376Y90805D01*
X111754Y91063D01*
D02*
G37*
G36*
X92384Y86260D02*
X91711D01*
X91088Y86002D01*
X90612Y85526D01*
X90354Y84904D01*
Y84230D01*
X90612Y83608D01*
X91088Y83132D01*
X91711Y82874D01*
X92384D01*
X93006Y83132D01*
X93482Y83608D01*
X93740Y84230D01*
Y84904D01*
X93482Y85526D01*
X93006Y86002D01*
X92384Y86260D01*
D02*
G37*
G36*
X114510Y83976D02*
X113837D01*
X113214Y83719D01*
X112738Y83242D01*
X112480Y82620D01*
Y81947D01*
X112738Y81324D01*
X113214Y80848D01*
X113837Y80591D01*
X114510D01*
X115132Y80848D01*
X115608Y81324D01*
X115866Y81947D01*
Y82620D01*
X115608Y83242D01*
X115132Y83719D01*
X114510Y83976D01*
D02*
G37*
G36*
X127896Y83976D02*
X127222D01*
X126600Y83719D01*
X126124Y83242D01*
X125866Y82620D01*
Y81947D01*
X126124Y81324D01*
X126600Y80848D01*
X127222Y80590D01*
X127896D01*
X128518Y80848D01*
X128994Y81324D01*
X129252Y81947D01*
Y82620D01*
X128994Y83242D01*
X128518Y83719D01*
X127896Y83976D01*
D02*
G37*
G36*
X103880D02*
X103207D01*
X102584Y83719D01*
X102108Y83242D01*
X101850Y82620D01*
Y81947D01*
X102108Y81324D01*
X102584Y80848D01*
X103207Y80590D01*
X103880D01*
X104502Y80848D01*
X104979Y81324D01*
X105236Y81947D01*
Y82620D01*
X104979Y83242D01*
X104502Y83719D01*
X103880Y83976D01*
D02*
G37*
G36*
X20022Y74528D02*
X19348D01*
X18726Y74270D01*
X18250Y73794D01*
X17992Y73171D01*
Y72498D01*
X18250Y71876D01*
X18726Y71399D01*
X19348Y71142D01*
X20022D01*
X20644Y71399D01*
X21120Y71876D01*
X21378Y72498D01*
Y73171D01*
X21120Y73794D01*
X20644Y74270D01*
X20022Y74528D01*
D02*
G37*
G36*
X34274Y71260D02*
X33600D01*
X32978Y71002D01*
X32502Y70526D01*
X32244Y69904D01*
Y69230D01*
X32502Y68608D01*
X32978Y68132D01*
X33600Y67874D01*
X34274D01*
X34896Y68132D01*
X35372Y68608D01*
X35630Y69230D01*
Y69904D01*
X35372Y70526D01*
X34896Y71002D01*
X34274Y71260D01*
D02*
G37*
G36*
X20022Y69803D02*
X19348D01*
X18726Y69545D01*
X18250Y69069D01*
X17992Y68447D01*
Y67773D01*
X18250Y67151D01*
X18726Y66675D01*
X19348Y66417D01*
X20022D01*
X20644Y66675D01*
X21120Y67151D01*
X21378Y67773D01*
Y68447D01*
X21120Y69069D01*
X20644Y69545D01*
X20022Y69803D01*
D02*
G37*
G36*
X136557Y69016D02*
X135884D01*
X135261Y68758D01*
X134785Y68282D01*
X134528Y67660D01*
Y66986D01*
X134785Y66364D01*
X135261Y65888D01*
X135884Y65630D01*
X136557D01*
X137179Y65888D01*
X137656Y66364D01*
X137913Y66986D01*
Y67660D01*
X137656Y68282D01*
X137179Y68758D01*
X136557Y69016D01*
D02*
G37*
G36*
X13329Y67047D02*
X12655D01*
X12033Y66790D01*
X11557Y66313D01*
X11299Y65691D01*
Y65018D01*
X11557Y64395D01*
X12033Y63919D01*
X12655Y63661D01*
X13329D01*
X13951Y63919D01*
X14427Y64395D01*
X14685Y65018D01*
Y65691D01*
X14427Y66313D01*
X13951Y66790D01*
X13329Y67047D01*
D02*
G37*
G36*
X105849Y65866D02*
X105175D01*
X104553Y65608D01*
X104077Y65132D01*
X103819Y64510D01*
Y63836D01*
X104077Y63214D01*
X104553Y62738D01*
X105175Y62480D01*
X105849D01*
X106471Y62738D01*
X106947Y63214D01*
X107205Y63836D01*
Y64510D01*
X106947Y65132D01*
X106471Y65608D01*
X105849Y65866D01*
D02*
G37*
G36*
X136557Y65079D02*
X135884D01*
X135261Y64821D01*
X134785Y64345D01*
X134528Y63723D01*
Y63049D01*
X134785Y62427D01*
X135261Y61951D01*
X135884Y61693D01*
X136557D01*
X137179Y61951D01*
X137656Y62427D01*
X137913Y63049D01*
Y63723D01*
X137656Y64345D01*
X137179Y64821D01*
X136557Y65079D01*
D02*
G37*
G36*
X92384Y81260D02*
X91711D01*
X91088Y81002D01*
X90612Y80526D01*
X90354Y79904D01*
Y79230D01*
X90612Y78608D01*
X91007Y78213D01*
X91056Y77972D01*
X91007Y77732D01*
X90612Y77337D01*
X90354Y76715D01*
Y76041D01*
X90612Y75419D01*
X91088Y74943D01*
X91180Y74905D01*
Y74505D01*
X91088Y74467D01*
X90612Y73990D01*
X90354Y73368D01*
Y72695D01*
X90612Y72072D01*
X91088Y71596D01*
X91283Y71516D01*
Y71083D01*
X91088Y71002D01*
X90612Y70526D01*
X90354Y69904D01*
Y69230D01*
X90612Y68608D01*
X91007Y68213D01*
X91056Y67972D01*
X91007Y67732D01*
X90612Y67337D01*
X90354Y66715D01*
Y66041D01*
X90612Y65419D01*
X91088Y64943D01*
X91180Y64905D01*
Y64505D01*
X91088Y64467D01*
X90612Y63990D01*
X90354Y63368D01*
Y62695D01*
X90612Y62072D01*
X91088Y61596D01*
X91283Y61516D01*
Y61083D01*
X91088Y61002D01*
X90612Y60526D01*
X90354Y59904D01*
Y59230D01*
X90612Y58608D01*
X91088Y58132D01*
X91711Y57874D01*
X92384D01*
X93006Y58132D01*
X93482Y58608D01*
X93740Y59230D01*
Y59904D01*
X93482Y60526D01*
X93006Y61002D01*
X92812Y61083D01*
Y61516D01*
X93006Y61596D01*
X93482Y62072D01*
X93740Y62695D01*
Y63368D01*
X93482Y63990D01*
X93006Y64467D01*
X92914Y64505D01*
Y64905D01*
X93006Y64943D01*
X93482Y65419D01*
X93740Y66041D01*
Y66715D01*
X93482Y67337D01*
X93087Y67732D01*
X93038Y67972D01*
X93087Y68213D01*
X93482Y68608D01*
X93740Y69230D01*
Y69904D01*
X93482Y70526D01*
X93006Y71002D01*
X92812Y71083D01*
Y71516D01*
X93006Y71596D01*
X93482Y72072D01*
X93740Y72695D01*
Y73368D01*
X93482Y73990D01*
X93006Y74467D01*
X92914Y74505D01*
Y74905D01*
X93006Y74943D01*
X93482Y75419D01*
X93740Y76041D01*
Y76715D01*
X93482Y77337D01*
X93087Y77732D01*
X93038Y77973D01*
X93087Y78213D01*
X93482Y78608D01*
X93740Y79230D01*
Y79904D01*
X93482Y80526D01*
X93006Y81002D01*
X92384Y81260D01*
D02*
G37*
G36*
X136557Y61142D02*
X135884D01*
X135261Y60884D01*
X134785Y60408D01*
X134528Y59786D01*
Y59112D01*
X134785Y58490D01*
X135261Y58014D01*
X135884Y57756D01*
X136557D01*
X137179Y58014D01*
X137656Y58490D01*
X137913Y59112D01*
Y59786D01*
X137656Y60408D01*
X137179Y60884D01*
X136557Y61142D01*
D02*
G37*
G36*
X117266Y62717D02*
X116592D01*
X115970Y62459D01*
X115494Y61983D01*
X115236Y61360D01*
Y60687D01*
X115384Y60330D01*
X115381Y60316D01*
X115104Y59961D01*
X114624D01*
X114002Y59703D01*
X113525Y59227D01*
X113268Y58605D01*
Y57931D01*
X113525Y57309D01*
X114002Y56832D01*
X114624Y56575D01*
X115297D01*
X115920Y56832D01*
X116396Y57309D01*
X116654Y57931D01*
Y58605D01*
X116506Y58961D01*
X116509Y58975D01*
X116786Y59331D01*
X117266D01*
X117888Y59588D01*
X118364Y60065D01*
X118622Y60687D01*
Y61360D01*
X118364Y61983D01*
X117888Y62459D01*
X117266Y62717D01*
D02*
G37*
G36*
X120415Y57598D02*
X119742D01*
X119120Y57341D01*
X118644Y56865D01*
X118386Y56242D01*
Y55569D01*
X118644Y54947D01*
X119120Y54470D01*
X119742Y54213D01*
X120415D01*
X121038Y54470D01*
X121514Y54947D01*
X121772Y55569D01*
Y56242D01*
X121514Y56865D01*
X121038Y57341D01*
X120415Y57598D01*
D02*
G37*
G36*
X19628Y49803D02*
X18954D01*
X18304Y49629D01*
X17720Y49292D01*
X17244Y48815D01*
X16907Y48232D01*
X16732Y47581D01*
Y46907D01*
X16907Y46256D01*
X17244Y45673D01*
X17720Y45196D01*
X18304Y44859D01*
X18954Y44685D01*
X19628D01*
X20279Y44859D01*
X20863Y45196D01*
X21339Y45673D01*
X21676Y46256D01*
X21850Y46907D01*
Y47581D01*
X21676Y48232D01*
X21339Y48815D01*
X20863Y49292D01*
X20279Y49629D01*
X19628Y49803D01*
D02*
G37*
G36*
X129471Y48937D02*
X128797D01*
X128175Y48679D01*
X127699Y48203D01*
X127441Y47581D01*
Y46907D01*
X127699Y46285D01*
X128175Y45809D01*
X128797Y45551D01*
X129471D01*
X129803Y45256D01*
Y44939D01*
X130061Y44317D01*
X130537Y43840D01*
X131159Y43583D01*
X131833D01*
X132455Y43840D01*
X132931Y44317D01*
X133189Y44939D01*
Y45612D01*
X132931Y46235D01*
X132455Y46711D01*
X131833Y46968D01*
X131159D01*
X130827Y47264D01*
Y47581D01*
X130569Y48203D01*
X130093Y48679D01*
X129471Y48937D01*
D02*
G37*
G36*
X119628Y52874D02*
X118955D01*
X118332Y52616D01*
X117856Y52140D01*
X117598Y51518D01*
Y50844D01*
X117856Y50222D01*
X118224Y49855D01*
X118293Y49606D01*
X118224Y49358D01*
X117856Y48990D01*
X117598Y48368D01*
Y47695D01*
X117856Y47072D01*
X118332Y46596D01*
X118622Y46476D01*
Y46043D01*
X118332Y45923D01*
X117856Y45447D01*
X117598Y44825D01*
Y44151D01*
X117856Y43529D01*
X118332Y43053D01*
X118955Y42795D01*
X119628D01*
X120250Y43053D01*
X120727Y43529D01*
X120984Y44151D01*
Y44825D01*
X120727Y45447D01*
X120250Y45923D01*
X119961Y46043D01*
Y46476D01*
X120250Y46596D01*
X120727Y47072D01*
X120984Y47695D01*
Y48368D01*
X120727Y48990D01*
X120359Y49358D01*
X120289Y49606D01*
X120359Y49855D01*
X120727Y50222D01*
X120984Y50844D01*
Y51518D01*
X120727Y52140D01*
X120250Y52616D01*
X119628Y52874D01*
D02*
G37*
G36*
X103486Y46181D02*
X102813D01*
X102191Y45923D01*
X101714Y45447D01*
X101457Y44825D01*
Y44151D01*
X101714Y43529D01*
X102191Y43053D01*
X102813Y42795D01*
X103486D01*
X104109Y43053D01*
X104585Y43529D01*
X104842Y44151D01*
Y44825D01*
X104585Y45447D01*
X104109Y45923D01*
X103486Y46181D01*
D02*
G37*
G36*
X111754Y42638D02*
X111081D01*
X110458Y42380D01*
X109982Y41904D01*
X109724Y41282D01*
Y40608D01*
X109982Y39986D01*
X110458Y39510D01*
X111081Y39252D01*
X111754D01*
X112376Y39510D01*
X112853Y39986D01*
X113110Y40608D01*
Y41282D01*
X112853Y41904D01*
X112376Y42380D01*
X111754Y42638D01*
D02*
G37*
G36*
X45809Y41850D02*
X45136D01*
X44513Y41593D01*
X44037Y41116D01*
X43780Y40494D01*
Y39821D01*
X44037Y39198D01*
X44513Y38722D01*
X45136Y38465D01*
X45809D01*
X46431Y38722D01*
X46908Y39198D01*
X47165Y39821D01*
Y40494D01*
X46908Y41116D01*
X46431Y41593D01*
X45809Y41850D01*
D02*
G37*
G36*
X40789D02*
X40116D01*
X39494Y41593D01*
X39018Y41116D01*
X38760Y40494D01*
Y39821D01*
X39018Y39198D01*
X39494Y38722D01*
X40116Y38465D01*
X40789D01*
X41412Y38722D01*
X41888Y39198D01*
X42146Y39821D01*
Y40494D01*
X41888Y41116D01*
X41412Y41593D01*
X40789Y41850D01*
D02*
G37*
G36*
X125927Y41063D02*
X125254D01*
X124632Y40805D01*
X124155Y40329D01*
X123898Y39707D01*
Y39033D01*
X124155Y38411D01*
X124632Y37935D01*
X125254Y37677D01*
X125927D01*
X126549Y37935D01*
X127026Y38411D01*
X127284Y39033D01*
Y39707D01*
X127026Y40329D01*
X126549Y40805D01*
X125927Y41063D01*
D02*
G37*
G36*
X60770Y40787D02*
X60096D01*
X59474Y40530D01*
X58998Y40053D01*
X58740Y39431D01*
Y38758D01*
X58998Y38135D01*
X59474Y37659D01*
X60096Y37402D01*
X60770D01*
X61392Y37659D01*
X61868Y38135D01*
X62126Y38758D01*
Y39431D01*
X61868Y40053D01*
X61392Y40530D01*
X60770Y40787D01*
D02*
G37*
G36*
X55770D02*
X55096D01*
X54474Y40530D01*
X53998Y40053D01*
X53740Y39431D01*
Y38758D01*
X53998Y38135D01*
X54474Y37659D01*
X55096Y37402D01*
X55770D01*
X56392Y37659D01*
X56868Y38135D01*
X57126Y38758D01*
Y39431D01*
X56868Y40053D01*
X56392Y40530D01*
X55770Y40787D01*
D02*
G37*
G36*
X50770D02*
X50096D01*
X49474Y40530D01*
X48998Y40053D01*
X48740Y39431D01*
Y38758D01*
X48998Y38135D01*
X49474Y37659D01*
X50096Y37402D01*
X50770D01*
X51392Y37659D01*
X51868Y38135D01*
X52126Y38758D01*
Y39431D01*
X51868Y40053D01*
X51392Y40530D01*
X50770Y40787D01*
D02*
G37*
G36*
X20415Y35551D02*
X19742D01*
X19120Y35293D01*
X18644Y34817D01*
X18386Y34195D01*
Y33522D01*
X18644Y32899D01*
X19120Y32423D01*
X19742Y32165D01*
X20415D01*
X21038Y32423D01*
X21514Y32899D01*
X21772Y33522D01*
Y34195D01*
X21514Y34817D01*
X21038Y35293D01*
X20415Y35551D01*
D02*
G37*
G36*
X67266Y33976D02*
X66592D01*
X65970Y33719D01*
X65494Y33242D01*
X65236Y32620D01*
Y31947D01*
X65494Y31324D01*
X65970Y30848D01*
X66592Y30591D01*
X67266D01*
X67888Y30848D01*
X68364Y31324D01*
X68622Y31947D01*
Y32620D01*
X68364Y33242D01*
X67888Y33719D01*
X67266Y33976D01*
D02*
G37*
G36*
X51518D02*
X50844D01*
X50222Y33719D01*
X49746Y33242D01*
X49488Y32620D01*
Y31947D01*
X49746Y31324D01*
X50222Y30848D01*
X50844Y30591D01*
X51518D01*
X52140Y30848D01*
X52616Y31324D01*
X52874Y31947D01*
Y32620D01*
X52616Y33242D01*
X52140Y33719D01*
X51518Y33976D01*
D02*
G37*
G36*
X77896Y28465D02*
X77222D01*
X76600Y28207D01*
X76124Y27731D01*
X75866Y27108D01*
Y26435D01*
X76124Y25813D01*
X76600Y25337D01*
X77222Y25079D01*
X77896D01*
X78518Y25337D01*
X78994Y25813D01*
X79252Y26435D01*
Y27108D01*
X78994Y27731D01*
X78518Y28207D01*
X77896Y28465D01*
D02*
G37*
G36*
X94923Y27283D02*
X94250D01*
X93628Y27026D01*
X93151Y26550D01*
X92894Y25927D01*
Y25254D01*
X93151Y24632D01*
X93628Y24155D01*
X94250Y23898D01*
X94923D01*
X95546Y24155D01*
X96022Y24632D01*
X96280Y25254D01*
Y25927D01*
X96022Y26550D01*
X95546Y27026D01*
X94923Y27283D01*
D02*
G37*
G36*
X88329D02*
X87655D01*
X87033Y27026D01*
X86557Y26550D01*
X86299Y25927D01*
Y25254D01*
X86557Y24632D01*
X87033Y24155D01*
X87655Y23898D01*
X88329D01*
X88951Y24155D01*
X89427Y24632D01*
X89685Y25254D01*
Y25927D01*
X89427Y26550D01*
X88951Y27026D01*
X88329Y27283D01*
D02*
G37*
G36*
X134982Y26890D02*
X134309D01*
X133687Y26632D01*
X133211Y26156D01*
X132953Y25534D01*
Y24860D01*
X133211Y24238D01*
X133687Y23762D01*
X134309Y23504D01*
X134982D01*
X135605Y23762D01*
X136081Y24238D01*
X136339Y24860D01*
Y25534D01*
X136081Y26156D01*
X135605Y26632D01*
X134982Y26890D01*
D02*
G37*
G36*
X129077D02*
X128403D01*
X127781Y26632D01*
X127305Y26156D01*
X127047Y25534D01*
Y24860D01*
X127305Y24238D01*
X127781Y23762D01*
X128403Y23504D01*
X129077D01*
X129699Y23762D01*
X130175Y24238D01*
X130433Y24860D01*
Y25534D01*
X130175Y26156D01*
X129699Y26632D01*
X129077Y26890D01*
D02*
G37*
G36*
X46793Y26496D02*
X46120D01*
X45498Y26238D01*
X45022Y25762D01*
X44764Y25140D01*
Y24466D01*
X45022Y23844D01*
X45498Y23368D01*
X46120Y23110D01*
X46793D01*
X47416Y23368D01*
X47892Y23844D01*
X48150Y24466D01*
Y25140D01*
X47892Y25762D01*
X47416Y26238D01*
X46793Y26496D01*
D02*
G37*
G36*
X123265Y24016D02*
X122325D01*
X121457Y23656D01*
X120793Y22992D01*
X120433Y22123D01*
Y21184D01*
X120793Y20315D01*
X121457Y19651D01*
X122325Y19291D01*
X123265D01*
X124133Y19651D01*
X124798Y20315D01*
X125157Y21184D01*
Y22123D01*
X124798Y22992D01*
X124133Y23656D01*
X123265Y24016D01*
D02*
G37*
G36*
X100509D02*
X99569D01*
X98701Y23656D01*
X98037Y22992D01*
X97677Y22123D01*
Y21184D01*
X98037Y20315D01*
X98701Y19651D01*
X99569Y19291D01*
X100509D01*
X101377Y19651D01*
X102042Y20315D01*
X102402Y21184D01*
Y22123D01*
X102042Y22992D01*
X101377Y23656D01*
X100509Y24016D01*
D02*
G37*
G36*
X134982Y21772D02*
X134309D01*
X133687Y21514D01*
X133211Y21038D01*
X132953Y20415D01*
Y19742D01*
X133211Y19120D01*
X133687Y18644D01*
X134309Y18386D01*
X134982D01*
X135605Y18644D01*
X136081Y19120D01*
X136339Y19742D01*
Y20415D01*
X136081Y21038D01*
X135605Y21514D01*
X134982Y21772D01*
D02*
G37*
G36*
X129077D02*
X128403D01*
X127781Y21514D01*
X127305Y21038D01*
X127047Y20415D01*
Y19742D01*
X127305Y19120D01*
X127781Y18644D01*
X128403Y18386D01*
X129077D01*
X129699Y18644D01*
X130175Y19120D01*
X130433Y19742D01*
Y20415D01*
X130175Y21038D01*
X129699Y21514D01*
X129077Y21772D01*
D02*
G37*
G36*
X134982Y11535D02*
X134309D01*
X133687Y11278D01*
X133211Y10802D01*
X132953Y10179D01*
Y9506D01*
X133211Y8884D01*
X133687Y8407D01*
X134309Y8150D01*
X134982D01*
X135605Y8407D01*
X136081Y8884D01*
X136339Y9506D01*
Y10179D01*
X136081Y10802D01*
X135605Y11278D01*
X134982Y11535D01*
D02*
G37*
G36*
X129077D02*
X128403D01*
X127781Y11278D01*
X127305Y10802D01*
X127047Y10179D01*
Y9506D01*
X127305Y8884D01*
X127781Y8407D01*
X128403Y8150D01*
X129077D01*
X129699Y8407D01*
X130175Y8884D01*
X130433Y9506D01*
Y10179D01*
X130175Y10802D01*
X129699Y11278D01*
X129077Y11535D01*
D02*
G37*
G36*
X94431D02*
X93758D01*
X93135Y11278D01*
X92659Y10802D01*
X92402Y10179D01*
Y9506D01*
X92659Y8884D01*
X93135Y8407D01*
X93758Y8150D01*
X94431D01*
X95053Y8407D01*
X95530Y8884D01*
X95787Y9506D01*
Y10179D01*
X95530Y10802D01*
X95053Y11278D01*
X94431Y11535D01*
D02*
G37*
G36*
X88526D02*
X87852D01*
X87230Y11278D01*
X86754Y10802D01*
X86496Y10179D01*
Y9506D01*
X86754Y8884D01*
X87230Y8407D01*
X87852Y8150D01*
X88526D01*
X89148Y8407D01*
X89624Y8884D01*
X89882Y9506D01*
Y10179D01*
X89624Y10802D01*
X89148Y11278D01*
X88526Y11535D01*
D02*
G37*
G36*
X73959D02*
X73285D01*
X72663Y11278D01*
X72187Y10802D01*
X71929Y10179D01*
Y9506D01*
X72187Y8884D01*
X72663Y8407D01*
X73285Y8150D01*
X73959D01*
X74581Y8407D01*
X75057Y8884D01*
X75315Y9506D01*
Y10179D01*
X75057Y10802D01*
X74581Y11278D01*
X73959Y11535D01*
D02*
G37*
G36*
X66872Y8386D02*
X66199D01*
X65576Y8128D01*
X65100Y7652D01*
X64842Y7030D01*
Y6356D01*
X65100Y5734D01*
X65576Y5258D01*
X66199Y5000D01*
X66872D01*
X67494Y5258D01*
X67971Y5734D01*
X68228Y6356D01*
Y7030D01*
X67971Y7652D01*
X67494Y8128D01*
X66872Y8386D01*
D02*
G37*
G36*
X60573D02*
X59899D01*
X59277Y8128D01*
X58801Y7652D01*
X58543Y7030D01*
Y6356D01*
X58801Y5734D01*
X59277Y5258D01*
X59899Y5000D01*
X60573D01*
X61195Y5258D01*
X61671Y5734D01*
X61929Y6356D01*
Y7030D01*
X61671Y7652D01*
X61195Y8128D01*
X60573Y8386D01*
D02*
G37*
G36*
X54274D02*
X53600D01*
X52978Y8128D01*
X52502Y7652D01*
X52244Y7030D01*
Y6356D01*
X52502Y5734D01*
X52978Y5258D01*
X53600Y5000D01*
X54274D01*
X54896Y5258D01*
X55372Y5734D01*
X55630Y6356D01*
Y7030D01*
X55372Y7652D01*
X54896Y8128D01*
X54274Y8386D01*
D02*
G37*
G36*
X134982Y6417D02*
X134309D01*
X133687Y6160D01*
X133211Y5683D01*
X132953Y5061D01*
Y4388D01*
X133211Y3765D01*
X133687Y3289D01*
X134309Y3032D01*
X134982D01*
X135605Y3289D01*
X136081Y3765D01*
X136339Y4388D01*
Y5061D01*
X136081Y5683D01*
X135605Y6160D01*
X134982Y6417D01*
D02*
G37*
G36*
X129077D02*
X128403D01*
X127781Y6160D01*
X127305Y5683D01*
X127047Y5061D01*
Y4388D01*
X127305Y3765D01*
X127781Y3289D01*
X128403Y3032D01*
X129077D01*
X129699Y3289D01*
X130175Y3765D01*
X130433Y4388D01*
Y5061D01*
X130175Y5683D01*
X129699Y6160D01*
X129077Y6417D01*
D02*
G37*
G36*
X94431D02*
X93758D01*
X93135Y6160D01*
X92659Y5683D01*
X92402Y5061D01*
Y4388D01*
X92659Y3765D01*
X93135Y3289D01*
X93758Y3032D01*
X94431D01*
X95053Y3289D01*
X95530Y3765D01*
X95787Y4388D01*
Y5061D01*
X95530Y5683D01*
X95053Y6160D01*
X94431Y6417D01*
D02*
G37*
G36*
X88526D02*
X87852D01*
X87230Y6160D01*
X86754Y5683D01*
X86496Y5061D01*
Y4388D01*
X86754Y3765D01*
X87230Y3289D01*
X87852Y3032D01*
X88526D01*
X89148Y3289D01*
X89624Y3765D01*
X89882Y4388D01*
Y5061D01*
X89624Y5683D01*
X89148Y6160D01*
X88526Y6417D01*
D02*
G37*
%LPD*%
G36*
X34923Y99454D02*
X34932Y99356D01*
X34947Y99261D01*
X34969Y99171D01*
X34997Y99084D01*
X35032Y99002D01*
X35074Y98923D01*
X35121Y98849D01*
X35176Y98779D01*
X35237Y98713D01*
X34791Y98267D01*
X34725Y98328D01*
X34655Y98383D01*
X34580Y98430D01*
X34502Y98472D01*
X34420Y98506D01*
X34333Y98535D01*
X34243Y98557D01*
X34148Y98572D01*
X34049Y98580D01*
X33947Y98583D01*
X34921Y99557D01*
X34923Y99454D01*
D02*
G37*
G36*
X33927Y93583D02*
X33824Y93581D01*
X33726Y93572D01*
X33631Y93557D01*
X33541Y93535D01*
X33454Y93506D01*
X33372Y93472D01*
X33293Y93430D01*
X33219Y93383D01*
X33149Y93328D01*
X33083Y93267D01*
X32637Y93713D01*
X32698Y93779D01*
X32753Y93849D01*
X32800Y93923D01*
X32842Y94002D01*
X32877Y94084D01*
X32905Y94171D01*
X32927Y94261D01*
X32942Y94356D01*
X32951Y94454D01*
X32953Y94557D01*
X33927Y93583D01*
D02*
G37*
G36*
X30634Y45921D02*
X30645Y45833D01*
X30664Y45747D01*
X30690Y45662D01*
X30723Y45579D01*
X30765Y45498D01*
X30813Y45419D01*
X30869Y45341D01*
X30933Y45265D01*
X31004Y45191D01*
X29626D01*
X29697Y45265D01*
X29761Y45341D01*
X29817Y45419D01*
X29865Y45498D01*
X29906Y45579D01*
X29940Y45662D01*
X29966Y45747D01*
X29985Y45833D01*
X29996Y45921D01*
X30000Y46011D01*
X30630D01*
X30634Y45921D01*
D02*
G37*
G36*
X28071Y45342D02*
X28010Y45276D01*
X27956Y45206D01*
X27908Y45132D01*
X27867Y45053D01*
X27832Y44971D01*
X27804Y44884D01*
X27782Y44794D01*
X27767Y44699D01*
X27758Y44601D01*
X27756Y44498D01*
X26781Y45472D01*
X26884Y45475D01*
X26983Y45483D01*
X27077Y45499D01*
X27168Y45520D01*
X27254Y45549D01*
X27337Y45583D01*
X27415Y45625D01*
X27490Y45673D01*
X27560Y45727D01*
X27626Y45788D01*
X28071Y45342D01*
D02*
G37*
D10*
X114173Y82284D02*
X114173Y82284D01*
D26*
X26772Y44488D02*
X28740Y46457D01*
Y89370D01*
X33937Y94567D01*
X30315Y44488D02*
Y87795D01*
X36220Y93701D01*
Y97284D01*
X33937Y99567D02*
X36220Y97284D01*
D29*
X88583Y102362D02*
D03*
X33465Y49606D02*
D03*
X62992Y9449D02*
D03*
X44094Y21654D02*
D03*
X51181Y35827D02*
D03*
X94095Y42520D02*
D03*
X66535Y38976D02*
D03*
X23622Y47244D02*
D03*
Y51968D02*
D03*
X2362Y2362D02*
D03*
X139370D02*
D03*
X44980Y6398D02*
D03*
X15650D02*
D03*
X70472Y36614D02*
D03*
X94095Y33465D02*
D03*
X127559Y33071D02*
D03*
X130709Y40157D02*
D03*
X127559Y104331D02*
D03*
X131102Y114961D02*
D03*
X115748D02*
D03*
X96850Y37795D02*
D03*
X137795Y43307D02*
D03*
Y47244D02*
D03*
X22047Y39370D02*
D03*
Y55118D02*
D03*
X12598Y94095D02*
D03*
Y102756D02*
D03*
X30315Y35039D02*
D03*
X20472Y18504D02*
D03*
X116929Y105512D02*
D03*
X111417Y37402D02*
D03*
X88976Y73228D02*
D03*
X114961Y101181D02*
D03*
X108661Y64173D02*
D03*
Y57874D02*
D03*
X33937Y94567D02*
D03*
Y99567D02*
D03*
X26772Y44488D02*
D03*
X30315D02*
D03*
X128347Y67323D02*
D03*
Y59449D02*
D03*
X128347Y63386D02*
D03*
X33071Y114567D02*
D03*
X118504Y89764D02*
D03*
X123622Y45669D02*
D03*
X111811Y100394D02*
D03*
X50197Y6693D02*
D03*
X70472D02*
D03*
X57087D02*
D03*
X70866Y32283D02*
D03*
X55118D02*
D03*
X111811Y114961D02*
D03*
X114173Y82284D02*
D03*
X92913Y114567D02*
D03*
X108268Y88583D02*
D03*
X105512Y85433D02*
D03*
X111024Y70079D02*
D03*
X125984Y55709D02*
D03*
X128347D02*
D03*
Y53347D02*
D03*
D30*
X63386Y81496D02*
D03*
X74409D02*
D03*
Y87008D02*
D03*
X63386D02*
D03*
X66142Y78740D02*
D03*
X71653D02*
D03*
Y89764D02*
D03*
X66142D02*
D03*
Y84252D02*
D03*
X71653D02*
D03*
X68898Y81496D02*
D03*
Y87008D02*
D03*
M02*
